**ABCDEFGHIJKLMNOPQRSTUVWXYZabcdefghijklmnopqrstuvwxyz**************************
**PARASOLID !"#$%&'()*+,-./:;<=>?@[\]^_`{|}~0123456789**************************
**PART1;
MC=AMD64;
MC_MODEL=AMD64 Family 23 Model 104 Stepping 1, AuthenticAMD;
MC_ID=unknown;
OS=Windows_NT;
OS_RELEASE=unknown;
FRU=Parasolid Version 30.0, build 298, 12-15-2017;
APPL=SOLIDWORKS 2018-2018134;
SITE=;
USER=unknown;
FORMAT=text;
GUISE=transmit;
KEY=Part 2;
FILE=Part 2.x_t;
DATE=Sun Nov 14 02:09:19 2021;
**PART2;
SCH=SCH_3000298_30000;
USFLD_SIZE=0;
**PART3;
**END_OF_HEADER*****************************************************************
T51 : TRANSMIT FILE created by modeller version 300029823 SCH_3000298_30000_1300
6205 0 10 19 CCCCCCCI4 mesh1006 0 I8 polyline1008 0 CCCCCCCCCCZ1 5 2 3 0 0 0 0 0
 0 0 1e3 1e-8 0 0 0 1 0 1 4 81 255 2 2 5 5 1 0 0 0 0 0 0 70 11 CI9 list_type0 0
 1 uI10 notransmit0 0 1 lCCCDCCDI12 finger_index0 0 1 dI12 finger_block1012 0 CZ
3 0 4 T1 0 0 1 20 1 6 6 11 255 4 3 0 1 7 8 1 9 0 0 0 12 33 CCCCCCI4 mesh1006 0 I
8 polyline1008 0 CCCCCCCDI5 owner1040 0 CCCCCCI13 boundary_mesh1006 0 I17 bounda
ry_polyline1008 0 CCCA16 index_map_offset0 0 1 dA9 index_map82 0 A17 node_id_ind
ex_map82 0 A20 schema_embedding_map82 0 A5 child12 0 A14 lowest_node_id0 0 1 dZ7
 453 10 11 0 0 0 0 0 0 1e3 1e-8 4 12 0 1 0 1 1 13 14 15 16 0 0 17 18 19 0 0 0 0
 0 0 100 255 8 4 4 0 0 1 0 0 0 1 0 0 0 1 0 0 0 1 0 ?11 9 1 0 1 12 20 1 0 4 0 0 1
2 12 453 21 22 0 0 0 0 0 0 1e3 1e-8 9 23 7 1 0 1 1 24 25 26 27 0 0 28 29 30 0 0
 0 0 0 0 100 20 2 9 0 0 1 0 0 0 1 0 0 0 1 0 0 0 1 0 ?81 2 21 297 31 12 32 0 0 0
 33 0 70 22 0 4 T12 0 0 9 20 1 34 34 13 255 24 4 0 12 0 35 0 0 36 0 51 255 25 78
 0 37 38 0 0 +-.128 0 0 -1 0 0 .0015 0 0 1 30 255 26 118 0 39 40 0 0 +-.128 .02
 .0075 -1 0 0 29 255 27 94 0 41 42 0 -.128 0 -.0075 19 8 CCCCCCCA5 owner12 0 Z28
 2 0 12 36 0 43 V0 16 255 29 7 44 ?45 0 46 47 0 0 12 18 255 30 9 48 49 0 50 51 ?
12 81 1 48 208 52 30 53 0 54 55 56 17 255 49 0 57 58 59 30 60 46 0 45 -18 50 11
 61 62 30 63 64 ?12 29 51 84 0 30 65 66 -.128 .02 -.0015 29 65 83 0 63 67 51 -.1
31 .02 .0015 29 66 85 0 68 51 69 -.131 .02 .0075 18 68 45 55 70 71 72 66 ?12 29
 69 86 0 71 66 73 -.131 0 .0075 18 71 42 74 75 76 68 69 ?12 29 73 87 0 77 69 78
 -.128 .02 .0015 18 77 8 79 80 63 81 73 ?12 29 78 88 0 82 73 83 -.131 0 -.0075 1
8 82 43 84 85 72 0 78 ?12 29 83 89 0 86 78 87 -.128 .02 -.0075 18 86 31 88 89 41
 90 83 ?12 29 87 90 0 72 83 91 -.131 .02 -.0075 18 72 47 92 93 68 82 87 ?12 29 9
1 91 0 90 87 94 -.128 .02 .0075 18 90 33 95 96 86 76 91 ?12 29 94 92 0 97 91 42
 -.128 0 .0015 18 97 18 98 99 100 41 94 ?12 29 42 93 0 100 94 27 -.131 0 .0015 1
8 100 23 101 102 103 97 42 ?12 81 1 101 226 52 100 104 0 98 105 106 17 102 0 107
 108 109 100 99 110 0 111 +18 103 21 112 113 81 100 67 ?12 81 1 112 204 52 103 1
14 0 115 54 116 17 113 0 117 118 118 103 111 119 0 120 +18 81 19 121 122 77 103
 123 ?12 29 67 82 0 103 124 65 -.131 183697019872103e-33 -.0015 29 124 81 0 76 6
4 67 -.128 0 .0075 18 76 28 115 125 90 71 124 ?12 29 64 80 0 50 123 124 -.131 .0
2 -.0015 29 123 79 0 81 0 64 -.128 183697019872103e-33 -.0015 81 1 115 202 52 76
 126 0 61 112 127 17 125 0 128 129 130 76 96 131 0 132 +15 255 128 26 0 129 133
 134 17 129 0 128 135 125 41 132 136 0 137 +17 130 0 128 125 135 90 89 138 0 139
 +17 96 0 140 141 142 90 125 131 0 130 -16 131 34 143 ?125 138 119 144 0 0 12 17
 132 0 145 146 137 76 129 136 0 142 -15 145 54 0 147 148 0 17 146 0 145 147 132
 71 142 149 0 0 +17 137 0 145 132 147 41 150 151 0 0 -16 136 27 152 ?129 153 154
 155 0 0 12 17 142 0 140 96 75 76 146 149 0 0 -15 140 64 0 75 156 0 17 75 0 140
 142 141 71 70 157 0 158 +16 149 56 159 ?146 160 161 162 0 0 12 81 1 159 245 163
 149 164 0 165 166 167 16 160 41 165 ?147 168 149 169 0 0 12 16 161 48 166 ?170
 149 151 171 0 0 12 30 162 110 0 149 172 173 0 +-.128 0 .0075 -1 0 0 31 255 172
 109 0 168 174 162 0 +-.131 .02 1734723475976805e-33 1 0 0 0 0 1 .0015 31 173 11
1 0 138 162 175 0 +-.128 .02 1734723475976805e-33 1 0 0 0 0 1 .0075 16 138 32 17
6 ?130 154 131 173 0 0 12 31 175 112 0 177 173 178 0 +-.131 .02 1734723475976805
e-33 1 0 0 0 0 1 .0075 16 177 46 179 ?180 151 181 175 0 0 12 30 178 113 0 153 17
5 155 0 +-.128 183697019872103e-33 -.0015 -1 0 0 16 153 20 182 ?120 183 136 178
 0 0 12 31 155 114 0 136 178 169 0 +-.128 0 0 1 0 0 0 0 -1 .0075 31 169 115 0 16
0 155 144 0 +-.131 0 0 1 0 0 0 0 -1 .0075 30 144 116 0 131 169 40 0 +-.128 0 .00
75 0 -1 0 30 40 117 0 46 144 26 0 +-.128 .02 -.0015 -1 0 0 16 46 10 184 ?60 29 1
83 40 0 0 12 81 1 184 233 163 46 185 0 44 186 187 17 60 0 188 189 45 50 49 46 0
 59 +16 183 17 186 ?190 46 153 191 0 0 12 81 1 186 234 163 183 192 0 184 182 193
 17 190 0 194 120 99 81 195 183 0 196 +31 191 101 0 183 197 198 0 +-.128 0 0 1 0
 0 0 0 -1 .0015 31 197 100 0 199 200 191 0 +-.128 0 0 1 0 0 0 0 -1 .0015 31 198
 102 0 201 191 202 0 +-.128 .02 1734723475976805e-33 1 0 0 0 0 1 .0015 16 201 38
 203 ?58 110 204 198 0 0 12 30 202 103 0 157 198 205 0 +-.131 0 .0075 0 -1 0 16
 157 44 206 ?75 181 39 202 0 0 12 30 205 104 0 181 202 207 0 +-.128 .02 -.0075 -
1 0 0 16 181 59 208 ?209 177 157 205 0 0 12 31 207 105 0 210 205 171 0 +-.131 .0
2 1734723475976805e-33 1 0 0 0 0 1 .0015 16 210 12 211 ?62 212 168 207 0 0 12 30
 171 106 0 161 207 213 0 +-.131 0 -.0075 0 1 0 30 213 107 0 154 171 174 0 +-.128
 0 -.0075 0 1 0 16 154 30 214 ?135 136 138 213 0 0 12 30 174 108 0 110 213 172 0
 +-.128 0 .0015 -1 0 0 16 110 24 215 ?102 199 201 174 0 0 12 81 1 215 253 163 11
0 216 0 217 203 218 16 199 36 217 ?109 39 110 197 0 0 12 81 1 217 252 163 199 21
9 0 220 215 221 17 109 0 107 102 122 97 196 199 0 0 +16 39 62 220 ?141 157 199 2
6 0 0 12 81 1 220 251 163 39 222 0 206 217 223 17 141 0 140 75 96 68 139 39 0 0
 +17 139 0 224 89 180 90 141 39 0 0 -15 224 61 0 180 225 0 17 89 0 224 209 139 8
6 130 138 0 135 -17 180 0 224 139 209 68 93 177 0 141 +17 209 0 224 180 89 72 22
6 181 0 0 +17 93 0 227 85 70 72 180 177 0 170 -15 227 40 0 158 228 117 17 85 0 2
27 158 93 82 170 161 0 147 -17 70 0 227 93 158 68 75 157 0 180 -17 170 0 229 226
 150 72 85 161 0 209 +15 229 58 0 170 230 0 17 226 0 229 231 170 86 209 181 0 0
 -17 150 0 229 170 231 82 137 151 0 0 +17 231 0 229 150 226 41 135 154 0 129 -16
 151 55 232 ?150 161 177 233 0 0 12 81 1 232 247 163 151 234 0 166 179 235 30 23
3 95 0 151 0 236 0 +-.128 0 -.0075 -1 0 0 30 236 96 0 204 233 47 0 +-.128 .02 .0
015 -1 0 0 16 204 14 237 ?238 201 0 236 0 0 12 31 47 97 0 29 236 239 0 +-.128 .0
2 1734723475976805e-33 1 0 0 0 0 1 .0015 31 239 98 0 212 47 200 0 +-.131 0 0 1 0
 0 0 0 -1 .0015 16 212 50 240 ?118 119 210 239 0 0 12 31 200 99 0 119 239 197 0
 +-.131 0 0 1 0 0 0 0 -1 .0015 16 119 22 241 ?113 131 212 200 0 0 12 81 1 241 24
0 163 119 242 0 143 240 243 80 255 1 163 0 244 8001 0 0 0 0 3 5 0 0 0 FFFFTFTFFF
FFFF2 81 1 242 128 52 119 245 241 246 219 247 81 1 143 239 163 131 248 0 176 241
 249 81 1 240 241 163 212 246 0 241 211 250 83 255 3 243 .792156875133514 .81960
7853889465 .933333337306976 81 1 246 126 52 212 251 240 252 242 253 81 1 211 242
 163 210 254 0 240 255 256 83 3 250 .792156875133514 .819607853889465 .933333337
306976 81 1 254 140 52 210 257 211 258 259 260 81 1 255 243 163 168 261 0 211 16
5 262 83 3 256 .792156875133514 .819607853889465 .933333337306976 16 168 52 255
 ?263 210 160 172 0 0 12 81 1 261 148 52 168 264 255 216 164 265 81 1 165 244 16
3 160 266 0 255 159 267 83 3 262 .792156875133514 .819607853889465 .933333337306
976 81 1 266 160 52 160 268 165 269 248 270 83 3 267 .792156875133514 .819607853
889465 .933333337306976 80 1 52 271 272 9000 0 0 0 0 3 6 0 0 0 TTTFTFTTTFFFFF3 8
1 1 268 159 273 160 0 266 274 275 276 81 1 269 158 52 136 274 152 277 266 278 81
 1 248 162 52 131 275 143 266 185 279 84 255 2 270 1181 1 275 161 273 131 0 248
 268 280 281 81 1 185 164 52 46 280 184 248 222 282 84 3 279 24281 1 280 163 273
 46 0 185 275 283 284 81 1 222 166 52 39 283 220 185 285 286 84 3 282 59381 1 28
3 165 273 39 0 222 280 287 288 81 1 285 169 52 133 287 289 222 290 291 84 3 286
 60314 255 133 25 289 ?228 37 128 24 292 +0 0 228 37 43 81 1 287 168 273 133 293
 285 283 294 295 81 1 289 444 296 133 285 0 0 297 298 81 1 290 172 52 228 294 29
7 285 299 300 84 2 291 1314 228 39 297 ?148 133 227 24 301 -0 0 148 133 43 81 1
 294 171 273 228 302 290 287 303 304 81 1 297 445 296 228 290 0 289 305 306 81 1
 299 175 52 148 303 305 290 307 308 84 3 300 50414 148 53 305 ?230 228 145 24 30
9 +0 0 230 228 43 81 1 303 174 273 148 310 299 294 311 312 81 1 305 446 296 148
 299 0 297 313 314 81 1 307 178 52 315 311 313 299 316 317 84 3 308 62214 315 65
 313 ?318 156 107 24 319 -0 0 318 156 43 81 1 311 177 273 315 320 307 303 321 32
2 81 1 313 447 296 315 307 0 305 323 324 81 1 316 181 52 225 321 323 307 325 326
 84 3 317 43514 225 60 323 ?156 230 224 24 327 +0 0 156 230 43 81 1 321 180 273
 225 328 316 311 329 330 81 1 323 448 296 225 316 0 313 331 332 81 1 325 184 52
 35 329 331 316 333 334 84 3 326 28814 35 5 331 ?37 0 188 24 335 -0 0 37 0 43 81
 1 329 183 273 35 336 325 321 337 338 81 1 331 449 296 35 325 0 323 339 340 81 1
 333 187 52 156 337 339 325 341 342 84 3 334 34714 156 63 339 ?315 225 140 24 34
3 -0 0 315 225 43 81 1 337 186 273 156 344 333 329 345 346 81 1 339 450 296 156
 333 0 331 347 348 81 1 341 190 52 230 345 347 333 349 350 84 3 342 21914 230 57
 347 ?225 148 229 24 351 -0 0 225 148 43 81 1 345 189 273 230 352 341 337 353 35
4 81 1 347 451 296 230 341 0 339 355 356 81 1 349 193 52 318 353 355 341 357 358
 84 3 350 27614 318 67 355 ?0 315 57 24 38 -0 0 0 315 43 81 1 353 192 273 318 35
9 349 345 360 361 81 1 355 452 296 318 349 0 347 362 363 81 1 357 196 52 37 360
 362 349 121 364 84 3 358 66914 37 15 362 ?133 35 194 24 25 -0 0 133 35 43 81 1
 360 195 273 37 365 357 353 366 367 81 1 362 453 296 37 357 0 355 0 368 81 1 121
 198 52 81 366 0 357 61 369 84 3 364 65081 1 366 197 273 81 0 121 360 370 371 81
 1 61 200 52 50 370 0 121 115 372 84 3 369 45081 1 370 199 273 50 0 61 366 126 3
73 84 3 372 63880 1 273 374 375 8017 0 0 0 0 0 0 0 0 0 TTTTTTTTTTTTTF3 81 1 126
 201 273 76 0 115 370 114 376 84 4 373 NONE81 1 114 203 273 103 0 112 126 377 37
8 84 4 376 NONE81 1 377 205 273 63 0 54 114 53 379 84 4 378 NONE18 63 13 54 238
 50 77 65 ?12 81 1 54 206 52 63 377 0 112 48 380 81 1 53 207 273 30 0 48 377 381
 382 84 4 379 NONE81 1 381 209 273 68 0 55 53 383 384 84 4 382 NONE81 1 55 210 5
2 68 381 0 48 74 385 81 1 383 211 273 71 0 74 381 386 387 84 4 384 NONE81 1 74 2
12 52 71 383 0 55 79 388 81 1 386 213 273 77 0 79 383 389 390 84 4 387 NONE81 1
 79 214 52 77 386 0 74 84 391 81 1 389 215 273 82 0 84 386 392 393 84 4 390 NONE
81 1 84 216 52 82 389 0 79 88 394 81 1 392 217 273 86 0 88 389 395 396 84 4 393
 NONE81 1 88 218 52 86 392 0 84 92 397 81 1 395 219 273 72 0 92 392 398 399 84 4
 396 NONE81 1 92 220 52 72 395 0 88 95 400 81 1 398 221 273 90 0 95 395 401 402
 84 4 399 NONE81 1 95 222 52 90 398 0 92 98 403 81 1 401 223 273 97 0 98 398 104
 404 84 4 402 NONE81 1 98 224 52 97 401 0 95 101 405 81 1 104 225 273 100 0 101
 401 406 407 84 4 404 NONE81 1 406 227 273 41 0 105 104 408 409 84 4 407 NONE18
 41 29 105 231 97 86 27 ?12 81 1 105 228 52 41 406 0 101 32 410 81 1 408 256 273
 12 411 412 406 0 0 84 4 409 NONE81 1 411 231 413 12 414 408 0 0 415 81 1 412 25
7 416 12 408 32 0 0 417 80 1 416 52 418 9000 0 0 0 0 3 5 0 0 0 TFTFTFTFFFFFFF3 8
1 1 32 258 52 12 412 21 105 0 419 84 6 417 Part 284 3 419 19579 255 22 418 ATTRI
B_XPARASOLID_NAME80 1 413 163 420 8040 0 0 0 0 3 5 0 0 0 TTTFFFFFFFFFFF2 81 1 41
4 230 421 12 422 411 0 0 423 83 3 415 .792156875133514 .819607853889465 .9333333
37306976 80 1 421 424 425 9000 0 0 0 0 3 5 0 0 0 TTTFTFTTFFFFFF3 81 1 422 229 42
4 12 0 414 0 0 426 84 4 423 NONE80 1 424 416 427 9000 0 0 0 0 3 5 0 0 0 FTTFTFTT
FFFFFF1 82 255 1 426 -1 79 23 427 ATTRIB_XPARASOLID_LAYER79 26 425 ATTRIB_XGENER
IC_LAYER_NAME79 17 420 SDL/TYSA_COLOUR_284 3 410 38584 3 405 47084 3 403 30584 3
 400 33584 3 397 26984 2 394 8984 3 391 30384 3 388 52784 3 385 28084 3 380 3191
7 238 0 57 59 58 63 80 204 0 189 +15 57 68 0 49 318 0 17 59 0 57 49 238 50 263 1
68 0 0 -17 58 0 57 238 49 77 428 201 0 0 +17 80 0 188 45 189 77 238 204 0 429 -1
7 189 0 188 80 60 63 62 210 0 263 -15 188 6 0 45 35 0 17 62 0 430 263 263 50 189
 210 0 60 +17 263 0 430 62 62 63 59 168 0 0 +15 430 51 0 62 228 0 17 45 0 188 60
 80 30 429 29 0 428 +17 429 0 431 428 428 77 45 29 0 58 -17 428 0 431 429 429 30
 58 201 0 0 -15 431 37 0 429 133 0 79 13 375 SDL/TYSA_NAME84 4 371 NONE80 1 296
 432 433 9000 1 1 1 1 1 1 1 1 0 FFFFTFTFFFFFFF1 82 1 368 1956708468 79 14 433 SW
EntUnchanged81 1 365 194 163 37 0 360 359 44 434 84 4 367 NONE81 1 359 191 163 3
18 0 353 352 365 435 81 1 44 232 163 29 252 0 365 184 436 83 3 434 .792156862745
098 .819607843137255 .933333333333333 81 1 252 124 52 29 437 44 438 246 439 83 3
 436 .792156875133514 .819607853889465 .933333337306976 81 1 437 123 273 29 0 25
2 440 251 441 81 1 438 122 52 204 440 237 234 252 442 84 2 439 9081 1 440 121 27
3 204 0 438 443 437 444 81 1 237 255 163 204 438 0 203 0 445 81 1 234 120 52 151
 443 232 0 438 446 84 3 442 63581 1 443 119 273 151 0 234 0 440 447 84 3 446 174
84 4 447 NONE81 1 203 254 163 201 448 0 215 237 449 83 3 445 .792156875133514 .8
19607853889465 .933333337306976 81 1 448 134 52 201 450 203 192 451 452 83 3 449
 .792156875133514 .819607853889465 .933333337306976 81 1 450 133 273 201 0 448 4
53 454 455 81 1 192 132 52 183 453 186 219 448 456 81 1 451 136 52 157 454 206 4
48 258 457 84 3 452 22481 1 454 135 273 157 0 451 450 458 459 81 1 206 250 163 1
57 451 0 208 220 460 81 1 258 138 52 181 458 208 451 254 461 84 3 457 63081 1 45
8 137 273 181 0 258 454 257 462 81 1 208 249 163 181 258 0 179 206 463 84 3 461
 48681 1 179 248 163 177 464 0 232 208 465 83 3 463 .792156875133514 .8196078538
89465 .933333337306976 81 1 464 154 52 177 466 179 467 277 468 83 3 465 .7921568
75133514 .819607853889465 .933333337306976 81 1 466 153 273 177 0 464 469 470 47
1 81 1 467 152 52 138 469 176 164 464 472 81 1 277 156 52 153 470 182 464 269 47
3 84 3 468 65781 1 470 155 273 153 0 277 466 274 474 81 1 182 235 163 153 277 0
 186 152 475 84 3 473 25181 1 152 236 163 136 269 0 182 214 476 83 3 475 .792156
875133514 .819607853889465 .933333337306976 81 1 214 237 163 154 477 0 152 176 4
78 83 3 476 .792156875133514 .819607853889465 .933333337306976 81 1 477 144 52 1
54 479 214 259 216 480 81 1 176 238 163 138 467 0 214 143 481 83 3 478 .79215687
5133514 .819607853889465 .933333337306976 83 3 481 .792156875133514 .81960785388
9465 .933333337306976 81 1 479 143 273 154 0 477 482 483 484 81 1 259 142 52 161
 482 166 254 477 485 81 1 216 146 52 110 483 215 477 261 486 84 2 480 3281 1 483
 145 273 110 0 216 479 264 487 84 3 486 15781 1 264 147 273 168 0 261 483 488 48
9 84 4 487 NONE81 1 488 149 273 149 0 164 264 469 490 84 4 489 NONE81 1 164 150
 52 149 488 159 261 467 491 81 1 469 151 273 138 0 467 488 466 492 84 4 490 NONE
84 4 492 NONE84 3 491 32481 1 482 141 273 161 0 259 257 479 493 81 1 166 246 163
 161 259 0 159 232 494 84 3 485 50883 3 494 .792156875133514 .819607853889465 .9
33333337306976 81 1 257 139 273 210 0 254 458 482 495 84 4 493 NONE84 4 495 NONE
84 4 484 NONE81 1 274 157 273 136 0 269 470 268 496 84 4 474 NONE84 4 496 NONE84
 3 472 38484 4 471 NONE84 4 462 NONE83 3 460 .792156875133514 .819607853889465 .
933333337306976 84 4 459 NONE81 1 453 131 273 183 0 192 497 450 498 81 1 219 130
 52 199 497 217 242 192 499 84 3 456 58381 1 497 129 273 199 0 219 245 453 500 8
4 3 499 47181 1 245 127 273 119 0 242 251 497 501 84 4 500 NONE81 1 251 125 273
 212 0 246 437 245 502 84 4 501 NONE84 4 502 NONE84 4 498 NONE84 4 455 NONE84 4
 444 NONE84 4 441 NONE81 1 352 188 163 230 0 345 344 359 503 83 3 435 .792156862
745098 .819607843137255 .933333333333333 81 1 344 185 163 156 0 337 336 352 504
 83 3 503 .792156862745098 .819607843137255 .933333333333333 81 1 336 182 163 35
 0 329 328 344 505 83 3 504 .792156862745098 .819607843137255 .933333333333333 8
1 1 328 179 163 225 0 321 320 336 506 83 3 505 .792156862745098 .819607843137255
 .933333333333333 81 1 320 176 163 315 0 311 310 328 507 83 3 506 .7921568627450
98 .819607843137255 .933333333333333 81 1 310 173 163 148 0 303 302 320 508 83 3
 507 .792156862745098 .819607843137255 .933333333333333 81 1 302 170 163 228 0 2
94 293 310 509 83 3 508 .792156862745098 .819607843137255 .933333333333333 81 1
 293 167 163 133 0 287 0 302 510 83 3 509 .792156862745098 .819607843137255 .933
333333333333 83 3 510 .792156862745098 .819607843137255 .933333333333333 15 194
 16 0 190 37 0 13 43 3 0 0 0 0 0 0 28 35 82 1 363 1956511860 84 4 361 NONE51 38
 77 0 318 351 25 0 +-.128 .02 1734723475976805e-33 -1 0 0 .0015 0 0 1 50 255 351
 76 0 230 343 38 0 +-.128 0 -.0075 0 0 1 1 0 0 50 343 75 0 156 335 351 0 +-.128
 0 .0075 0 0 -1 0 -1 0 51 335 74 0 35 327 343 0 +-.128 .02 1734723475976805e-33
 -1 0 0 .0015 0 0 1 51 327 73 0 225 319 335 0 +-.128 .02 1734723475976805e-33 -1
 0 0 .0075 0 0 1 51 319 72 0 315 309 327 0 +-.128 0 0 -1 0 0 .0015 0 0 1 51 309
 71 0 148 301 319 0 +-.128 0 0 -1 0 0 .0075 0 0 1 50 301 70 0 228 292 309 0 +-.1
31 0 0 1 0 0 0 1 0 50 292 69 0 133 0 301 0 +-.128 0 0 1 0 0 0 1 0 82 1 356 19563
15252 84 4 354 NONE82 1 348 1956118644 84 4 346 NONE82 1 340 1955922036 84 4 338
 NONE82 1 332 1955725428 84 4 330 NONE82 1 324 1955528820 84 4 322 NONE15 107 66
 0 122 315 0 17 122 0 107 109 108 81 120 153 0 190 -17 108 0 107 122 102 103 118
 212 0 0 -17 120 0 194 111 190 103 122 153 0 108 +17 111 0 194 99 120 100 113 11
9 0 118 -17 99 0 194 190 111 97 102 110 0 195 -17 118 0 117 113 113 100 108 212
 0 0 +15 117 49 0 113 228 430 17 195 0 134 196 196 97 190 183 0 109 -15 134 35 0
 195 133 431 17 196 0 134 195 195 81 109 199 0 0 -82 1 314 1955332212 84 4 312 N
ONE82 1 306 1955135604 84 4 304 NONE82 1 298 1954938996 84 4 295 NONE84 4 288 NO
NE84 4 284 NONE84 4 281 NONE84 3 278 46084 4 276 NONE79 20 272 ATTRIB_XPARASOLID
_ID84 3 265 40584 3 260 36984 3 253 41383 3 249 .792156875133514 .81960785388946
5 .933333337306976 84 3 247 57879 15 244 SDL/TYSA_COLOUR83 3 235 .79215687513351
4 .819607853889465 .933333337306976 17 135 0 128 130 129 86 231 154 0 226 +17 15
8 0 227 70 85 71 147 160 0 146 -17 147 0 145 137 146 82 158 160 0 150 +83 3 223
 .792156875133514 .819607853889465 .933333337306976 83 3 221 .792156875133514 .8
19607853889465 .933333337306976 83 3 218 .792156875133514 .819607853889465 .9333
33337306976 83 3 193 .792156875133514 .819607853889465 .933333337306976 83 3 187
 .792156875133514 .819607853889465 .933333337306976 83 3 167 .792156875133514 .8
19607853889465 .933333337306976 84 3 127 21184 3 116 11884 3 106 34084 3 56 6021
9 36 1 0 12 0 28 24 S0 74 4 CI16 index_map_offset0 0 1 dCCZ20 34 9 0 0 408 32 23
7 422 414 411 412 362 21 0 0 0 0 0 0 0 0 0 0 0 80 2 31 511 512 8004 0 0 0 0 3 5
 0 0 0 FFTFFFFFFFFFFF2 3 83 1 33 1 79 16 512 SDL/TYSA_DENSITY81 2 10 297 31 7 51
3 0 0 0 514 0 70 11 0 4 T7 0 0 9 20 1 515 515 13 13 4 0 7 0 516 0 0 517 0 51 14
 78 0 518 519 0 0 +.003 0 0 -1 0 0 .0015 0 0 1 31 15 118 0 520 521 0 0 +.003 .02
 1734723475976805e-33 1 0 0 0 0 1 .0015 29 16 94 0 522 523 0 .003 0 .0015 19 17
 2 0 7 517 0 524 V0 16 18 7 525 ?526 0 527 528 0 0 7 18 19 9 529 530 0 531 532 ?
7 81 1 529 198 52 19 533 0 534 535 536 17 530 0 537 538 539 19 540 527 0 526 -18
 531 11 541 542 19 543 544 ?7 29 532 79 0 19 0 545 .003 .02 -.0015 29 545 80 0 5
43 532 546 0 .02 .0015 18 543 13 535 547 531 548 545 ?7 29 546 81 0 549 545 550
 0 0 -.0075 18 549 43 551 552 553 0 546 ?7 29 550 82 0 554 546 555 .003 18369701
9872103e-33 -.0015 18 554 19 556 557 548 558 550 ?7 29 555 83 0 559 550 560 .003
 0 -.0075 18 559 29 561 562 522 563 555 ?7 29 560 84 0 553 555 564 0 .02 -.0075
 18 553 47 565 566 567 549 560 ?7 29 564 85 0 563 560 568 .003 .02 -.0075 18 563
 31 569 570 559 571 564 ?7 29 568 86 0 548 564 572 .003 .02 .0015 18 548 8 573 5
74 543 554 568 ?7 29 572 87 0 575 568 576 .003 0 .0075 18 575 28 577 578 571 579
 572 ?7 29 576 88 0 567 572 544 0 .02 .0075 18 567 45 580 581 579 553 576 ?7 29
 544 89 0 531 576 582 0 .02 -.0015 29 582 90 0 583 544 584 0 0 .0015 18 583 23 5
85 586 558 522 582 ?7 29 584 91 0 571 582 587 .003 .02 .0075 18 571 33 588 589 5
63 575 584 ?7 29 587 92 0 558 584 523 0 183697019872103e-33 -.0015 18 558 21 590
 591 554 583 587 ?7 29 523 93 0 579 587 16 0 0 .0075 18 579 42 592 593 575 567 5
23 ?7 81 1 592 226 52 579 594 0 590 595 596 17 593 0 597 598 599 579 581 600 0 6
01 +15 597 64 0 593 602 0 17 598 0 597 589 593 575 603 604 0 0 -17 599 0 597 593
 589 567 605 606 0 0 +17 581 0 607 566 601 567 593 600 0 608 -16 600 44 609 ?593
 610 606 611 0 0 7 17 601 0 607 581 552 579 612 613 0 603 -15 607 40 0 601 614 6
15 17 552 0 607 601 566 549 616 617 0 612 -17 612 0 618 619 603 549 601 613 0 62
0 +16 613 41 621 ?612 622 604 623 0 0 7 17 603 0 618 612 624 579 598 604 0 0 +15
 618 54 0 612 625 0 17 624 0 618 603 619 575 626 627 0 598 -16 604 56 628 ?603 6
13 617 629 0 0 7 81 1 628 245 163 604 630 0 621 631 632 16 617 48 631 ?616 604 6
33 634 0 0 7 30 629 104 0 604 635 636 0 +.003 0 .0075 -1 0 0 31 635 103 0 637 61
1 629 0 +0 0 0 1 0 0 0 0 -1 .0015 30 636 105 0 638 629 639 0 +.003 .02 .0015 -1
 0 0 16 638 14 640 ?547 520 0 636 0 0 7 30 639 106 0 641 636 623 0 +.003 0 -.007
5 0 1 0 16 641 30 642 ?643 627 644 639 0 0 7 31 623 107 0 613 639 645 0 +0 0 0 1
 0 0 0 0 -1 .0075 30 645 108 0 606 623 646 0 +.003 .02 .0075 -1 0 0 16 606 62 64
7 ?599 600 648 645 0 0 7 30 646 109 0 610 645 649 0 +.003 .02 -.0075 -1 0 0 16 6
10 59 650 ?651 652 600 646 0 0 7 31 649 110 0 653 646 654 0 +.003 0 0 1 0 0 0 0
 -1 .0015 16 653 17 655 ?656 527 657 649 0 0 7 30 654 111 0 658 649 659 0 +.003
 0 .0075 0 -1 0 16 658 34 660 ?578 644 661 654 0 0 7 30 659 112 0 662 654 663 0
 +.003 0 .0015 -1 0 0 16 662 24 664 ?586 648 520 659 0 0 7 31 663 113 0 622 659
 665 0 +0 .02 1734723475976805e-33 1 0 0 0 0 1 .0015 16 622 52 666 ?667 668 613
 663 0 0 7 31 665 114 0 644 663 669 0 +.003 .02 1734723475976805e-33 1 0 0 0 0 1
 .0075 16 644 32 670 ?671 641 658 665 0 0 7 30 669 115 0 527 665 672 0 +.003 .02
 -.0015 -1 0 0 16 527 10 673 ?540 18 653 669 0 0 7 31 672 116 0 652 669 521 0 +0
 .02 1734723475976805e-33 1 0 0 0 0 1 .0075 16 652 46 674 ?608 633 610 672 0 0 7
 31 521 117 0 661 672 15 0 +0 0 0 1 0 0 0 0 -1 .0015 16 661 22 675 ?591 658 637
 521 0 0 7 81 1 675 240 163 661 676 0 660 677 678 17 591 0 615 679 679 558 680 6
61 0 681 +16 637 50 677 ?679 661 668 635 0 0 7 81 1 677 241 163 637 682 0 675 68
3 684 17 679 0 615 591 591 583 685 637 0 0 +16 668 12 683 ?542 637 622 686 0 0 7
 81 1 683 242 163 668 687 0 677 666 688 17 542 0 689 667 667 531 690 668 0 540 +
31 686 99 0 668 691 692 0 +0 .02 1734723475976805e-33 1 0 0 0 0 1 .0015 31 691 9
8 0 648 528 686 0 +.003 0 0 1 0 0 0 0 -1 .0015 30 692 100 0 657 686 693 0 +.003
 183697019872103e-33 -.0015 -1 0 0 16 657 20 694 ?681 653 627 692 0 0 7 31 693 1
01 0 627 692 611 0 +.003 0 0 1 0 0 0 0 -1 .0075 16 627 27 695 ?626 657 641 693 0
 0 7 30 611 102 0 600 693 635 0 +0 0 .0075 0 -1 0 81 1 695 236 163 627 696 0 694
 642 697 17 626 0 698 643 578 559 624 627 0 619 +15 698 26 0 626 699 700 17 643
 0 698 671 626 563 562 641 0 701 +17 578 0 698 626 671 575 589 658 0 624 +17 619
 0 618 624 612 559 620 633 0 0 -17 620 0 702 616 562 549 619 633 0 0 +16 633 55
 703 ?620 617 652 704 0 0 7 81 1 703 247 163 633 705 0 631 674 706 30 704 96 0 6
33 634 528 0 +.003 0 -.0075 -1 0 0 30 634 95 0 617 0 704 0 +0 0 -.0075 0 1 0 31
 528 97 0 18 704 691 0 +.003 .02 1734723475976805e-33 1 0 0 0 0 1 .0015 81 1 705
 122 52 633 707 703 708 709 710 81 1 631 246 163 617 708 0 628 703 711 81 1 674
 248 163 652 712 0 703 650 713 83 3 706 .792156875133514 .819607853889465 .93333
3337306976 81 1 712 162 52 652 714 674 715 676 716 81 1 650 249 163 610 717 0 67
4 609 718 83 3 713 .792156875133514 .819607853889465 .933333337306976 81 1 717 1
48 52 610 719 650 720 721 722 81 1 609 250 163 600 723 0 650 647 724 83 3 718 .7
92156875133514 .819607853889465 .933333337306976 81 1 723 134 52 600 725 609 696
 682 726 81 1 647 251 163 606 720 0 609 727 728 83 3 724 .792156875133514 .81960
7853889465 .933333337306976 81 1 720 146 52 606 729 647 730 717 731 81 1 727 252
 163 648 732 0 647 664 733 83 3 728 .792156875133514 .819607853889465 .933333337
306976 16 648 36 727 ?734 606 662 691 0 0 7 81 1 732 126 52 648 735 727 709 687
 736 81 1 664 253 163 662 737 0 727 738 739 83 3 733 .792156875133514 .819607853
889465 .933333337306976 81 1 737 154 52 662 740 664 741 742 743 81 1 738 254 163
 520 744 0 664 640 745 83 3 739 .792156875133514 .819607853889465 .9333333373069
76 16 520 38 738 ?538 662 638 15 0 0 7 81 1 744 166 52 520 746 738 676 747 748 8
1 1 640 255 163 638 749 0 738 0 750 83 3 745 .792156875133514 .819607853889465 .
933333337306976 81 1 749 140 52 638 751 640 630 752 753 83 3 750 .79215687513351
4 .819607853889465 .933333337306976 81 1 751 139 273 638 0 749 754 755 756 81 1
 630 138 52 604 754 628 682 749 757 81 1 752 142 52 641 755 642 749 730 758 84 3
 753 32881 1 755 141 273 641 0 752 751 759 760 81 1 642 237 163 641 752 0 695 67
0 761 81 1 730 144 52 613 759 621 752 720 762 84 3 758 37581 1 759 143 273 613 0
 730 755 729 763 81 1 621 244 163 613 730 0 666 628 764 84 3 762 46381 1 666 243
 163 622 742 0 683 621 765 83 3 764 .792156875133514 .819607853889465 .933333337
306976 81 1 742 156 52 622 766 666 737 767 768 83 3 765 .792156875133514 .819607
853889465 .933333337306976 81 1 766 155 273 622 0 742 740 769 770 81 1 767 158 5
2 644 769 670 742 715 771 84 3 768 53381 1 769 157 273 644 0 767 766 772 773 81
 1 670 238 163 644 767 0 642 660 774 81 1 715 160 52 527 772 673 767 712 775 84
 3 771 35081 1 772 159 273 527 0 715 769 714 776 81 1 673 233 163 527 715 0 525
 655 777 84 2 775 2781 1 525 232 163 18 709 0 778 673 779 81 1 655 234 163 653 7
21 0 673 694 780 83 3 777 .792156875133514 .819607853889465 .933333337306976 81
 1 721 150 52 653 781 655 717 741 782 81 1 694 235 163 657 783 0 655 695 784 83
 3 780 .792156875133514 .819607853889465 .933333337306976 81 1 783 130 52 657 78
5 694 687 696 786 83 3 784 .792156875133514 .819607853889465 .933333337306976 81
 1 785 129 273 657 0 783 787 788 789 81 1 687 128 52 668 787 683 732 783 790 81
 1 696 132 52 627 788 695 783 723 791 84 3 786 24781 1 788 131 273 627 0 696 785
 725 792 84 3 791 12181 1 725 133 273 600 0 723 788 793 794 84 4 792 NONE81 1 79
3 135 273 637 0 682 725 754 795 84 4 794 NONE81 1 682 136 52 637 793 677 723 630
 796 81 1 754 137 273 604 0 630 793 751 797 84 4 795 NONE84 4 797 NONE84 3 796 2
0781 1 787 127 273 668 0 687 735 785 798 84 3 790 21481 1 735 125 273 648 0 732
 799 787 800 84 4 798 NONE81 1 799 123 273 18 0 709 707 735 801 84 4 800 NONE81
 1 709 124 52 18 799 525 705 732 802 81 1 707 121 273 633 0 705 803 799 804 84 4
 801 NONE81 1 803 119 273 617 0 708 0 707 805 84 4 804 NONE81 1 708 120 52 617 8
03 631 0 705 806 84 4 805 NONE84 3 806 25984 3 802 48084 4 789 NONE81 1 781 149
 273 653 0 721 719 807 808 81 1 741 152 52 658 807 660 721 737 809 84 3 782 2728
1 1 807 151 273 658 0 741 781 740 810 81 1 660 239 163 658 741 0 670 675 811 84
 3 809 39083 3 811 .792156875133514 .819607853889465 .933333337306976 81 1 740 1
53 273 662 0 737 807 766 812 84 4 810 NONE84 4 812 NONE81 1 719 147 273 610 0 71
7 729 781 813 84 4 808 NONE81 1 729 145 273 606 0 720 759 719 814 84 4 813 NONE8
4 4 814 NONE81 1 778 194 163 518 0 815 816 525 817 83 3 779 .792156875133514 .81
9607853889465 .933333337306976 14 518 65 818 ?819 602 820 13 14 -0 0 819 602 524
 81 1 815 195 273 518 778 534 821 533 822 81 1 816 191 163 823 0 821 824 778 825
 83 3 817 .792156862745098 .819607843137255 .933333333333333 14 823 60 826 ?602
 827 828 13 519 +0 0 602 827 524 81 1 821 192 273 823 816 829 830 815 831 81 1 8
24 188 163 625 0 830 832 816 833 83 3 825 .792156862745098 .819607843137255 .933
333333333333 14 625 53 834 ?827 614 618 13 835 +0 0 827 614 524 81 1 830 189 273
 625 824 836 837 821 838 81 1 832 185 163 827 0 837 839 824 840 83 3 833 .792156
862745098 .819607843137255 .933333333333333 14 827 57 841 ?823 625 702 13 842 -0
 0 823 625 524 81 1 837 186 273 827 832 843 844 830 845 81 1 839 182 163 699 0 8
44 846 832 847 83 3 840 .792156862745098 .819607843137255 .933333333333333 14 69
9 25 848 ?614 849 698 13 850 +0 0 614 849 524 81 1 844 183 273 699 839 851 852 8
37 853 81 1 846 179 163 614 0 852 854 839 855 83 3 847 .792156862745098 .8196078
43137255 .933333333333333 14 614 39 856 ?625 699 607 13 857 -0 0 625 699 524 81
 1 852 180 273 614 846 858 859 844 860 81 1 854 176 163 849 0 859 861 846 862 83
 3 855 .792156862745098 .819607843137255 .933333333333333 14 849 15 863 ?699 516
 864 13 865 -0 0 699 516 524 81 1 859 177 273 849 854 866 867 852 868 81 1 861 1
73 163 516 0 867 869 854 870 83 3 862 .792156862745098 .819607843137255 .9333333
33333333 14 516 5 871 ?849 0 872 13 873 -0 0 849 0 524 81 1 867 174 273 516 861
 874 875 859 876 81 1 869 170 163 819 0 875 877 861 878 83 3 870 .79215686274509
8 .819607843137255 .933333333333333 14 819 67 879 ?0 518 537 13 880 -0 0 0 518 5
24 81 1 875 171 273 819 869 881 882 867 883 81 1 877 167 163 602 0 882 0 869 884
 83 3 878 .792156862745098 .819607843137255 .933333333333333 14 602 63 885 ?518
 823 597 13 886 -0 0 518 823 524 81 1 882 168 273 602 877 747 746 875 887 83 3 8
84 .792156862745098 .819607843137255 .933333333333333 81 1 747 169 52 602 882 88
5 744 881 888 81 1 746 165 273 520 0 744 889 882 890 84 4 887 NONE81 1 889 163 2
73 661 0 676 714 746 891 84 4 890 NONE81 1 676 164 52 661 889 675 712 744 892 81
 1 714 161 273 652 0 712 772 889 893 84 4 891 NONE84 4 893 NONE84 3 892 45681 1
 885 453 296 602 747 0 879 0 894 81 1 881 172 52 819 875 879 747 874 895 84 3 88
8 14081 1 879 452 296 819 881 0 871 885 896 81 1 874 175 52 516 867 871 881 866
 897 84 3 895 32181 1 871 451 296 516 874 0 863 879 898 81 1 866 178 52 849 859
 863 874 858 899 84 3 897 60781 1 863 450 296 849 866 0 856 871 900 81 1 858 181
 52 614 852 856 866 851 901 84 3 899 53881 1 856 449 296 614 858 0 848 863 902 8
1 1 851 184 52 699 844 848 858 843 903 84 3 901 51681 1 848 448 296 699 851 0 84
1 856 904 81 1 843 187 52 827 837 841 851 836 905 84 2 903 9981 1 841 447 296 82
7 843 0 834 848 906 81 1 836 190 52 625 830 834 843 829 907 84 3 905 29781 1 834
 446 296 625 836 0 826 841 908 81 1 829 193 52 823 821 826 836 534 909 84 3 907
 30281 1 826 445 296 823 829 0 818 834 910 81 1 534 196 52 518 815 818 829 529 9
11 84 3 909 34381 1 818 444 296 518 534 0 0 826 912 84 2 911 6982 1 912 19365233
80 82 1 910 1936719988 82 1 908 1936916596 82 1 906 1937113204 82 1 904 19373098
12 82 1 902 1937506420 82 1 900 1937703028 82 1 898 1937899636 82 1 896 19380962
44 82 1 894 1938292852 50 886 69 0 602 0 880 0 +.003 0 .0075 0 0 -1 0 -1 0 13 52
4 3 0 0 0 0 0 0 17 516 51 880 70 0 819 886 873 0 +.003 .02 1734723475976805e-33
 -1 0 0 .0015 0 0 1 51 873 71 0 516 880 865 0 +.003 .02 1734723475976805e-33 -1
 0 0 .0015 0 0 1 51 865 72 0 849 873 857 0 +.003 0 0 -1 0 0 .0015 0 0 1 50 857 7
3 0 614 865 850 0 +0 0 0 1 0 0 0 1 0 50 850 74 0 699 857 842 0 +.003 0 0 1 0 0 0
 1 0 50 842 75 0 827 850 835 0 +.003 0 -.0075 0 0 1 1 0 0 51 835 76 0 625 842 51
9 0 +.003 0 0 -1 0 0 .0075 0 0 1 51 519 77 0 823 835 14 0 +.003 .02 173472347597
6805e-33 -1 0 0 .0075 0 0 1 84 4 883 NONE15 537 68 0 530 819 0 84 4 876 NONE15 8
72 6 0 526 516 0 17 526 0 872 540 574 19 913 18 0 914 +17 540 0 872 690 526 531
 530 527 0 539 +17 574 0 872 526 690 548 547 638 0 913 -17 913 0 915 914 914 548
 526 18 0 538 -17 914 0 915 913 913 19 538 520 0 0 -15 915 37 0 913 699 0 17 538
 0 537 547 530 548 914 520 0 0 +17 547 0 537 539 538 543 574 638 0 690 +17 539 0
 537 530 547 531 667 622 0 0 -17 690 0 872 574 540 543 542 668 0 667 -17 667 0 6
89 542 542 543 539 622 0 0 +15 689 51 0 542 614 0 84 4 868 NONE15 864 16 0 656 8
49 0 17 656 0 864 681 916 554 917 653 0 918 +17 681 0 864 680 656 558 557 657 0
 685 +17 916 0 864 656 680 522 586 662 0 917 -17 917 0 700 918 918 522 656 653 0
 734 -17 918 0 700 917 917 554 734 648 0 0 -15 700 35 0 917 699 915 17 734 0 820
 586 557 522 918 648 0 0 +15 820 66 0 557 518 0 17 586 0 820 685 734 583 916 662
 0 680 +17 557 0 820 734 685 554 681 657 0 656 -18 522 18 595 916 583 559 16 ?7
 81 1 595 228 52 522 919 0 592 513 920 81 1 919 227 273 522 0 595 594 921 922 81
 1 513 258 52 7 923 10 595 0 924 84 3 920 62181 1 923 257 416 7 921 513 0 0 925
 84 3 924 63681 1 921 256 273 7 926 923 919 0 0 84 6 925 Part 281 1 926 231 413
 7 927 921 0 0 928 81 1 927 230 421 7 929 926 0 0 930 83 3 928 .792156875133514
 .819607853889465 .933333337306976 81 1 929 229 424 7 0 927 0 0 931 84 4 930 NON
E82 1 931 -1 81 1 594 225 273 579 0 592 932 919 933 84 4 922 NONE81 1 932 223 27
3 558 0 590 934 594 935 84 4 933 NONE81 1 590 224 52 558 932 0 588 592 936 81 1
 934 221 273 571 0 588 937 932 938 84 4 935 NONE81 1 588 222 52 571 934 0 585 59
0 939 81 1 937 219 273 583 0 585 940 934 941 84 4 938 NONE81 1 585 220 52 583 93
7 0 541 588 942 81 1 940 217 273 531 0 541 943 937 944 84 4 941 NONE81 1 541 218
 52 531 940 0 580 585 945 81 1 943 215 273 567 0 580 946 940 947 84 4 944 NONE81
 1 580 216 52 567 943 0 577 541 948 81 1 946 213 273 575 0 577 949 943 950 84 4
 947 NONE81 1 577 214 52 575 946 0 573 580 951 81 1 949 211 273 548 0 573 952 94
6 953 84 4 950 NONE81 1 573 212 52 548 949 0 569 577 954 81 1 952 209 273 563 0
 569 955 949 956 84 4 953 NONE81 1 569 210 52 563 952 0 565 573 957 81 1 955 207
 273 553 0 565 958 952 959 84 4 956 NONE81 1 565 208 52 553 955 0 561 569 960 81
 1 958 205 273 559 0 561 961 955 962 84 4 959 NONE81 1 561 206 52 559 958 0 556
 565 963 81 1 961 203 273 554 0 556 964 958 965 84 4 962 NONE81 1 556 204 52 554
 961 0 551 561 966 81 1 964 201 273 549 0 551 967 961 968 84 4 965 NONE81 1 551
 202 52 549 964 0 535 556 969 81 1 967 199 273 543 0 535 533 964 970 84 4 968 NO
NE81 1 535 200 52 543 967 0 529 551 971 81 1 533 197 273 19 0 529 815 967 972 84
 4 970 NONE84 4 972 NONE84 3 971 19384 2 969 2884 3 966 66784 3 963 64284 3 960
 17184 3 957 56984 3 954 22184 3 951 34984 3 948 24684 2 945 7684 2 942 5284 3 9
39 29984 3 936 21617 685 0 820 557 586 558 679 637 0 0 -17 680 0 864 916 681 583
 591 661 0 679 -84 4 860 NONE84 4 853 NONE84 4 845 NONE15 702 58 0 616 827 0 17
 616 0 702 701 620 553 552 617 0 651 +17 701 0 702 562 616 563 651 610 0 0 -17 6
51 0 828 608 570 553 701 610 0 0 +15 828 61 0 608 823 0 17 608 0 828 605 651 567
 566 652 0 599 +17 570 0 828 651 605 563 671 644 0 643 -17 605 0 828 570 608 571
 599 606 0 0 -17 671 0 698 578 643 571 570 644 0 605 +17 566 0 607 552 581 553 6
08 652 0 616 -17 562 0 702 620 701 559 643 641 0 626 -84 4 838 NONE84 4 831 NONE
84 4 822 NONE84 4 776 NONE83 3 774 .792156875133514 .819607853889465 .9333333373
06976 84 4 773 NONE84 4 770 NONE84 4 763 NONE83 3 761 .792156875133514 .81960785
3889465 .933333337306976 84 4 760 NONE84 3 757 44584 4 756 NONE84 3 748 20284 3
 743 31684 3 736 36084 3 731 51484 2 726 4784 3 722 57284 3 716 11583 3 711 .792
156875133514 .819607853889465 .933333337306976 84 3 710 11217 589 0 597 599 598
 571 578 658 0 671 -83 3 697 .792156875133514 .819607853889465 .933333337306976
 83 3 688 .792156875133514 .819607853889465 .933333337306976 15 615 49 0 591 614
 689 83 3 684 .792156875133514 .819607853889465 .933333337306976 83 3 678 .79215
6875133514 .819607853889465 .933333337306976 83 3 632 .792156875133514 .81960785
3889465 .933333337306976 84 3 596 23384 3 536 18319 517 1 0 7 0 17 13 S0 74 20 5
15 9 0 0 921 513 640 929 927 926 923 885 10 0 0 0 0 0 0 0 0 0 0 0 83 1 514 1 74
 20 6 1 0 0 2 0 0 0 0 0 0 0 0 0 0 0 0 0 0 0 0 0 0 0 80 2 5 973 974 9000 0 0 0 0
 3 5 0 0 0 TFFFFFFFFFFFFF9 1 79 18 974 MULTI_BODY_ID_20011 0 
