**ABCDEFGHIJKLMNOPQRSTUVWXYZabcdefghijklmnopqrstuvwxyz**************************
**PARASOLID !"#$%&'()*+,-./:;<=>?@[\]^_`{|}~0123456789**************************
**PART1;
MC=AMD64;
MC_MODEL=AMD64 Family 23 Model 104 Stepping 1, AuthenticAMD;
MC_ID=unknown;
OS=Windows_NT;
OS_RELEASE=unknown;
FRU=Parasolid Version 30.0, build 298, 12-15-2017;
APPL=SOLIDWORKS 2018-2018134;
SITE=;
USER=unknown;
FORMAT=text;
GUISE=transmit;
KEY=Part4;
FILE=Part4.x_t;
DATE=Sun Nov 14 09:28:56 2021;
**PART2;
SCH=SCH_3000298_30000;
USFLD_SIZE=0;
**PART3;
**END_OF_HEADER*****************************************************************
T51 : TRANSMIT FILE created by modeller version 300029823 SCH_3000298_30000_1300
6205 0 12 33 CCCCCCI4 mesh1006 0 I8 polyline1008 0 CCCCCCCDI5 owner1040 0 CCCCCC
I13 boundary_mesh1006 0 I17 boundary_polyline1008 0 CCCA16 index_map_offset0 0 1
 dA9 index_map82 0 A17 node_id_index_map82 0 A20 schema_embedding_map82 0 A5 chi
ld12 0 A14 lowest_node_id0 0 1 dZ1 947 2 3 0 0 0 0 0 0 1e3 1e-8 0 4 0 1 0 1 1 5
 6 7 8 0 0 9 10 11 0 0 0 0 0 0 81 255 2 2 864 12 1 13 0 0 0 14 0 70 11 CI9 list_
type0 0 1 uI10 notransmit0 0 1 lCCCDCCDI12 finger_index0 0 1 dI12 finger_block10
12 0 CZ3 0 4 T1 0 0 9 20 1 15 15 13 255 5 4 0 1 0 16 0 0 17 0 50 255 6 162 0 18
 19 0 0 +0 0 .006 0 0 -1 0 -1 0 30 255 7 252 0 20 21 0 0 +.03282 .02707 .006 0 0
 -1 29 255 8 198 0 22 23 0 .005 .02707 .006 19 8 CCCCCCCA5 owner12 0 Z9 2 0 1 17
 0 24 V0 16 255 10 7 25 ?26 0 27 28 0 0 1 18 255 11 9 29 30 0 31 32 ?1 81 1 29 4
44 33 11 34 0 35 36 37 17 255 30 0 38 39 40 11 41 27 0 26 -18 31 11 42 43 11 44
 45 ?1 29 32 174 0 11 46 47 .02882 .002 .011 29 46 173 0 48 49 32 .005 .01472 0
 29 47 175 0 50 32 51 .004 .002 .009 18 50 18 36 52 53 54 47 ?1 29 51 176 0 55 4
7 56 .03282 .02707 0 18 55 83 57 58 59 60 51 ?1 29 56 177 0 61 51 62 .004 0 .011
 18 61 21 63 64 65 53 56 ?1 29 62 178 0 66 56 67 .029695 .02087 0 18 66 43 68 69
 70 71 62 ?1 29 67 179 0 72 62 73 0 .02707 .006 18 72 61 74 75 22 76 67 ?1 29 73
 180 0 77 67 78 0 0 0 18 77 70 79 80 76 81 73 ?1 29 78 181 0 82 73 83 775e-6 .02
087 0 18 82 33 84 85 86 87 78 ?1 29 83 182 0 88 78 89 .03282 .02707 .006 18 88 5
1 90 91 92 93 83 ?1 29 89 183 0 94 83 95 .02882 .002 .009 18 94 8 96 97 44 65 89
 ?1 29 95 184 0 71 89 98 .029695 .02087 .006 18 71 38 99 100 66 92 95 ?1 29 98 1
85 0 70 95 101 .032045 .02087 0 18 70 41 102 103 104 66 98 ?1 29 101 186 0 105 9
8 106 734788079488412e-33 0 .012 18 105 94 107 108 109 110 101 ?1 29 106 187 0 1
11 101 112 .005 .02707 0 18 111 75 113 114 81 48 106 ?1 29 112 188 0 115 106 116
 .02782 .01472 0 18 115 79 117 118 48 59 112 ?1 29 116 189 0 93 112 119 .02782 .
02707 .006 18 93 53 120 121 88 122 116 ?1 29 119 190 0 104 116 45 .032045 .02087
 .006 18 104 39 123 124 87 70 119 ?1 29 45 191 0 31 119 125 .02882 0 .011 29 125
 192 0 122 45 126 .02782 .01472 .006 18 122 55 127 128 93 129 125 ?1 29 126 193
 0 86 125 130 .003125 .02087 0 18 86 31 131 132 54 82 126 ?1 29 130 194 0 44 126
 133 .02882 0 .009 18 44 13 134 135 31 94 130 ?1 29 133 195 0 59 130 136 .02782
 .02707 0 18 59 81 137 138 115 55 133 ?1 29 136 196 0 110 133 23 .03282 .002 .01
2 18 110 104 139 140 105 141 136 ?1 29 23 197 0 92 136 8 .03282 .002 .006 18 92
 48 142 143 71 88 23 ?1 81 1 142 490 33 92 144 0 139 145 146 17 143 0 147 148 14
9 92 150 151 0 152 -15 255 147 46 0 143 18 153 17 148 0 147 154 143 88 152 155 0
 156 +17 149 0 147 143 157 76 75 158 0 159 +17 150 0 160 161 162 76 143 151 0 14
9 +16 151 47 163 ?150 164 165 166 0 0 1 17 152 0 167 140 156 92 148 155 0 162 -1
5 167 101 0 168 169 0 17 140 0 167 170 152 110 162 164 0 171 -17 156 0 167 152 1
68 88 172 20 0 0 -16 155 50 173 ?148 174 175 176 0 0 1 17 162 0 160 150 177 92 1
40 164 0 0 +15 160 131 0 161 178 179 17 177 0 160 162 161 110 180 181 0 0 +16 16
4 103 182 ?162 181 151 183 0 0 1 81 1 182 542 184 164 185 0 186 163 187 16 181 1
32 186 ?177 188 164 189 0 0 1 30 183 208 0 164 190 191 0 +.03282 .002 .006 0 0 -
1 31 255 190 207 0 192 176 183 0 +.00195 .02087 0 0 0 1 -1 0 0 .001175 30 191 20
9 0 193 183 194 0 +.005 .01472 0 0 1 0 16 193 76 195 ?196 197 198 191 0 0 1 30 1
94 210 0 199 191 200 0 +.02782 .01472 0 0 -1 0 16 199 80 201 ?202 20 203 194 0 0
 1 31 200 211 0 204 194 205 0 +.03087 .02087 .006 0 0 1 1 0 0 .001175 16 204 37
 206 ?207 208 174 200 0 0 1 30 205 212 0 209 200 210 0 +.005 .01472 .006 0 1 0 1
6 209 58 211 ?212 213 214 205 0 0 1 30 210 213 0 215 205 216 0 +.029695 .02087 .
006 0 0 -1 16 215 44 217 ?69 218 219 210 0 0 1 30 216 214 0 220 210 221 0 +.0278
2 .01472 .006 0 -1 0 16 220 54 222 ?223 175 213 216 0 0 1 30 221 215 0 224 216 2
25 0 +0 .02 0 0 -1 0 16 224 72 226 ?80 227 228 221 0 0 1 30 225 216 0 198 221 22
9 0 +.005 .01472 .006 0 0 -1 16 198 114 230 ?231 193 232 225 0 0 1 30 229 217 0
 188 225 233 0 +0 .002 .006 1224646799147352e-31 0 1 16 188 125 234 ?161 235 181
 229 0 0 1 30 233 218 0 228 229 236 0 +0 .02707 .006 0 0 -1 16 228 120 237 ?238
 224 218 233 0 0 1 31 236 219 0 218 233 239 0 +.03087 .02087 .006 0 0 1 1 0 0 .0
01175 16 218 66 240 ?241 228 215 236 0 0 1 31 239 220 0 242 236 243 0 +.004 0 .0
1 0 1 0 0 0 1 .001 16 242 97 244 ?245 246 247 239 0 0 1 31 243 221 0 248 239 249
 0 +.02882 .002 .01 0 1 0 0 0 1 .001 16 248 136 250 ?39 251 252 243 0 0 1 30 249
 222 0 27 243 253 0 +.02882 .002 .011 0 -1 0 16 27 10 254 ?41 10 255 249 0 0 1 3
0 253 223 0 256 249 257 0 +0 0 0 1 1224646799147354e-31 0 16 256 69 258 ?259 192
 260 253 0 0 1 30 257 224 0 208 253 261 0 +.003125 .02087 .006 0 0 -1 16 208 30
 262 ?263 264 204 257 0 0 1 30 261 225 0 213 257 265 0 +.005 .01472 .006 -1 0 0
 16 213 56 266 ?267 220 209 261 0 0 1 30 265 226 0 175 261 268 0 +.03282 .02707
 .006 -1 693889390390724e-30 0 16 175 52 269 ?154 155 220 265 0 0 1 30 268 227 0
 252 265 270 0 +.02882 .002 .009 0 -1 0 16 252 14 271 ?135 248 0 268 0 0 1 30 27
0 228 0 235 268 272 0 +775e-6 .02087 .006 0 0 -1 16 235 34 273 ?85 219 188 270 0
 0 1 30 272 229 0 165 270 274 0 +734788079488412e-33 0 .012 1 0 0 16 165 93 275
 ?276 151 277 272 0 0 1 30 274 230 0 278 272 279 0 +.005 .01472 0 -1 0 0 16 278
 78 280 ?281 203 197 274 0 0 1 30 279 231 0 260 274 282 0 +0 0 .006 0 0 -1 16 26
0 95 283 ?284 256 246 279 0 0 1 30 282 232 0 174 279 285 0 +.032045 .02087 .006
 0 0 -1 16 174 40 286 ?287 204 155 282 0 0 1 31 285 233 0 264 282 288 0 +.00195
 .02087 .006 0 0 1 -1 0 0 .001175 16 264 27 289 ?290 291 208 285 0 0 1 30 288 23
4 0 292 285 293 0 +.03282 .01472 0 -561853757401395e-30 1 0 16 292 84 294 ?168 2
95 296 288 0 0 1 30 293 235 0 277 288 297 0 +734788079488412e-33 .002 .012 0 -1
 0 16 277 123 298 ?299 165 300 293 0 0 1 30 297 236 0 251 293 189 0 +.004 .002 .
009 0 -1 0 16 251 24 301 ?302 300 248 297 0 0 1 30 189 237 0 181 297 303 0 +7347
88079488412e-33 .002 .012 1 0 0 31 303 238 0 295 189 304 0 +.02882 0 .01 0 1 0 0
 0 1 .001 16 295 99 305 ?306 247 292 303 0 0 1 30 304 239 0 197 303 307 0 +.0278
2 .01472 .006 0 0 -1 16 197 111 308 ?309 278 193 304 0 0 1 30 307 240 0 310 304
 311 0 +.03282 .02707 0 -1 693889390390724e-30 0 16 310 82 312 ?313 314 20 307 0
 0 1 30 311 241 0 314 307 28 0 +.03282 4019290794801615e-33 .006 0 0 -1 16 314 9
1 315 ?316 296 310 311 0 0 1 31 28 242 0 10 311 317 0 +.02882 .002 .01 0 1 0 0 0
 1 .001 30 317 243 0 214 28 318 0 +0 .02707 .006 -1 0 0 16 214 60 319 ?157 209 1
58 317 0 0 1 31 318 244 0 320 317 321 0 +.03087 .02087 0 0 0 1 1 0 0 .001175 16
 320 86 322 ?323 324 325 318 0 0 1 31 321 245 0 255 318 326 0 +.004 .002 .01 0 1
 0 0 0 1 .001 16 255 17 327 ?328 27 291 321 0 0 1 31 326 246 0 246 321 329 0 +.0
04 0 .01 0 1 0 0 0 1 .001 16 246 22 330 ?64 260 242 326 0 0 1 30 329 247 0 296 3
26 331 0 +.03282 .002 .012 0 -1 0 16 296 105 332 ?170 292 314 329 0 0 1 31 331 2
48 0 247 329 333 0 +.02882 0 .01 0 1 0 0 0 1 .001 16 247 12 334 ?43 242 295 331
 0 0 1 30 333 249 0 203 331 335 0 +.02782 .02707 .006 0 0 -1 16 203 108 336 ?337
 199 278 333 0 0 1 31 335 250 0 324 333 21 0 +.03087 .02087 0 0 0 1 1 0 0 .00117
5 16 324 42 338 ?103 158 320 335 0 0 1 30 21 251 0 232 335 7 0 +0 .02707 0 -1 0
 0 16 232 74 339 ?340 198 227 21 0 0 1 81 1 339 532 184 232 341 0 230 342 343 17
 340 0 344 345 346 81 114 232 0 238 +16 227 117 342 ?346 232 224 347 0 0 1 81 1
 342 533 184 227 348 0 339 226 349 17 346 0 344 340 350 111 351 227 0 0 +30 347
 200 0 227 352 353 0 +.005 .02707 .006 0 0 -1 31 352 199 0 300 0 347 0 +.004 .00
2 .01 0 1 0 0 0 1 .001 31 353 201 0 219 347 166 0 +.00195 .02087 .006 0 0 1 -1 0
 0 .001175 16 219 64 354 ?355 215 235 353 0 0 1 30 166 202 0 151 353 356 0 +0 .0
02 .006 -1 0 0 30 356 203 0 158 166 357 0 +0 0 .006 0 -1 0 16 158 62 358 ?149 21
4 324 356 0 0 1 30 357 204 0 291 356 359 0 +.004 .002 .011 0 -1 0 16 291 20 360
 ?361 255 264 357 0 0 1 31 359 205 0 325 357 176 0 +.00195 .02087 0 0 0 1 -1 0 0
 .001175 16 325 32 362 ?132 320 192 359 0 0 1 30 176 206 0 155 359 190 0 +.03282
 4019290794801615e-33 .006 0 1 0 81 1 362 513 184 325 363 0 322 364 365 17 132 0
 366 367 367 86 368 325 0 263 +16 192 88 364 ?367 325 256 190 0 0 1 81 1 364 514
 184 192 369 0 362 258 370 17 367 0 366 132 132 82 371 192 0 0 +15 366 87 0 132
 372 0 17 371 0 373 374 85 86 367 192 0 0 -15 373 129 0 374 375 0 17 374 0 373 3
55 371 54 263 208 0 290 -17 85 0 373 371 355 82 376 235 0 368 +17 355 0 373 85 3
74 87 377 219 0 0 +17 376 0 378 290 368 87 85 235 0 379 -17 368 0 378 376 263 82
 132 325 0 367 -15 378 26 0 290 380 0 17 263 0 378 368 290 86 374 208 0 371 +17
 290 0 378 263 376 54 379 264 0 377 +18 54 29 381 374 50 86 382 ?1 17 379 0 153
 377 377 87 290 264 0 355 -17 377 0 153 379 379 54 355 219 0 0 -15 153 63 0 379
 18 383 14 255 18 45 384 ?372 385 147 5 6 -0 0 372 385 24 15 383 65 0 386 18 0 1
7 386 0 383 387 387 71 207 204 0 241 -17 387 0 383 386 386 104 241 218 0 0 -17 2
07 0 388 287 100 104 386 204 0 387 +17 241 0 389 69 124 71 387 218 0 0 +15 389 1
27 0 124 390 0 17 69 0 389 391 241 66 100 215 0 392 +17 124 0 389 241 391 104 28
7 174 0 207 -17 391 0 389 124 69 70 323 320 0 0 -17 287 0 388 392 207 70 124 174
 0 391 +15 388 36 0 207 385 0 17 392 0 388 100 287 66 103 324 0 323 -17 100 0 38
8 207 392 71 69 215 0 386 -17 103 0 393 323 323 70 392 324 0 287 +17 323 0 393 1
03 103 66 391 320 0 0 +15 393 85 0 103 372 366 14 372 67 394 ?395 18 396 5 397 +
0 0 395 18 24 81 1 394 929 398 372 399 0 384 400 401 14 395 89 400 ?169 372 402
 5 403 -0 0 169 372 24 15 396 68 0 404 372 393 50 397 147 0 372 405 406 0 +0 0 0
 0 0 -1 0 -1 0 13 24 3 0 0 0 0 0 0 9 16 14 16 5 407 ?408 0 409 5 410 -0 0 408 0
 24 81 1 407 931 398 16 411 0 400 412 413 14 408 15 412 ?380 16 414 5 415 -0 0 3
80 16 24 15 409 6 0 26 16 0 51 255 410 153 0 16 416 417 0 +.02882 .002 .01 0 -1
 0 .001 0 0 -1 50 416 152 0 178 418 410 0 +0 .002 0 0 1 0 1 0 0 50 417 154 0 419
 410 420 0 +.02782 .01472 .006 1 0 0 0 1 0 14 419 109 421 ?422 423 424 5 417 -0
 0 422 423 24 50 420 155 0 425 417 426 0 +0 .02707 .006 0 -1 0 0 0 -1 14 425 118
 427 ?428 429 344 5 420 -0 0 428 429 24 51 426 156 0 385 420 430 0 +.03087 .0208
7 .006 0 0 -1 .001175 -1 0 0 14 385 35 431 ?18 380 388 5 426 -0 0 18 380 24 51 4
30 157 0 380 426 432 0 +.00195 .02087 .006 0 0 -1 .001175 -1 0 0 14 380 25 433 ?
385 408 378 5 430 -0 0 385 408 24 50 432 158 0 422 430 434 0 +.005 .01472 .006 0
 -1 0 0 0 -1 14 422 112 435 ?429 419 436 5 432 -0 0 429 419 24 50 434 159 0 428
 432 437 0 +0 .02 .006 1 0 0 0 1 0 14 428 121 438 ?390 425 439 5 434 -0 0 390 42
5 24 51 437 160 0 375 434 19 0 +.00195 .02087 .006 0 0 -1 .001175 -1 0 0 14 375
 128 440 ?178 390 373 5 437 -0 0 178 390 24 51 19 161 0 441 437 6 0 +.02882 .002
 .01 0 -1 0 .001 0 0 -1 14 441 141 442 ?0 443 38 5 19 -0 0 0 443 24 81 1 442 940
 398 441 444 0 440 445 446 14 443 139 445 ?441 447 448 5 449 -0 0 441 447 24 15
 38 142 0 30 441 0 81 1 445 941 398 443 450 0 442 451 452 14 447 137 451 ?443 17
8 453 5 454 -0 0 443 178 24 15 448 140 0 455 443 0 51 449 149 0 443 406 456 0 +.
004 .002 .01 0 -1 0 .001 0 0 -1 50 406 148 0 169 397 449 0 +.03282 .01472 .006 -
1 -561853757401395e-30 0 -561853757401395e-30 1 0 50 456 150 0 423 449 418 0 +.0
3282 .02707 .006 -693889390390724e-30 -1 0 -1 693889390390724e-30 0 14 423 106 4
57 ?419 169 458 5 456 -0 0 419 169 24 51 418 151 0 390 456 416 0 +.03087 .02087
 .006 0 0 -1 .001175 -1 0 0 14 390 126 459 ?375 428 389 5 418 -0 0 375 428 24 81
 1 459 944 398 390 460 0 457 461 462 80 255 1 398 463 464 9000 1 1 1 1 1 1 1 1 0
 FFFFTFTFFFFFFF1 81 1 460 387 33 390 465 459 466 467 468 81 1 457 943 398 423 46
6 0 451 459 469 81 1 461 945 398 178 467 0 459 470 471 82 255 1 462 35389556 14
 178 130 461 ?447 375 160 5 416 +0 0 447 375 24 81 1 467 390 33 178 472 461 460
 411 473 81 1 470 946 398 429 474 0 461 475 476 82 1 471 35782772 14 429 115 470
 ?425 422 477 5 405 -0 0 425 422 24 81 1 474 372 33 429 478 470 479 399 480 81 1
 475 947 398 169 481 0 470 0 482 82 1 476 56295540 14 169 100 475 ?423 395 167 5
 406 -0 0 423 395 24 81 1 481 378 33 169 483 475 399 450 484 82 1 482 56688756 8
0 1 33 485 486 9000 0 0 0 0 3 6 0 0 0 TTTFTFTTTFFFFF3 81 1 483 377 487 169 488 4
81 489 490 491 81 1 399 375 33 372 489 394 474 481 492 81 1 450 381 33 443 490 4
45 481 466 493 84 255 3 484 55281 1 490 380 487 443 494 450 483 495 496 81 1 466
 384 33 423 495 457 450 460 497 84 2 493 5581 1 495 383 487 423 498 466 490 465
 499 84 3 497 20180 1 487 500 501 8017 0 0 0 0 0 0 0 0 0 TTTTTTTTTTTTTF3 81 1 49
8 382 184 423 0 495 494 502 503 81 1 465 386 487 390 502 460 495 472 504 84 4 49
9 NONE81 1 502 385 184 390 0 465 498 505 506 81 1 472 389 487 178 505 467 465 50
7 508 84 4 504 NONE81 1 505 388 184 178 0 472 502 509 510 81 1 507 392 487 16 50
9 411 472 511 512 84 4 508 NONE81 1 509 391 184 16 0 507 505 513 514 81 1 411 39
3 33 16 507 407 467 515 516 81 1 511 395 487 419 513 515 507 517 518 84 4 512 NO
NE81 1 513 394 184 419 0 511 509 519 520 81 1 515 396 33 419 511 421 411 521 522
 81 1 517 398 487 425 519 521 511 523 524 84 4 518 NONE81 1 519 397 184 425 0 51
7 513 525 526 81 1 521 399 33 425 517 427 515 527 528 81 1 523 401 487 385 525 5
27 517 529 530 84 4 524 NONE81 1 525 400 184 385 0 523 519 531 532 81 1 527 402
 33 385 523 431 521 533 534 81 1 529 404 487 380 531 533 523 535 536 84 4 530 NO
NE81 1 531 403 184 380 0 529 525 537 538 81 1 533 405 33 380 529 433 527 539 540
 81 1 535 407 487 422 537 539 529 541 542 84 4 536 NONE81 1 537 406 184 422 0 53
5 531 543 544 81 1 539 408 33 422 535 435 533 545 546 81 1 541 410 487 428 543 5
45 535 547 548 84 4 542 NONE81 1 543 409 184 428 0 541 537 549 550 81 1 545 411
 33 428 541 438 539 551 552 81 1 547 413 487 375 549 551 541 553 554 84 4 548 NO
NE81 1 549 412 184 375 0 547 543 555 556 81 1 551 414 33 375 547 440 545 444 557
 81 1 553 416 487 441 555 444 547 558 559 84 4 554 NONE81 1 555 415 184 441 0 55
3 549 560 561 81 1 444 417 33 441 553 442 551 562 563 81 1 558 419 487 18 560 56
2 553 564 565 84 4 559 NONE81 1 560 418 184 18 0 558 555 25 566 81 1 562 420 33
 18 558 384 444 567 568 81 1 564 421 487 76 0 567 558 569 570 84 4 565 NONE18 76
 49 567 150 72 77 571 ?1 81 1 567 422 33 76 564 0 562 572 573 81 1 569 423 487 1
29 0 572 564 574 575 84 4 570 NONE18 129 57 572 576 122 22 577 ?1 81 1 572 424 3
3 129 569 0 567 578 579 81 1 574 425 487 141 0 578 569 580 581 84 4 575 NONE18 1
41 124 578 582 110 0 583 ?1 81 1 578 426 33 141 574 0 572 584 585 81 1 580 427 4
87 65 0 584 574 586 587 84 4 581 NONE18 65 19 584 455 94 61 588 ?1 81 1 584 428
 33 65 580 0 578 589 590 81 1 586 429 487 53 0 589 580 591 592 84 4 587 NONE18 5
3 23 589 302 61 50 593 ?1 81 1 589 430 33 53 586 0 584 381 594 81 1 591 431 487
 54 0 381 586 595 596 84 4 592 NONE81 1 381 432 33 54 591 0 589 597 598 81 1 595
 433 487 87 0 597 591 599 600 84 4 596 NONE18 87 28 597 376 82 104 601 ?1 81 1 5
97 434 33 87 595 0 381 602 603 81 1 599 435 487 109 0 602 595 604 605 84 4 600 N
ONE18 109 92 602 276 60 105 606 ?1 81 1 602 436 33 109 599 0 597 607 608 81 1 60
4 437 487 60 0 607 599 609 610 84 4 605 NONE18 60 71 607 611 55 109 612 ?1 81 1
 607 438 33 60 604 0 602 613 614 81 1 609 439 487 81 0 613 604 615 616 84 4 610
 NONE18 81 73 613 617 77 111 49 ?1 81 1 613 440 33 81 609 0 607 35 618 81 1 615
 441 487 48 0 35 609 34 619 84 4 616 NONE18 48 77 35 620 111 115 46 ?1 81 1 35 4
42 33 48 615 0 613 29 621 81 1 34 443 487 11 0 29 615 622 623 84 4 619 NONE81 1
 622 445 487 50 0 36 34 624 625 84 4 623 NONE81 1 36 446 33 50 622 0 29 57 626 8
1 1 624 447 487 55 0 57 622 627 628 84 4 625 NONE81 1 57 448 33 55 624 0 36 63 6
29 81 1 627 449 487 61 0 63 624 630 631 84 4 628 NONE81 1 63 450 33 61 627 0 57
 68 632 81 1 630 451 487 66 0 68 627 633 634 84 4 631 NONE81 1 68 452 33 66 630
 0 63 74 635 81 1 633 453 487 72 0 74 630 636 637 84 4 634 NONE81 1 74 454 33 72
 633 0 68 79 638 81 1 636 455 487 77 0 79 633 639 640 84 4 637 NONE81 1 79 456 3
3 77 636 0 74 84 641 81 1 639 457 487 82 0 84 636 642 643 84 4 640 NONE81 1 84 4
58 33 82 639 0 79 90 644 81 1 642 459 487 88 0 90 639 645 646 84 4 643 NONE81 1
 90 460 33 88 642 0 84 96 647 81 1 645 461 487 94 0 96 642 648 649 84 4 646 NONE
81 1 96 462 33 94 645 0 90 99 650 81 1 648 463 487 71 0 99 645 651 652 84 4 649
 NONE81 1 99 464 33 71 648 0 96 102 653 81 1 651 465 487 70 0 102 648 654 655 84
 4 652 NONE81 1 102 466 33 70 651 0 99 107 656 81 1 654 467 487 105 0 107 651 65
7 658 84 4 655 NONE81 1 107 468 33 105 654 0 102 113 659 81 1 657 469 487 111 0
 113 654 660 661 84 4 658 NONE81 1 113 470 33 111 657 0 107 117 662 81 1 660 471
 487 115 0 117 657 663 664 84 4 661 NONE81 1 117 472 33 115 660 0 113 120 665 81
 1 663 473 487 93 0 120 660 666 667 84 4 664 NONE81 1 120 474 33 93 663 0 117 12
3 668 81 1 666 475 487 104 0 123 663 669 670 84 4 667 NONE81 1 123 476 33 104 66
6 0 120 42 671 81 1 669 477 487 31 0 42 666 672 673 84 4 670 NONE81 1 42 478 33
 31 669 0 123 127 674 81 1 672 479 487 122 0 127 669 675 676 84 4 673 NONE81 1 1
27 480 33 122 672 0 42 131 677 81 1 675 481 487 86 0 131 672 678 679 84 4 676 NO
NE81 1 131 482 33 86 675 0 127 134 680 81 1 678 483 487 44 0 134 675 681 682 84
 4 679 NONE81 1 134 484 33 44 678 0 131 137 683 81 1 681 485 487 59 0 137 678 68
4 685 84 4 682 NONE81 1 137 486 33 59 681 0 134 139 686 81 1 684 487 487 110 0 1
39 681 144 687 84 4 685 NONE81 1 139 488 33 110 684 0 137 142 688 81 1 144 489 4
87 92 0 142 684 689 690 84 4 687 NONE81 1 689 491 487 22 0 145 144 691 692 84 4
 690 NONE18 22 59 145 350 129 72 8 ?1 81 1 145 492 33 22 689 0 142 13 693 81 1 6
91 550 487 1 694 695 689 0 696 84 4 692 NONE81 1 694 495 697 1 698 691 0 0 699 8
1 1 695 551 700 1 691 13 0 0 701 84 13 696 Boss-Extrude380 1 700 702 703 9000 0
 0 0 0 3 5 0 0 0 TFTFTFTFFFFFFF3 81 1 13 552 33 1 695 2 145 0 704 84 5 701 Part4
84 3 704 61779 255 22 703 ATTRIB_XPARASOLID_NAME80 1 697 184 705 8040 0 0 0 0 3
 5 0 0 0 TTTFFFFFFFFFFF2 81 1 698 494 702 1 706 694 0 0 707 83 255 3 699 .792156
875133514 .819607853889465 .933333337306976 80 1 702 708 709 9000 0 0 0 0 3 5 0
 0 0 TTTFTFTTFFFFFF3 81 1 706 493 708 1 0 698 0 0 710 84 4 707 NONE80 1 708 33 7
11 9000 0 0 0 0 3 5 0 0 0 FTTFTFTTFFFFFF1 82 1 710 -1 79 23 711 ATTRIB_XPARASOLI
D_LAYER79 26 709 ATTRIB_XGENERIC_LAYER_NAME79 17 705 SDL/TYSA_COLOUR_284 3 693 5
6317 350 0 344 346 345 22 157 214 0 212 -15 344 119 0 340 425 0 17 345 0 344 350
 340 72 238 228 0 0 -17 157 0 147 149 212 72 350 214 0 345 +17 212 0 147 157 267
 22 576 209 0 351 +17 267 0 147 212 223 129 128 213 0 712 +17 576 0 477 231 351
 129 212 209 0 267 -17 351 0 477 576 196 22 346 227 0 0 -15 477 116 0 196 429 0
 17 196 0 477 351 231 111 620 193 0 346 +17 231 0 477 196 576 48 712 198 0 0 +17
 620 0 396 118 114 48 196 193 0 281 -17 118 0 396 138 620 115 281 278 0 202 -17
 114 0 396 620 617 111 340 232 0 196 -17 281 0 436 712 309 48 118 278 0 231 +15
 436 113 0 281 422 0 17 712 0 436 128 281 129 231 198 0 0 -17 309 0 436 281 128
 115 713 197 0 0 +17 128 0 436 309 712 122 267 213 0 223 -17 713 0 424 121 202 1
22 309 197 0 0 -15 424 110 0 202 419 0 17 121 0 424 337 713 93 223 220 0 154 -17
 202 0 424 713 337 115 138 199 0 309 +17 337 0 424 202 121 59 714 203 0 0 +17 13
8 0 396 58 118 59 202 199 0 313 -17 58 0 396 611 138 55 313 310 0 168 -17 313 0
 458 714 172 59 58 310 0 337 +15 458 107 0 313 423 0 17 714 0 458 91 313 93 337
 203 0 0 -17 172 0 458 313 91 55 156 20 0 0 +17 91 0 458 172 714 88 154 175 0 14
8 -16 20 102 715 ?172 310 199 7 0 0 1 81 1 715 525 184 20 716 0 312 201 717 80 1
 184 0 718 8001 0 0 0 0 3 5 0 0 0 FFFFTFTFFFFFFF2 81 1 716 360 33 20 719 715 341
 720 721 81 1 312 524 184 310 722 0 315 715 723 81 1 201 526 184 199 724 0 715 3
36 725 83 3 717 .792156875133514 .819607853889465 .933333337306976 81 1 724 276
 33 199 726 201 727 728 729 81 1 336 527 184 203 730 0 201 280 731 83 3 725 .792
156875133514 .819607853889465 .933333337306976 81 1 730 354 33 203 732 336 733 7
34 735 81 1 280 528 184 278 736 0 336 308 737 83 3 731 .792156875133514 .8196078
53889465 .933333337306976 81 1 736 316 33 278 738 280 739 740 741 81 1 308 529 1
84 197 742 0 280 195 743 83 3 737 .792156875133514 .819607853889465 .93333333730
6976 81 1 742 334 33 197 744 308 745 722 746 81 1 195 530 184 193 727 0 308 230
 747 83 3 743 .792156875133514 .819607853889465 .933333337306976 81 1 727 274 33
 193 748 195 185 724 749 81 1 230 531 184 198 750 0 195 339 751 83 3 747 .792156
875133514 .819607853889465 .933333337306976 81 1 750 288 33 198 752 230 753 754
 755 83 3 751 .792156875133514 .819607853889465 .933333337306976 81 1 752 287 48
7 198 0 750 756 757 758 81 1 753 286 33 224 756 226 759 750 760 81 1 754 290 33
 188 757 234 750 761 762 84 3 755 28181 1 757 289 487 188 0 754 752 763 764 81 1
 234 540 184 188 754 0 273 186 765 81 1 761 292 33 228 763 237 754 766 767 84 2
 762 5081 1 763 291 487 228 0 761 757 768 769 81 1 237 535 184 228 761 0 226 240
 770 81 1 766 294 33 218 768 240 761 771 772 84 3 767 11281 1 768 293 487 218 0
 766 763 773 774 81 1 240 536 184 218 766 0 237 217 775 81 1 771 296 33 242 773
 244 766 776 777 84 2 772 3581 1 773 295 487 242 0 771 768 778 779 81 1 244 518
 184 242 771 0 330 334 780 81 1 776 298 33 248 778 250 771 781 782 84 3 777 4758
1 1 778 297 487 248 0 776 773 783 784 81 1 250 548 184 248 776 0 301 271 785 81
 1 781 300 33 27 783 254 776 786 787 84 3 782 55981 1 783 299 487 27 0 781 778 7
88 789 81 1 254 497 184 27 781 0 25 327 790 81 1 786 302 33 256 788 258 781 791
 792 84 3 787 15781 1 788 301 487 256 0 786 783 793 794 81 1 258 515 184 256 786
 0 364 283 795 81 1 791 304 33 208 793 262 786 796 797 84 3 792 58081 1 793 303
 487 208 0 791 788 798 799 81 1 262 501 184 208 791 0 289 206 800 81 1 796 306 3
3 213 798 266 791 801 802 84 2 797 9981 1 798 305 487 213 0 796 793 803 804 81 1
 266 507 184 213 796 0 222 211 805 81 1 801 308 33 175 803 269 796 806 807 84 3
 802 21581 1 803 307 487 175 0 801 798 808 809 81 1 269 505 184 175 801 0 173 22
2 810 81 1 806 310 33 252 808 271 801 811 812 84 3 807 18081 1 808 309 487 252 0
 806 803 813 814 81 1 271 549 184 252 806 0 250 0 815 81 1 811 312 33 235 813 27
3 806 739 816 84 3 812 30981 1 813 311 487 235 0 811 808 817 818 81 1 273 539 18
4 235 811 0 354 234 819 81 1 739 314 33 165 817 275 811 736 820 84 3 816 40881 1
 817 313 487 165 0 739 813 738 821 81 1 275 544 184 165 739 0 163 298 822 84 3 8
20 58881 1 163 543 184 151 823 0 182 275 824 81 1 298 545 184 277 825 0 275 826
 827 83 3 822 .792156875133514 .819607853889465 .933333337306976 81 1 825 326 33
 277 828 298 829 830 831 81 1 826 546 184 300 832 0 298 301 833 83 3 827 .792156
875133514 .819607853889465 .933333337306976 16 300 134 826 ?834 277 251 352 0 0
 1 81 1 832 254 33 300 835 826 0 348 836 81 1 301 547 184 251 830 0 826 250 837
 83 3 833 .792156875133514 .819607853889465 .933333337306976 81 1 830 328 33 251
 838 301 825 839 840 83 3 837 .792156875133514 .819607853889465 .933333337306976
 81 1 838 327 487 251 0 830 828 841 842 81 1 839 330 33 181 841 186 830 745 843
 84 3 840 43381 1 841 329 487 181 0 839 838 844 845 81 1 186 541 184 181 839 0 2
34 182 846 81 1 745 332 33 295 844 305 839 742 847 84 3 843 35381 1 844 331 487
 295 0 745 841 744 848 81 1 305 520 184 295 745 0 334 294 849 84 3 847 34381 1 3
34 519 184 247 733 0 244 305 850 81 1 294 521 184 292 829 0 305 332 851 83 3 849
 .792156875133514 .819607853889465 .933333337306976 81 1 829 324 33 292 852 294
 853 825 854 81 1 332 522 184 296 855 0 294 315 856 83 3 851 .792156875133514 .8
19607853889465 .933333337306976 81 1 855 350 33 296 857 332 858 733 859 81 1 315
 523 184 314 860 0 332 312 861 83 3 856 .792156875133514 .819607853889465 .93333
3337306976 81 1 860 338 33 314 862 315 722 863 864 83 3 861 .792156875133514 .81
9607853889465 .933333337306976 81 1 862 337 487 314 0 860 865 866 867 81 1 722 3
36 33 310 865 312 742 860 868 81 1 863 340 33 10 866 25 860 869 870 84 3 864 444
81 1 866 339 487 10 0 863 862 871 872 81 1 25 496 184 10 863 0 560 254 873 81 1
 869 342 33 214 871 319 863 874 875 84 3 870 64281 1 871 341 487 214 0 869 866 8
76 877 81 1 319 509 184 214 869 0 211 358 878 81 1 874 344 33 320 876 322 869 87
9 880 84 3 875 56081 1 876 343 487 320 0 874 871 881 882 81 1 322 512 184 320 87
4 0 338 362 883 81 1 879 346 33 255 881 327 874 858 884 84 3 880 67181 1 881 345
 487 255 0 879 876 885 886 81 1 327 498 184 255 879 0 254 360 887 81 1 858 348 3
3 246 885 330 879 855 888 84 3 884 62581 1 885 347 487 246 0 858 881 857 889 81
 1 330 517 184 246 858 0 283 244 890 84 3 888 20881 1 283 516 184 260 740 0 258
 330 891 83 3 890 .792156875133514 .819607853889465 .933333337306976 81 1 740 31
8 33 260 892 283 736 893 894 83 3 891 .792156875133514 .819607853889465 .9333333
37306976 81 1 892 317 487 260 0 740 738 895 896 81 1 893 320 33 174 895 286 740
 853 897 84 3 894 10481 1 895 319 487 174 0 893 892 898 899 81 1 286 503 184 174
 893 0 206 173 900 81 1 853 322 33 264 898 289 893 829 901 84 3 897 26781 1 898
 321 487 264 0 853 895 852 902 81 1 289 500 184 264 853 0 360 262 903 84 3 901 5
0781 1 360 499 184 291 904 0 327 289 905 83 3 903 .792156875133514 .819607853889
465 .933333337306976 81 1 904 264 33 291 906 360 907 363 908 83 3 905 .792156875
133514 .819607853889465 .933333337306976 81 1 906 263 487 291 0 904 909 910 911
 81 1 907 262 33 158 909 358 823 904 912 81 1 363 266 33 325 910 362 904 913 914
 84 3 908 63981 1 910 265 487 325 0 363 906 915 916 81 1 913 268 33 155 915 173
 363 369 917 84 2 914 9081 1 915 267 487 155 0 913 910 918 919 81 1 173 504 184
 155 913 0 286 269 920 81 1 369 270 33 192 918 364 913 185 921 84 2 917 7781 1 9
18 269 487 192 0 369 915 922 923 81 1 185 272 33 164 922 182 369 727 924 84 3 92
1 40781 1 922 271 487 164 0 185 918 748 925 84 2 924 5881 1 748 273 487 193 0 72
7 922 726 926 84 4 925 NONE81 1 726 275 487 199 0 724 748 927 928 84 4 926 NONE8
1 1 927 277 487 204 0 728 726 929 930 84 4 928 NONE81 1 728 278 33 204 927 206 7
24 931 932 81 1 929 279 487 209 0 931 927 933 934 84 4 930 NONE81 1 931 280 33 2
09 929 211 728 935 936 81 1 933 281 487 215 0 935 929 937 938 84 4 934 NONE81 1
 935 282 33 215 933 217 931 759 939 81 1 937 283 487 220 0 759 933 756 940 84 4
 938 NONE81 1 759 284 33 220 937 222 935 753 941 81 1 756 285 487 224 0 753 937
 752 942 84 4 940 NONE84 4 942 NONE81 1 222 506 184 220 759 0 269 266 943 84 3 9
41 62783 3 943 .792156875133514 .819607853889465 .933333337306976 81 1 217 537 1
84 215 935 0 240 354 944 84 3 939 14981 1 354 538 184 219 945 0 217 273 946 83 3
 944 .792156875133514 .819607853889465 .933333337306976 81 1 945 258 33 219 947
 354 348 823 948 83 3 946 .792156875133514 .819607853889465 .933333337306976 81
 1 947 257 487 219 0 945 949 950 951 81 1 348 256 33 227 949 342 832 945 952 81
 1 823 260 33 151 950 163 945 907 953 84 3 948 42681 1 950 259 487 151 0 823 947
 909 954 84 2 953 4581 1 909 261 487 158 0 907 950 906 955 84 4 954 NONE84 4 955
 NONE81 1 949 255 487 227 0 348 835 947 956 84 3 952 60581 1 835 253 487 300 0 8
32 0 949 957 84 4 956 NONE84 4 957 NONE84 4 951 NONE81 1 211 508 184 209 931 0 2
66 319 958 84 3 936 64483 3 958 .792156875133514 .819607853889465 .9333333373069
76 81 1 206 502 184 204 728 0 262 286 959 84 3 932 27683 3 959 .792156875133514
 .819607853889465 .933333337306976 84 4 923 NONE83 3 920 .792156875133514 .81960
7853889465 .933333337306976 84 4 919 NONE84 4 916 NONE81 1 358 510 184 158 907 0
 319 338 960 84 3 912 59481 1 338 511 184 324 734 0 358 322 961 83 3 960 .792156
875133514 .819607853889465 .933333337306976 81 1 734 356 33 324 962 338 730 341
 963 83 3 961 .792156875133514 .819607853889465 .933333337306976 81 1 962 355 48
7 324 0 734 732 964 965 81 1 341 358 33 232 964 339 734 716 966 84 3 963 11181 1
 964 357 487 232 0 341 962 719 967 84 3 966 36481 1 719 359 487 20 0 716 964 968
 969 84 4 967 NONE81 1 968 362 487 395 970 720 719 971 972 84 4 969 NONE81 1 970
 361 184 395 0 968 0 973 974 81 1 720 363 33 395 968 400 716 975 976 81 1 971 36
5 487 447 973 975 968 977 978 84 4 972 NONE81 1 973 364 184 447 0 971 970 979 98
0 81 1 975 366 33 447 971 451 720 479 981 81 1 977 368 487 408 979 479 971 478 9
82 84 4 978 NONE81 1 979 367 184 408 0 977 973 983 984 81 1 479 369 33 408 977 4
12 975 474 985 81 1 478 371 487 429 983 474 977 489 986 84 4 982 NONE81 1 983 37
0 184 429 0 478 979 987 988 81 1 489 374 487 372 987 399 478 483 989 84 4 986 NO
NE81 1 987 373 184 372 0 489 983 488 990 84 4 989 NONE81 1 488 376 184 169 0 483
 987 494 991 83 3 990 .792156862745098 .819607843137255 .933333333333333 81 1 49
4 379 184 443 0 490 488 498 992 83 3 991 .792156862745098 .819607843137255 .9333
33333333333 83 3 992 .792156862745098 .819607843137255 .933333333333333 83 3 988
 .792156862745098 .819607843137255 .933333333333333 81 1 412 932 398 408 479 0 4
07 421 993 84 3 985 29681 1 421 933 398 419 515 0 412 427 994 82 1 993 33357940
 81 1 427 934 398 425 521 0 421 431 995 82 1 994 33685620 81 1 431 935 398 385 5
27 0 427 433 996 82 1 995 33816692 81 1 433 936 398 380 533 0 431 435 997 82 1 9
96 33947764 81 1 435 937 398 422 539 0 433 438 998 82 1 997 34078836 81 1 438 93
8 398 428 545 0 435 440 999 82 1 998 34209908 81 1 440 939 398 375 551 0 438 442
 1000 82 1 999 34340980 82 1 1000 34472052 83 3 984 .792156862745098 .8196078431
37255 .933333333333333 81 1 451 942 398 447 975 0 445 457 1001 84 2 981 8182 1 1
001 34930804 83 3 980 .792156862745098 .819607843137255 .933333333333333 81 1 40
0 930 398 395 720 0 394 407 1002 84 3 976 27282 1 1002 32964724 83 3 974 .792156
862745098 .819607843137255 .933333333333333 81 1 732 353 487 203 0 730 1003 962
 1004 84 4 965 NONE81 1 1003 351 487 247 0 733 857 732 1005 84 4 1004 NONE81 1 7
33 352 33 247 1003 334 855 730 1006 81 1 857 349 487 296 0 855 885 1003 1007 84
 4 1005 NONE84 4 1007 NONE84 3 1006 33284 4 911 NONE81 1 852 323 487 292 0 829 8
98 828 1008 84 4 902 NONE81 1 828 325 487 277 0 825 852 838 1009 84 4 1008 NONE8
4 4 1009 NONE83 3 900 .792156875133514 .819607853889465 .933333337306976 84 4 89
9 NONE81 1 738 315 487 278 0 736 817 892 1010 84 4 896 NONE84 4 1010 NONE84 4 88
9 NONE83 3 887 .792156875133514 .819607853889465 .933333337306976 84 4 886 NONE8
3 3 883 .792156875133514 .819607853889465 .933333337306976 84 4 882 NONE83 3 878
 .792156875133514 .819607853889465 .933333337306976 84 4 877 NONE83 3 873 .79215
6875133514 .819607853889465 .933333337306976 84 4 872 NONE81 1 865 335 487 310 0
 722 744 862 1011 84 3 868 39281 1 744 333 487 197 0 742 844 865 1012 84 4 1011
 NONE84 4 1012 NONE84 4 867 NONE84 3 859 31884 3 854 34183 3 850 .79215687513351
4 .819607853889465 .933333337306976 84 4 848 NONE83 3 846 .792156875133514 .8196
07853889465 .933333337306976 84 4 845 NONE84 4 842 NONE84 3 836 63217 834 0 448
 302 455 50 1013 300 0 0 +17 302 0 448 1014 834 53 52 251 0 1015 +17 455 0 448 8
34 1014 65 361 291 0 328 -17 1013 0 179 1016 1016 65 834 300 0 0 -15 179 133 0 1
016 178 1017 17 1016 0 179 1013 1013 50 328 255 0 834 -17 328 0 414 361 52 65 10
16 255 0 1013 +15 414 16 0 328 408 0 17 361 0 414 1015 328 61 455 291 0 1014 +17
 52 0 414 328 1015 50 302 251 0 1016 -17 1015 0 414 52 361 53 64 246 0 245 -17 6
4 0 1018 245 245 61 1015 246 0 361 +17 245 0 1018 64 64 53 1014 242 0 0 +15 1018
 96 0 64 395 1019 17 1014 0 448 455 302 61 245 242 0 0 -15 1019 98 0 43 395 0 17
 43 0 1019 306 306 31 1020 247 0 41 +17 306 0 1019 43 43 44 40 295 0 0 +17 1020
 0 409 97 41 44 43 247 0 306 -17 41 0 409 1020 26 31 30 27 0 40 +17 26 0 409 41
 97 11 1021 10 0 1022 +17 40 0 38 30 135 31 306 295 0 0 -17 135 0 38 40 39 44 97
 252 0 1020 +17 39 0 38 135 30 94 1022 248 0 0 +17 97 0 409 26 1020 94 135 252 0
 1021 -17 1021 0 1017 1022 1022 94 26 10 0 39 -15 1017 135 0 1021 178 0 17 1022
 0 1017 1021 1021 11 39 248 0 0 -84 3 831 50583 3 824 .792156875133514 .81960785
3889465 .933333337306976 84 4 821 NONE83 3 819 .792156875133514 .819607853889465
 .933333337306976 84 4 818 NONE83 3 815 .792156875133514 .819607853889465 .93333
3337306976 84 4 814 NONE83 3 810 .792156875133514 .819607853889465 .933333337306
976 84 4 809 NONE83 3 805 .792156875133514 .819607853889465 .933333337306976 84
 4 804 NONE83 3 800 .792156875133514 .819607853889465 .933333337306976 84 4 799
 NONE83 3 795 .792156875133514 .819607853889465 .933333337306976 84 4 794 NONE83
 3 790 .792156875133514 .819607853889465 .933333337306976 84 4 789 NONE83 3 785
 .792156875133514 .819607853889465 .933333337306976 84 4 784 NONE83 3 780 .79215
6875133514 .819607853889465 .933333337306976 84 4 779 NONE83 3 775 .792156875133
514 .819607853889465 .933333337306976 84 4 774 NONE81 1 226 534 184 224 753 0 34
2 237 1023 83 3 770 .792156875133514 .819607853889465 .933333337306976 83 3 1023
 .792156875133514 .819607853889465 .933333337306976 84 4 769 NONE83 3 765 .79215
6875133514 .819607853889465 .933333337306976 84 4 764 NONE84 3 760 57484 4 758 N
ONE84 3 749 69484 2 746 2284 3 741 66984 3 735 51584 3 729 23183 3 723 .79215687
5133514 .819607853889465 .933333337306976 84 3 721 61979 15 718 SDL/TYSA_COLOUR1
7 154 0 147 223 148 93 91 175 0 714 +17 223 0 147 267 154 122 121 220 0 713 +17
 611 0 396 404 58 60 168 292 0 259 -17 168 0 167 156 316 55 611 292 0 172 +17 31
6 0 167 168 170 60 1024 314 0 0 +17 170 0 167 316 140 109 171 296 0 0 +17 1024 0
 402 108 259 109 316 314 0 170 -15 402 90 0 259 395 1018 17 108 0 402 284 1024 1
05 276 165 0 1025 -17 259 0 402 1024 284 60 404 256 0 316 +17 284 0 402 259 108
 77 1025 260 0 0 +17 404 0 396 617 611 77 259 256 0 284 -17 617 0 396 114 404 81
 80 224 0 340 -17 80 0 439 1025 238 77 617 224 0 404 +15 439 122 0 80 428 0 17 1
025 0 439 582 80 105 284 260 0 299 -17 238 0 439 80 75 81 345 228 0 0 +17 75 0 4
39 238 159 72 149 158 0 157 -17 159 0 439 75 582 76 161 188 0 0 -17 582 0 439 15
9 1025 141 299 277 0 161 -17 161 0 160 177 150 141 159 188 0 180 +17 180 0 453 2
99 171 141 177 181 0 0 -15 453 138 0 276 447 0 17 299 0 453 276 180 105 582 277
 0 0 +17 171 0 453 180 276 110 170 296 0 177 -17 276 0 453 171 299 109 108 165 0
 1024 +84 3 688 49684 3 686 25884 3 683 45584 3 680 58184 3 677 31484 2 674 2084
 3 671 42284 3 668 20084 3 665 42084 3 662 41584 3 659 39684 3 656 11484 3 653 3
2884 3 650 29984 3 647 45784 3 644 36984 3 641 19184 3 638 46584 3 635 10584 3 6
32 29384 3 629 22184 3 626 53484 3 621 58484 3 618 59129 49 172 0 81 612 46 0 .0
2707 0 29 612 171 0 60 606 49 .03282 4019290794801615e-33 0 29 606 170 0 109 601
 612 .03282 0 .012 29 601 169 0 87 382 606 775e-6 .02087 .006 29 382 168 0 54 59
3 601 .003125 .02087 .006 29 593 167 0 53 588 382 .004 0 .009 29 588 166 0 65 58
3 593 .004 .002 .011 29 583 165 0 141 577 588 734788079488412e-33 .002 .012 29 5
77 164 0 129 571 583 .005 .01472 .006 29 571 163 0 76 0 577 0 .002 .006 84 3 614
 12584 3 608 30484 3 603 13884 3 598 39984 3 594 34884 3 590 49184 3 585 64184 3
 579 65984 2 573 4681 1 384 928 398 18 562 0 0 394 1026 84 3 568 67582 1 1026 31
719540 83 3 566 .792156862745098 .819607843137255 .933333333333333 84 3 563 4878
3 3 561 .792156862745098 .819607843137255 .933333333333333 84 3 557 38283 3 556
 .792156862745098 .819607843137255 .933333333333333 84 3 552 53883 3 550 .792156
862745098 .819607843137255 .933333333333333 84 3 546 26683 3 544 .79215686274509
8 .819607843137255 .933333333333333 84 3 540 60383 3 538 .792156862745098 .81960
7843137255 .933333333333333 84 3 534 17583 3 532 .792156862745098 .8196078431372
55 .933333333333333 84 3 528 36883 3 526 .792156862745098 .819607843137255 .9333
33333333333 84 3 522 24083 3 520 .792156862745098 .819607843137255 .933333333333
333 84 3 516 61383 3 514 .792156862745098 .819607843137255 .933333333333333 83 3
 510 .792156862745098 .819607843137255 .933333333333333 83 3 506 .79215686274509
8 .819607843137255 .933333333333333 83 3 503 .792156862745098 .819607843137255 .
933333333333333 79 13 501 SDL/TYSA_NAME84 4 496 NONE84 2 492 1084 4 491 NONE79 2
0 486 ATTRIB_XPARASOLID_ID84 3 480 32050 405 146 0 429 415 397 0 +.005 .01472 .0
06 -1 0 0 0 0 1 51 415 145 0 408 454 405 0 +.004 .002 .01 0 -1 0 .001 0 0 -1 50
 454 144 0 447 403 415 0 +734788079488412e-33 .002 .012 0 0 -1 0 -1 0 50 403 143
 0 395 0 454 0 +0 0 .006 -1836676017326775e-63 1 1499759782661858e-47 1 0 122464
6799147354e-31 84 3 473 53582 1 469 35258484 84 3 468 14179 14 464 SWEntUnchange
d82 1 452 34734196 82 1 446 34603124 82 1 413 33226868 82 1 401 32833652 83 3 37
0 .792156875133514 .819607853889465 .933333337306976 83 3 365 .792156875133514 .
819607853889465 .933333337306976 83 3 349 .792156875133514 .819607853889465 .933
333337306976 83 3 343 .792156875133514 .819607853889465 .933333337306976 83 3 18
7 .792156875133514 .819607853889465 .933333337306976 84 3 146 51084 2 37 6919 17
 1 0 1 0 9 5 S0 74 4 CI16 index_map_offset0 0 1 dCCZ20 15 9 0 0 691 13 271 706 6
98 694 695 475 2 0 0 0 0 0 0 0 0 0 0 0 80 2 12 1027 1028 8004 0 0 0 0 3 5 0 0 0
 FFTFFFFFFFFFFF2 3 83 1 14 1 79 16 1028 SDL/TYSA_DENSITY1 0 
