**ABCDEFGHIJKLMNOPQRSTUVWXYZabcdefghijklmnopqrstuvwxyz**************************
**PARASOLID !"#$%&'()*+,-./:;<=>?@[\]^_`{|}~0123456789**************************
**PART1;
MC=AMD64;
MC_MODEL=AMD64 Family 23 Model 104 Stepping 1, AuthenticAMD;
MC_ID=unknown;
OS=Windows_NT;
OS_RELEASE=unknown;
FRU=Parasolid Version 30.0, build 298, 12-15-2017;
APPL=SOLIDWORKS 2018-2018134;
SITE=;
USER=unknown;
FORMAT=text;
GUISE=transmit;
KEY=Part 1;
FILE=Part 1.x_t;
DATE=Sun Nov 14 02:02:53 2021;
**PART2;
SCH=SCH_3000298_30000;
USFLD_SIZE=0;
**PART3;
**END_OF_HEADER*****************************************************************
T51 : TRANSMIT FILE created by modeller version 300029823 SCH_3000298_30000_1300
6205 0 12 33 CCCCCCI4 mesh1006 0 I8 polyline1008 0 CCCCCCCDI5 owner1040 0 CCCCCC
I13 boundary_mesh1006 0 I17 boundary_polyline1008 0 CCCA16 index_map_offset0 0 1
 dA9 index_map82 0 A17 node_id_index_map82 0 A20 schema_embedding_map82 0 A5 chi
ld12 0 A14 lowest_node_id0 0 1 dZ1 255 2 3 0 0 0 0 0 0 1e3 1e-8 0 4 0 1 0 1 1 5
 6 7 8 0 0 9 10 11 0 0 0 0 0 0 81 255 2 2 228 12 1 13 0 0 0 14 0 70 11 CI9 list_
type0 0 1 uI10 notransmit0 0 1 lCCCDCCDI12 finger_index0 0 1 dI12 finger_block10
12 0 CZ3 0 4 T1 0 0 9 20 1 15 15 13 255 5 4 0 1 0 16 0 0 17 0 50 255 6 44 0 18 1
9 0 0 +.003 0 0 1 0 0 0 1 0 30 255 7 64 0 20 21 0 0 +0 0 0 0 -1604941620322695e-
48 -1 29 255 8 52 0 11 22 0 .003 .02 -.0015 19 8 CCCCCCCA5 owner12 0 Z9 2 0 1 17
 0 23 V0 16 255 10 7 24 ?25 0 26 27 0 0 1 18 255 11 9 28 29 0 30 8 ?1 81 1 28 12
2 31 11 32 0 33 13 34 17 255 29 0 35 36 37 11 38 26 0 25 -18 30 11 39 40 11 41 4
2 ?1 81 1 39 110 31 30 43 0 44 45 46 17 40 0 47 48 48 30 49 50 0 38 +18 41 13 45
 49 30 51 52 ?1 29 42 46 0 30 53 52 0 .02 -.0015 29 53 45 0 54 0 42 169406589450
86e-34 -481482486096809e-49 .0075 29 52 47 0 41 42 55 0 .02 .0015 29 55 48 0 56
 52 57 16940658945086e-34 -722223729145214e-49 -.0075 18 56 19 58 59 60 0 55 ?1
 29 57 49 0 60 55 61 .003 -722223729145214e-49 -.0075 18 60 23 62 63 64 56 57 ?1
 29 61 50 0 51 57 22 .003 .02 .0015 18 51 8 65 66 41 54 61 ?1 29 22 51 0 64 61 8
 .003 -481482486096809e-49 .0075 18 64 21 33 67 54 60 22 ?1 81 1 33 120 31 64 68
 0 65 28 69 17 67 0 70 71 72 64 73 74 0 75 -18 54 18 44 72 51 64 53 ?1 81 1 44 1
08 31 54 76 0 77 39 78 17 72 0 70 67 79 54 59 80 0 73 -15 255 70 16 0 72 81 0 17
 79 0 70 72 71 56 63 82 0 83 +17 59 0 84 85 85 56 72 80 0 79 +16 80 17 86 ?59 87
 50 88 0 0 1 17 73 0 89 83 90 54 67 74 0 85 +15 89 30 0 83 91 0 17 83 0 89 63 73
 56 85 20 0 0 +17 90 0 89 73 63 64 92 87 0 0 -16 74 20 93 ?73 20 87 94 0 0 1 17
 85 0 84 59 59 54 83 20 0 0 -15 84 37 0 59 95 47 16 20 31 96 ?83 97 74 7 0 0 1 8
1 1 96 132 98 20 99 0 100 93 101 16 97 14 100 ?102 103 20 104 0 0 1 81 1 100 131
 98 97 105 0 106 96 107 17 102 0 35 37 36 41 66 97 0 48 +16 103 27 106 ?36 82 97
 21 0 0 1 30 104 56 0 97 88 108 0 +.003 .02 .0015 -1 0 0 134 255 88 55 0 80 109
 104 0 +110 111 30 108 57 0 87 104 112 0 +.003 0 0 0 -1604941620322695e-48 -1 16
 87 32 113 ?92 74 80 108 0 0 1 134 112 58 0 114 108 115 0 +116 117 16 114 22 118
 ?71 26 82 112 0 0 1 30 115 59 0 26 112 119 0 +.003 .02 -.0015 -1 0 0 136 255 11
6 2 3 4 2 5 FFT1 120 121 122 135 255 117 2 0 45 255 12 120 .003 -481482486096809
e-49 .0075 1 .000409090909090909 .03409090909090905 250495936189231e-33 .1363636
363636362 .003 -722223729145214e-49 -.0075 1 127 255 2 121 3 3 128 255 2 122 0 1
 16 26 10 123 ?38 10 114 115 0 0 1 30 119 60 0 82 115 94 0 +.003 -72222372914521
4e-49 -.0075 -1 0 0 16 82 24 124 ?79 114 103 119 0 0 1 30 94 61 0 74 119 125 0 +
.003 -481482486096809e-49 .0075 -1 0 0 31 255 125 62 0 50 94 21 0 +0 .02 0 1 0 0
 0 0 -1 .0015 16 50 12 126 ?40 80 127 125 0 0 1 31 21 63 0 103 125 7 0 +.003 .02
 0 1 0 0 0 0 -1 .0015 81 1 126 136 98 50 128 0 86 129 130 16 127 28 129 ?48 50 0
 109 0 0 1 81 1 129 137 98 127 131 0 126 0 132 17 48 0 47 40 40 41 37 127 0 0 +3
1 109 54 0 127 27 88 0 +0 .02 0 1 0 0 0 0 -1 .0015 31 27 53 0 10 0 109 0 +.003 .
02 0 1 0 0 0 0 -1 .0015 15 47 38 0 40 95 0 17 37 0 35 29 102 30 48 127 0 0 -15 3
5 26 0 29 133 0 14 255 133 25 134 ?91 81 35 5 135 -0 0 91 81 23 81 1 134 250 136
 133 137 0 0 138 139 14 91 29 138 ?18 133 89 5 140 -0 0 18 133 23 14 81 15 141 ?
133 16 70 5 142 +0 0 133 16 23 51 255 135 39 0 133 0 142 0 +.003 .02 0 -1 0 0 .0
015 0 0 1 13 23 3 0 0 0 0 0 0 9 16 14 16 5 143 ?81 0 144 5 145 -0 0 81 0 23 81 1
 143 253 136 16 146 0 141 147 148 15 144 6 0 25 16 0 51 145 42 0 16 140 19 0 +.0
03 .02 0 -1 0 0 .0015 0 0 1 50 140 41 0 91 142 145 0 +.003 0 0 0 1 -160494162032
2695e-48 1 0 0 50 19 43 0 95 145 6 0 +0 0 0 1 0 0 0 1 0 14 95 36 147 ?0 18 84 5
 19 -0 0 0 18 23 81 1 147 254 136 95 149 0 143 150 151 14 18 33 150 ?95 91 152 5
 6 +0 0 95 91 23 81 1 150 255 136 18 77 0 147 0 153 15 152 34 0 75 18 154 17 75
 0 152 92 92 64 71 114 0 90 -15 154 35 0 155 18 0 17 155 0 154 156 156 51 25 10
 0 36 -17 156 0 154 155 155 11 36 103 0 0 -17 25 0 144 38 66 11 155 10 0 156 +17
 36 0 35 102 29 51 156 103 0 0 +17 38 0 144 49 25 30 29 26 0 37 +17 66 0 144 25
 49 51 102 97 0 155 -17 49 0 144 66 38 41 40 50 0 102 -17 92 0 152 75 75 60 90 8
7 0 0 +17 71 0 70 79 67 60 75 114 0 92 +80 255 1 136 157 158 9000 1 1 1 1 1 1 1
 1 0 FFFFTFTFFFFFFF1 81 1 77 106 31 18 159 150 149 44 160 82 255 1 153 680001652
 80 1 31 161 162 9000 0 0 0 0 3 6 0 0 0 TTTFTFTTTFFFFF3 81 1 159 105 163 18 164
 77 165 76 166 81 1 149 103 31 95 165 147 146 77 167 84 255 3 160 10281 1 165 10
2 163 95 168 149 169 159 170 81 1 146 100 31 16 169 143 171 149 172 84 3 167 181
81 1 169 99 163 16 173 146 174 165 175 81 1 171 97 31 91 174 138 176 146 177 84
 3 172 10981 1 174 96 163 91 178 171 179 169 180 81 1 138 251 136 91 171 0 134 1
41 181 81 1 176 94 31 81 179 141 137 171 182 84 2 177 8481 1 179 93 163 81 183 1
76 184 174 185 81 1 141 252 136 81 176 0 138 143 186 81 1 137 91 31 133 184 134
 99 176 187 84 3 182 18681 1 184 90 163 133 188 137 189 179 190 81 1 99 88 31 20
 189 96 191 137 192 84 3 187 20481 1 189 87 163 20 0 99 193 184 194 81 1 191 86
 31 103 193 106 128 99 195 84 3 192 21081 1 193 85 163 103 0 191 196 189 197 81
 1 106 130 98 103 191 0 124 100 198 81 1 128 84 31 50 196 126 199 191 200 84 2 1
95 6381 1 196 83 163 50 0 128 201 193 202 81 1 199 82 31 74 201 93 203 128 204 8
4 3 200 14781 1 201 81 163 74 0 199 205 196 206 81 1 93 133 98 74 199 0 96 113 2
07 81 1 203 80 31 82 205 124 208 199 209 84 3 204 12281 1 205 79 163 82 0 203 21
0 201 211 81 1 124 129 98 82 203 0 118 106 212 81 1 208 78 31 26 210 123 213 203
 214 84 3 209 14581 1 210 77 163 26 0 208 215 205 216 81 1 123 127 98 26 208 0 2
4 118 217 81 1 213 76 31 114 215 118 218 208 219 84 2 214 5281 1 215 75 163 114
 0 213 220 210 221 81 1 118 128 98 114 213 0 123 124 222 81 1 218 74 31 87 220 1
13 105 213 223 84 3 219 18381 1 220 73 163 87 0 218 224 215 225 81 1 113 134 98
 87 218 0 93 86 226 81 1 105 72 31 97 224 100 227 218 228 84 2 223 2981 1 224 71
 163 97 0 105 229 220 230 81 1 227 70 31 80 229 86 131 105 231 84 2 228 3281 1 2
29 69 163 80 0 227 232 224 233 81 1 86 135 98 80 227 0 113 126 234 81 1 131 68 3
1 127 232 129 235 227 236 84 3 231 19781 1 232 67 163 127 0 131 237 229 238 81 1
 235 66 31 10 237 24 0 131 239 84 2 236 9781 1 237 65 163 10 0 235 0 232 240 81
 1 24 126 98 10 235 0 164 123 241 84 2 239 1080 1 98 0 242 8001 0 0 0 0 3 5 0 0
 0 FFFFTFTFFFFFFF2 81 1 164 104 98 18 0 159 168 24 243 83 255 3 241 .79215687513
3514 .819607853889465 .933333337306976 81 1 168 101 98 95 0 165 173 164 244 83 3
 243 .792156862745098 .819607843137255 .933333333333333 81 1 173 98 98 16 0 169
 178 168 245 83 3 244 .792156862745098 .819607843137255 .933333333333333 81 1 17
8 95 98 91 0 174 183 173 246 83 3 245 .792156862745098 .819607843137255 .9333333
33333333 81 1 183 92 98 81 0 179 188 178 247 83 3 246 .792156862745098 .81960784
3137255 .933333333333333 81 1 188 89 98 133 0 184 0 183 248 83 3 247 .7921568627
45098 .819607843137255 .933333333333333 83 3 248 .792156862745098 .8196078431372
55 .933333333333333 79 255 15 242 SDL/TYSA_COLOUR80 1 163 249 250 8017 0 0 0 0 0
 0 0 0 0 TTTTTTTTTTTTTF3 84 4 240 NONE79 13 250 SDL/TYSA_NAME84 4 238 NONE83 3 2
34 .792156875133514 .819607853889465 .933333337306976 84 4 233 NONE84 4 230 NONE
83 3 226 .792156875133514 .819607853889465 .933333337306976 84 4 225 NONE83 3 22
2 .792156875133514 .819607853889465 .933333337306976 84 4 221 NONE83 3 217 .7921
56875133514 .819607853889465 .933333337306976 84 4 216 NONE83 3 212 .79215687513
3514 .819607853889465 .933333337306976 84 4 211 NONE83 3 207 .792156875133514 .8
19607853889465 .933333337306976 84 4 206 NONE84 4 202 NONE83 3 198 .792156875133
514 .819607853889465 .933333337306976 84 4 197 NONE84 4 194 NONE84 4 190 NONE82
 1 186 679280756 84 4 185 NONE82 1 181 679215220 84 4 180 NONE84 4 175 NONE84 4
 170 NONE81 1 76 107 163 54 0 44 159 43 251 84 4 166 NONE81 1 43 109 163 30 0 39
 76 252 253 84 4 251 NONE81 1 252 111 163 41 0 45 43 254 255 84 4 253 NONE81 1 4
5 112 31 41 252 0 39 58 256 81 1 254 113 163 56 0 58 252 257 258 84 4 255 NONE81
 1 58 114 31 56 254 0 45 62 259 81 1 257 115 163 60 0 62 254 260 261 84 4 258 NO
NE81 1 62 116 31 60 257 0 58 65 262 81 1 260 117 163 51 0 65 257 68 263 84 4 261
 NONE81 1 65 118 31 51 260 0 62 33 264 81 1 68 119 163 64 0 33 260 32 265 84 4 2
63 NONE81 1 32 121 163 11 0 28 68 266 267 84 4 265 NONE81 1 266 138 163 1 268 26
9 32 0 270 84 4 267 NONE81 1 268 125 271 1 272 266 0 0 273 81 1 269 139 274 1 26
6 13 0 0 275 84 13 270 Boss-Extrude180 1 274 31 276 9000 0 0 0 0 3 5 0 0 0 TFTFT
FTFFFFFFF3 81 1 13 140 31 1 269 2 28 0 277 84 6 275 Part 184 3 277 11979 22 276
 ATTRIB_XPARASOLID_NAME80 1 271 98 278 8040 0 0 0 0 3 5 0 0 0 TTTFFFFFFFFFFF2 81
 1 272 124 279 1 280 268 0 0 281 83 3 273 .792156875133514 .819607853889465 .933
333337306976 80 1 279 282 283 9000 0 0 0 0 3 5 0 0 0 TTTFTFTTFFFFFF3 81 1 280 12
3 282 1 0 272 0 0 284 84 4 281 NONE80 1 282 274 285 9000 0 0 0 0 3 5 0 0 0 FTTFT
FTTFFFFFF1 82 1 284 -1 79 23 285 ATTRIB_XPARASOLID_LAYER79 26 283 ATTRIB_XGENERI
C_LAYER_NAME79 17 278 SDL/TYSA_COLOUR_284 2 264 2784 3 262 20984 3 259 12184 2 2
56 7379 20 162 ATTRIB_XPARASOLID_ID79 14 158 SWEntUnchanged82 1 151 679870580 12
4 255 142 40 0 81 135 140 0 +286 287 126 255 286 FF2 1 3 2 5 5 2 2 TFF11 4 288 2
89 290 291 292 125 255 287 0 1 0 1 0 1 0 1 2 BBBBBBBB????0 0 0 0 45 24 288 .003
 -481482486096809e-49 .0075 1 0 -481482486096809e-49 .0075 1 .000409090909090909
 .03409090909090905 250495936189231e-33 .1363636363636362 0 .03409090909090905 2
50495936189231e-33 .1363636363636362 .003 -722223729145214e-49 -.0075 1 0 -72222
3729145214e-49 -.0075 1 127 2 289 3 3 127 2 290 2 2 128 2 291 0 1 128 2 292 0 1
 82 1 148 679477364 82 1 139 679084148 83 3 132 .792156875133514 .81960785388946
5 .933333337306976 83 3 130 .792156875133514 .819607853889465 .933333337306976 1
36 110 2 3 4 2 5 FFT1 293 294 295 135 111 2 0 45 12 293 16940658945086e-34 -4814
82486096809e-49 .0075 1 211758236813575e-36 .03409090909090905 250495936189231e-
33 .1363636363636362 16940658945086e-34 -722223729145214e-49 -.0075 1 127 2 294
 3 3 128 2 295 0 1 83 3 107 .792156875133514 .819607853889465 .933333337306976 8
3 3 101 .792156875133514 .819607853889465 .933333337306976 17 63 0 89 90 83 60 7
9 82 0 71 -84 2 78 2484 3 69 12084 3 46 16784 2 34 8619 17 1 0 1 0 9 5 S0 74 4 C
I16 index_map_offset0 0 1 dCCZ20 15 9 0 0 266 13 129 280 272 268 269 150 2 0 0 0
 0 0 0 0 0 0 0 0 80 2 12 296 297 8004 0 0 0 0 3 5 0 0 0 FFTFFFFFFFFFFF2 3 83 1 1
4 1 79 16 297 SDL/TYSA_DENSITY1 0 
