**ABCDEFGHIJKLMNOPQRSTUVWXYZabcdefghijklmnopqrstuvwxyz**************************
**PARASOLID !"#$%&'()*+,-./:;<=>?@[\]^_`{|}~0123456789**************************
**PART1;
MC=AMD64;
MC_MODEL=AMD64 Family 23 Model 104 Stepping 1, AuthenticAMD;
MC_ID=unknown;
OS=Windows_NT;
OS_RELEASE=unknown;
FRU=Parasolid Version 30.0, build 298, 12-15-2017;
APPL=SOLIDWORKS 2018-2018134;
SITE=;
USER=unknown;
FORMAT=text;
GUISE=transmit;
KEY=SIDEARM2;
FILE=SIDEARM2.x_t;
DATE=Sun Nov 14 01:55:44 2021;
**PART2;
SCH=SCH_3000298_30000;
USFLD_SIZE=0;
**PART3;
**END_OF_HEADER*****************************************************************
T51 : TRANSMIT FILE created by modeller version 300029823 SCH_3000298_30000_1300
6205 0 12 33 CCCCCCI4 mesh1006 0 I8 polyline1008 0 CCCCCCCDI5 owner1040 0 CCCCCC
I13 boundary_mesh1006 0 I17 boundary_polyline1008 0 CCCA16 index_map_offset0 0 1
 dA9 index_map82 0 A17 node_id_index_map82 0 A20 schema_embedding_map82 0 A5 chi
ld12 0 A14 lowest_node_id0 0 1 dZ1 1141 2 3 0 0 0 0 0 0 1e3 1e-8 0 4 0 1 0 1 1 5
 6 7 8 0 0 9 10 11 0 0 0 0 0 0 81 255 2 2 1026 12 1 13 0 0 0 14 0 70 11 CI9 list
_type0 0 1 uI10 notransmit0 0 1 lCCCDCCDI12 finger_index0 0 1 dI12 finger_block1
012 0 CZ3 0 4 T1 0 0 9 20 1 15 15 13 255 5 4 0 1 0 16 0 0 17 0 50 255 6 188 0 18
 19 0 0 +-.0288759253567212 .005 .0651936710301248 0 0 1 1 0 0 31 255 7 286 0 20
 21 0 0 +-.0238759253567214 .0672511064281089 .0576936710301249 -1 -462592926927
148e-29 0 462592926927148e-29 -1 0 .0015 29 255 8 224 0 22 23 0 -.05312703178483
01 -.002 .0501936710301249 19 8 CCCCCCCA5 owner12 0 Z9 2 0 1 17 0 24 V0 16 255 1
0 10 25 ?26 0 27 28 0 0 1 18 255 11 8 29 30 0 31 32 ?1 81 1 29 508 33 11 34 0 35
 36 37 17 255 30 0 38 26 39 11 40 20 0 41 -18 31 11 42 43 11 44 45 ?1 29 32 195
 0 11 46 47 -.0238759253567214 .0687511064281089 .0576936710301249 29 46 194 0 4
8 49 32 -.0238759253567214 .0657511064281089 .0576936710301249 29 47 196 0 50 32
 51 -.02687592535672145 .0822511064281089 .0501936710301249 18 50 38 36 52 53 54
 47 ?1 29 51 197 0 55 47 56 -.02387592535672145 .0822511064281089 .0651936710301
249 18 55 57 57 58 59 60 51 ?1 29 56 198 0 61 51 62 -.02687592535672115 .005 .05
01936710301249 18 61 39 63 64 65 66 56 ?1 29 62 199 0 53 56 67 -.026875925356721
45 .0822511064281089 .0651936710301249 18 53 43 68 69 66 50 62 ?1 29 67 200 0 70
 62 71 -.0511270317848301 0 .0651936710301248 18 70 73 72 73 74 75 67 ?1 29 71 2
01 0 76 67 77 -.0511270317848301 .003 .0501936710301249 18 76 29 78 79 80 81 71
 ?1 29 77 202 0 82 71 83 -.0288759253567212 0 .0501936710301249 18 82 75 84 85 8
6 74 77 ?1 29 83 203 0 87 77 88 -.0531270317848301 -.002 .0651936710301248 18 87
 111 89 90 91 92 83 ?1 29 88 204 0 93 83 94 -.05612703178483 -.04150221285621785
 .0651936710301249 18 93 127 95 96 97 98 88 ?1 29 94 205 0 86 88 99 -.0511270317
848301 867361737988403e-33 .0501936710301249 18 86 72 100 101 60 82 94 ?1 29 99
 206 0 75 94 102 -.0561270317848301 -.002 .0501936710301249 18 75 102 103 104 70
 22 99 ?1 29 102 207 0 92 99 105 -.05312703178483 -.04150221285621785 .063193671
0301249 18 92 122 106 107 87 97 102 ?1 29 105 208 0 108 102 109 -.05312703178483
 -.03900221285621785 .0631936710301249 18 108 136 110 111 98 112 105 ?1 29 109 2
09 0 65 105 113 -.0288759253567212 .003 .0501936710301249 18 65 28 114 115 116 6
1 109 ?1 29 113 210 0 91 109 117 -.0561270317848301 -.002 .0651936710301249 18 9
1 109 118 119 22 87 113 ?1 29 117 211 0 116 113 120 -.0288759253567212 .003 .065
1936710301249 18 116 33 121 122 81 65 117 ?1 29 120 212 0 123 117 124 -.05612703
178483 -.03900221285621785 .0631936710301249 18 123 146 125 126 127 0 120 ?1 29
 124 213 0 98 120 128 -.05612703178483 -.04150221285621785 .0631936710301249 18
 98 123 129 130 93 108 124 ?1 29 128 214 0 66 124 131 -.02687592535672115 .005 .
0651936710301249 18 66 41 132 133 61 53 128 ?1 29 131 215 0 59 128 134 -.0238759
2535672115 .005 .0501936710301249 18 59 50 135 136 54 55 131 ?1 29 134 216 0 112
 131 137 -.05312703178483 -.03900221285621785 .0551936710301249 18 112 132 138 1
39 108 127 134 ?1 29 137 217 0 54 134 140 -.02387592535672145 .0822511064281089
 .0501936710301249 18 54 52 141 142 50 59 137 ?1 29 140 218 0 143 137 144 -.0561
2703178483 -.04150221285621785 .0501936710301249 18 143 21 145 146 147 148 140 ?
1 29 144 219 0 74 140 45 -.0288759253567212 0 .0651936710301248 18 74 77 149 150
 82 70 144 ?1 29 45 220 0 31 144 151 -.0268759253567214 .0687511064281089 .05769
36710301249 29 151 221 0 127 45 152 -.05612703178483 -.03900221285621785 .055193
6710301249 18 127 144 153 154 112 123 151 ?1 29 152 222 0 148 151 23 -.053127031
78483 -.04150221285621785 .0501936710301249 18 148 23 155 156 143 80 152 ?1 29 2
3 223 0 60 152 8 -.0238759253567212 .005 .0651936710301248 18 60 62 157 158 55 8
6 23 ?1 81 1 157 564 33 60 159 0 155 160 161 17 158 0 162 163 164 60 136 165 0 1
66 +15 255 162 96 0 158 167 0 17 163 0 162 168 158 74 169 170 0 0 +17 164 0 162
 158 168 59 171 172 0 0 +17 136 0 173 142 174 59 158 165 0 175 -16 165 66 176 ?1
58 177 170 178 0 0 1 17 166 0 179 180 181 60 133 177 0 174 -15 179 60 0 166 182
 0 17 180 0 179 183 166 55 174 184 0 0 +17 181 0 179 166 183 66 185 186 0 187 -1
7 133 0 188 189 169 66 166 177 0 181 +16 177 61 190 ?133 191 165 192 0 0 1 17 17
4 0 173 136 58 60 180 184 0 169 -15 173 65 0 136 193 194 17 58 0 173 174 142 55
 195 196 0 197 -16 184 63 198 ?180 196 199 200 0 0 1 17 169 0 188 133 150 60 163
 170 0 0 -15 188 92 0 189 18 0 17 150 0 188 169 189 74 201 202 0 203 -16 170 94
 204 ?163 165 172 205 0 0 1 81 1 204 599 206 170 207 0 176 208 209 16 172 90 208
 ?164 170 210 211 0 0 1 31 205 260 0 170 212 213 0 +-.0288759253567212 .005 .065
1936710301248 0 0 -1 1 0 0 .005 30 255 212 259 0 214 215 205 0 +-.05312703178483
 -.04150221285621785 .0501936710301249 0 0 1 30 213 261 0 216 205 200 0 +-.02387
592535672145 .0822511064281089 .0651936710301249 1 3491481338843135e-30 0 16 216
 56 217 ?197 218 196 213 0 0 1 30 200 262 0 184 213 219 0 +-.02387592535672145 .
0822511064281089 .0651936710301249 -3491481338843135e-30 1 2968513801912495e-31
 30 219 263 0 220 200 221 0 +-.05312703178483 -.04150221285621785 .0551936710301
249 -1 -3491481338843135e-30 0 16 220 17 222 ?223 27 224 219 0 0 1 30 221 264 0
 225 219 226 0 +-.05312703178483 -.03900221285621785 .0551936710301249 -1 -34914
81338843135e-30 0 16 225 153 227 ?228 229 230 221 0 0 1 30 226 265 0 231 221 28
 0 +-.02687592535672115 .005 .0576936710301249 0 0 1 16 231 40 232 ?187 233 186
 226 0 0 1 30 28 266 0 10 226 192 0 +-.0238759253567214 .0687511064281089 .05769
36710301249 -1 -3491481338843135e-30 0 30 192 267 0 177 28 234 0 +-.023875925356
72115 .005 .0651936710301248 -1 -3491481338843135e-30 0 30 234 268 0 235 192 236
 0 +-.0238759253567214 .0657511064281089 .0576936710301249 -1 -3491481338843135e
-30 0 16 235 14 237 ?238 239 240 234 0 0 1 30 236 269 0 202 234 241 0 +-.0288759
253567212 0 .0651936710301248 0 1 0 16 202 82 242 ?201 243 244 236 0 0 1 31 241
 270 0 245 236 246 0 +-.02687592535672145 .0822511064281089 .0576936710301249 -1
 -3491481338843135e-30 0 0 0 1 .0075 16 245 44 247 ?52 186 248 241 0 0 1 30 246
 271 0 249 241 250 0 +-.05312703178483 -.03900221285621785 .0631936710301249 -1
 -3491481338843135e-30 0 16 249 156 251 ?252 230 253 246 0 0 1 31 250 272 0 254
 246 255 0 +-.0511270317848301 -.002 .0501936710301249 0 0 -1 1 0 0 .002 16 254
 105 256 ?257 258 259 250 0 0 1 30 255 273 0 210 250 260 0 +-.0288759253567212 .
003 .0576936710301249 0 0 1 16 210 34 261 ?122 172 262 255 0 0 1 30 260 274 0 26
3 255 264 0 +.0538729682151699 .003 .0501936710301249 -1 0 0 16 263 27 265 ?266
 214 267 260 0 0 1 31 264 275 0 258 260 268 0 +-.0511270317848301 -.002 .0651936
710301248 0 0 1 -1 0 0 .002 16 258 112 269 ?270 271 254 264 0 0 1 30 268 276 0 2
59 264 272 0 +-.0561270317848301 -.002 .0576936710301249 0 0 1 16 259 118 273 ?2
74 254 275 268 0 0 1 31 272 277 0 262 268 276 0 +-.0511270317848301 -.002 .05019
36710301249 0 0 -1 -1 0 0 .005 16 262 104 277 ?278 210 279 272 0 0 1 30 276 278
 0 280 272 281 0 +-.0531270317848301 -.002 .0501936710301249 1 3491481338843135e
-30 0 16 280 101 282 ?283 284 285 276 0 0 1 30 281 279 0 284 276 286 0 +-.056127
0317848305 .108497787143782 .0501936710301249 3491481338843135e-30 -1 0 16 284 1
48 287 ?288 289 280 281 0 0 1 31 286 280 0 27 281 290 0 +-.0268759253567214 .067
2511064281089 .0576936710301249 -1 -462592926927148e-29 0 462592926927148e-29 -1
 0 .0015 16 27 12 291 ?292 10 220 286 0 0 1 30 290 281 0 293 286 294 0 +-.023875
92535672115 .005 .0501936710301249 1 3491481338843135e-30 0 16 293 49 295 ?175 2
96 191 290 0 0 1 30 294 282 0 248 290 297 0 +-.02387592535672145 .08225110642810
89 .0501936710301249 1 3491481338843135e-30 0 16 248 51 298 ?299 245 218 294 0 0
 1 30 297 283 0 300 294 301 0 +-.0531270317848301 -.002 .0651936710301248 -1 -34
91481338843135e-30 0 16 300 110 302 ?119 303 304 297 0 0 1 30 301 284 0 233 297
 21 0 +-.02687592535672145 .0822511064281089 .0501936710301249 3491481338843135e
-30 -1 0 16 233 37 305 ?306 307 231 301 0 0 1 30 21 285 0 308 301 7 0 +-.0511270
317848301 0 .0651936710301248 0 1 0 16 308 81 309 ?310 311 271 21 0 0 1 81 1 309
 605 206 308 312 0 313 314 315 17 310 0 316 317 318 81 319 308 0 320 +16 311 108
 313 ?317 279 308 321 0 0 1 16 271 71 314 ?73 308 258 322 0 0 1 81 1 314 606 206
 271 323 0 309 269 324 17 73 0 325 270 257 70 101 271 0 319 +30 322 239 0 271 32
6 327 0 +-.0511270317848301 0 .0576936710301249 0 0 1 30 326 238 0 267 328 322 0
 +-.0511270317848301 .003 .0576936710301249 0 0 1 30 327 240 0 275 322 329 0 +-.
05312703178483 -.04150221285621785 .0501936710301249 0 0 1 16 275 124 330 ?331 2
59 332 327 0 0 1 30 329 241 0 333 327 334 0 +-.0288759253567212 0 .0576936710301
249 0 0 1 16 333 76 335 ?336 20 243 329 0 0 1 30 334 242 0 253 329 321 0 +-.0561
2703178483 -.03900221285621785 .0631936710301249 -277555756156289e-29 1 0 16 253
 147 337 ?126 249 239 334 0 0 1 31 321 243 0 311 334 338 0 +-.0511270317848301 -
.002 .0651936710301248 0 0 1 -1 1335737076502142e-29 0 .005 30 338 244 0 218 321
 339 0 +-.0238759253567209 -.0677488935718911 .0501936710301249 3491481338843135
e-30 -1 925185853854297e-31 16 218 53 340 ?341 248 216 338 0 0 1 31 339 245 0 19
6 338 342 0 +-.02387592535672145 .0822511064281089 .0576936710301249 -1 -3491481
338843135e-30 0 0 0 -1 .0075 16 196 58 343 ?195 216 184 339 0 0 1 31 342 246 0 1
91 339 344 0 +-.0288759253567212 .005 .0651936710301248 0 0 -1 1 0 0 .002 16 191
 93 345 ?189 293 177 342 0 0 1 30 344 247 0 229 342 346 0 +-.05612703178483 -.04
150221285621785 .0551936710301249 277555756156289e-29 -1 0 16 229 143 347 ?348 2
85 225 344 0 0 1 31 346 248 0 240 344 349 0 +-.0268759253567214 .067251106428108
9 .0576936710301249 -1 -462592926927148e-29 0 462592926927148e-29 -1 0 .0015 16
 240 46 350 ?351 235 0 346 0 0 1 30 349 249 0 307 346 352 0 +.0538729682151699 .
003 .0651936710301249 1 0 0 16 307 32 353 ?354 267 233 349 0 0 1 30 352 250 0 18
6 349 355 0 +-.02687592535672145 .0822511064281089 .0651936710301249 -3491481338
843135e-30 1 0 16 186 42 356 ?185 231 245 352 0 0 1 30 355 251 0 357 352 358 0 +
-.05312703178483 -.03900221285621785 .0551936710301249 0 0 -1 16 357 137 359 ?13
9 360 303 355 0 0 1 30 358 252 0 244 355 211 0 +-.0288759253567212 0 .0501936710
301249 0 -1 0 16 244 86 361 ?362 202 363 358 0 0 1 31 211 253 0 172 358 364 0 +-
.0288759253567212 .005 .0501936710301249 0 0 1 -1 0 0 .005 30 364 254 0 365 211
 178 0 +-.05612703178483 -.04150221285621785 .0576936710301249 0 0 1 16 365 128
 366 ?96 367 289 364 0 0 1 30 178 255 0 165 364 368 0 +-.02387592535672115 .005
 .0576936710301249 0 0 1 30 368 256 0 285 178 369 0 +-.05312703178483 -.04150221
285621785 .0501936710301249 3491481338843135e-30 -1 925185853854297e-31 16 285 1
33 370 ?371 280 229 368 0 0 1 30 369 257 0 239 368 215 0 +-.05312703178483 -.041
50221285621785 .0631936710301249 -1 -3491481338843135e-30 0 16 239 121 372 ?130
 253 235 369 0 0 1 30 215 258 0 243 369 212 0 +.0538729682151699 0 .065193671030
1249 1 0 2968513801912495e-31 16 243 78 373 ?203 333 202 215 0 0 1 81 1 373 590
 206 243 374 0 335 242 375 17 203 0 376 201 319 74 377 243 0 336 +15 376 80 0 31
9 378 0 17 201 0 376 320 203 116 150 202 0 354 +17 319 0 376 203 320 70 310 308
 0 377 -17 377 0 379 101 336 70 203 243 0 318 -17 336 0 379 377 85 74 168 333 0
 163 +15 379 70 0 101 380 0 17 85 0 379 336 101 82 381 363 0 362 -17 168 0 162 1
64 163 82 336 333 0 171 -17 171 0 382 383 175 82 164 172 0 0 -15 382 88 0 383 38
4 0 17 383 0 382 385 171 65 362 244 0 386 -17 175 0 382 171 385 59 64 293 0 341
 +17 385 0 382 175 383 61 387 296 0 0 +17 64 0 388 389 341 61 175 293 0 390 -17
 341 0 388 64 299 59 142 218 0 164 +15 388 48 0 64 391 0 17 299 0 388 341 389 54
 392 248 0 195 +17 142 0 173 58 136 54 341 218 0 299 -17 389 0 388 299 64 50 306
 233 0 392 -17 392 0 393 69 195 50 299 248 0 0 -17 195 0 393 392 197 54 58 196 0
 0 +15 393 55 0 392 394 0 17 197 0 393 195 69 55 183 216 0 180 +17 69 0 393 197
 392 53 52 245 0 185 -17 183 0 179 181 180 53 197 216 0 0 -17 52 0 395 306 185 5
0 69 245 0 389 +17 185 0 395 52 187 53 181 186 0 183 +15 395 36 0 306 396 397 17
 187 0 395 185 306 66 390 231 0 398 +17 306 0 395 187 52 61 389 233 0 385 +17 39
0 0 399 387 398 61 187 231 0 306 -17 398 0 399 390 122 66 189 191 0 0 -15 399 98
 0 390 400 0 17 122 0 399 398 387 116 115 210 0 201 +17 189 0 188 150 133 116 39
8 191 0 0 +17 387 0 399 122 390 65 385 296 0 0 -17 115 0 401 266 354 65 122 210
 0 383 -15 401 26 0 266 402 0 17 266 0 401 403 115 76 386 263 0 278 +17 354 0 40
1 115 403 116 320 307 0 189 +17 403 0 401 354 266 81 404 267 0 405 +17 320 0 376
 319 201 81 354 307 0 403 -18 81 31 406 310 76 116 407 ?1 81 1 406 496 33 81 408
 0 409 410 411 29 407 189 0 81 0 412 -.0511270317848301 .003 .0651936710301249 2
9 412 190 0 44 407 413 -.0268759253567214 .0657511064281089 .0576936710301249 18
 44 13 410 238 31 48 412 ?1 29 413 191 0 80 412 414 -.05312703178483 -.041502212
85621785 .0551936710301249 18 80 18 415 416 148 76 413 ?1 29 414 192 0 97 413 49
 -.05312703178483 -.04150221285621785 .0651936710301249 18 97 125 417 418 92 93
 414 ?1 29 49 193 0 147 414 46 -.05612703178483 -.04150221285621785 .05519367103
01249 18 147 19 419 420 48 143 49 ?1 81 1 419 504 33 147 421 0 417 35 422 17 420
 0 423 424 288 147 146 367 0 223 +18 48 9 35 39 44 147 46 ?1 81 1 35 506 33 48 4
25 0 419 29 426 17 39 0 38 30 292 48 238 235 0 40 -15 38 6 0 30 16 0 17 292 0 38
 39 26 44 43 27 0 427 +17 238 0 428 351 429 44 39 235 0 292 +17 40 0 194 430 430
 48 30 20 0 429 +15 194 67 0 430 193 0 17 430 0 194 40 40 11 429 199 0 0 +16 20
 7 431 ?40 199 333 7 0 0 1 17 429 0 428 238 41 48 430 199 0 0 -15 428 160 0 41 4
32 0 17 41 0 428 429 351 11 26 10 0 430 -16 199 68 433 ?430 184 20 328 0 0 1 81
 1 433 587 206 199 434 0 198 431 435 31 328 237 0 199 436 326 0 +-.0238759253567
214 .0672511064281089 .0576936710301249 -1 -462592926927148e-29 0 46259292692714
8e-29 -1 0 .0015 30 436 236 0 360 437 328 0 +-.05312703178483 -.0390022128562178
5 .0631936710301249 -277555756156289e-29 1 0 16 360 135 438 ?439 440 357 436 0 0
 1 30 437 235 0 332 441 436 0 +-.05312703178483 -.04150221285621785 .05519367103
01249 277555756156289e-29 -1 0 16 332 131 442 ?443 275 440 437 0 0 1 31 441 234
 0 296 444 437 0 +-.0288759253567212 .005 .0501936710301249 0 0 1 1 0 0 .002 16
 296 89 445 ?385 363 293 441 0 0 1 30 444 233 0 303 446 441 0 +-.053127031784830
5 .108497787143782 .0651936710301249 -3491481338843135e-30 1 2968513801912495e-3
1 16 303 134 447 ?448 357 300 444 0 0 1 30 446 232 0 440 449 444 0 +-.0531270317
848301 -.002 .0576936710301249 0 0 1 16 440 115 450 ?451 332 360 446 0 0 1 30 44
9 231 0 304 452 446 0 +-.05312703178483 -.04150221285621785 .0651936710301249 1
 3491481338843135e-30 0 16 304 126 453 ?418 300 367 449 0 0 1 30 452 230 0 230 4
54 449 0 +-.05612703178483 -.03900221285621785 .0551936710301249 0 0 -1 16 230 1
45 455 ?154 225 249 452 0 0 1 30 454 229 0 279 456 452 0 +-.0511270317848301 0 .
0501936710301249 0 -1 0 16 279 85 457 ?458 262 311 454 0 0 1 30 456 228 0 363 45
9 454 0 +-.0961270317848301 0 .0501936710301249 -1 0 925185853854297e-31 16 363
 74 460 ?381 244 296 456 0 0 1 30 459 227 0 367 461 456 0 +-.05612703178483 -.04
150221285621785 .0576936710301249 0 0 1 16 367 20 462 ?420 304 365 459 0 0 1 30
 461 226 0 224 463 459 0 +-.05312703178483 -.04150221285621785 .0501936710301249
 1 3491481338843135e-30 0 16 224 22 464 ?465 220 214 461 0 0 1 30 463 225 0 289
 0 461 0 +-.0561270317848305 .108497787143782 .0651936710301249 -349148133884313
5e-30 1 0 16 289 140 466 ?467 365 284 463 0 0 1 81 1 466 620 206 289 468 0 366 2
87 469 17 467 0 423 470 96 91 471 289 0 0 +15 423 142 0 420 472 0 17 470 0 423 2
88 467 75 274 259 0 473 -17 96 0 423 467 474 93 475 365 0 476 +17 471 0 477 418
 119 93 467 289 0 0 -15 477 139 0 448 478 0 17 418 0 477 448 471 97 476 304 0 33
1 +17 119 0 477 471 448 91 90 300 0 274 +17 448 0 477 119 418 87 479 303 0 0 +17
 90 0 316 318 317 87 119 300 0 451 -17 274 0 480 405 473 91 470 259 0 317 +15 48
0 117 0 404 481 0 17 405 0 480 404 274 81 317 311 0 0 -17 473 0 480 274 404 75 2
78 262 0 482 -17 317 0 316 90 310 91 405 311 0 467 +15 316 107 0 317 483 0 14 25
5 483 106 484 ?485 486 316 5 487 -0 0 485 486 24 81 1 484 1114 488 483 489 0 0 4
90 491 14 485 113 490 ?481 483 325 5 492 -0 0 481 483 24 14 486 99 493 ?483 400
 494 5 495 -0 0 483 400 24 50 487 180 0 483 496 497 0 +-.0511270317848301 -.002
 .0651936710301248 0 0 -1 0 -1 0 13 24 3 0 0 0 0 0 0 9 16 14 16 5 498 ?499 0 38
 5 500 -0 0 499 0 24 81 1 498 1117 488 16 501 0 493 502 503 14 499 15 502 ?402 1
6 504 5 505 -0 0 402 16 24 51 255 500 176 0 16 495 506 0 +-.0238759253567214 .06
72511064281089 .0576936710301249 -1 -462592926927148e-29 0 .0015 462592926927148
e-29 -1 0 50 495 175 0 486 507 500 0 +-.0511270317848301 -.002 .0501936710301249
 0 0 1 1 0 0 51 506 177 0 432 500 508 0 +-.0238759253567214 .0672511064281089 .0
576936710301249 -1 -462592926927148e-29 0 .0015 462592926927148e-29 -1 0 14 432
 159 509 ?0 510 428 5 506 -0 0 0 510 24 50 508 178 0 380 506 496 0 +.05387296821
51699 0 .0576936710301249 0 -1 0 0 0 -1 14 380 69 511 ?378 193 379 5 508 +0 0 37
8 193 24 51 496 179 0 394 508 487 0 +-.02387592535672145 .0822511064281089 .0576
936710301249 1 3491481338843135e-30 0 .0075 0 0 -1 14 394 54 512 ?182 391 393 5
 496 +0 0 182 391 24 81 1 512 1121 488 394 513 0 511 514 515 14 182 59 514 ?193
 394 179 5 19 -0 0 193 394 24 14 391 47 516 ?394 396 388 5 497 -0 0 394 396 24 8
1 1 516 1123 488 391 517 0 514 518 519 14 396 35 518 ?391 402 395 5 520 -0 0 391
 402 24 50 497 181 0 391 487 521 0 +-.0238759253567209 -.0677488935718911 .05019
36710301249 -2988599315887655e-62 925185853854297e-31 1 1 323026914369393e-45 0
 50 521 182 0 402 497 522 0 +.0538729682151699 .003 .0576936710301249 0 -1 0 0 0
 -1 14 402 25 523 ?396 499 401 5 521 -0 0 396 499 24 50 522 183 0 524 521 525 0
 +-.05312703178483 -.04150221285621785 .0501936710301249 -4256270054397945e-59 1
 1219044193948984e-44 1 0 3491481338843135e-30 14 524 119 526 ?527 481 528 5 522
 -0 0 527 481 24 50 525 184 0 384 522 529 0 +-.0288759253567212 .005 .0501936710
301249 0 0 -1 0 -1 0 14 384 87 530 ?18 531 382 5 525 +0 0 18 531 24 50 529 185 0
 478 525 520 0 +-.0531270317848305 .108497787143782 .0651936710301249 -103645105
4347576e-45 2968513801912495e-31 -1 -1 0 1036451054347576e-45 14 478 138 532 ?47
2 527 477 5 529 -0 0 472 527 24 50 520 186 0 396 529 19 0 +-.02687592535672145 .
0822511064281089 .0576936710301249 1 4256270054397945e-59 1219044193948984e-44 0
 1 -3491481338843135e-30 50 19 187 0 182 520 6 0 +-.02387592535672145 .082251106
4281089 .0651936710301249 -1036451054347576e-45 2968513801912495e-31 -1 -1 0 103
6451054347576e-45 81 1 532 1128 488 478 533 0 530 534 535 14 472 141 534 ?536 47
8 423 5 537 -0 0 536 478 24 14 527 129 538 ?478 524 539 5 540 +0 0 478 524 24 81
 1 538 1130 488 527 541 0 534 542 543 15 539 130 0 443 527 0 50 540 164 0 527 54
4 537 0 +-.0531270317848305 .108497787143782 .0576936710301249 1 425627005439794
5e-59 1219044193948984e-44 0 1 -3491481338843135e-30 51 544 163 0 400 505 540 0
 +-.0288759253567212 .005 .04143865139069235 0 0 1 .002 1 0 0 50 537 165 0 472 5
40 545 0 +-.0561270317848305 .108497787143782 .0576936710301249 1 42562700543979
45e-59 1219044193948984e-44 0 1 -3491481338843135e-30 51 545 166 0 481 537 546 0
 +-.0511270317848301 -.002 .0739486906695574 0 0 -1 .005 -1 0 0 14 481 116 542 ?
524 485 480 5 545 +0 0 524 485 24 50 546 167 0 547 545 548 0 +-.05312703178483 -
.03900221285621785 .0551936710301249 -4256270054397945e-59 1 1219044193948984e-4
4 1 0 3491481338843135e-30 14 547 154 549 ?510 550 551 5 546 -0 0 510 550 24 50
 548 168 0 510 546 552 0 +-.05312703178483 -.03900221285621785 .0631936710301249
 0 0 1 1 0 0 14 510 157 553 ?432 547 554 5 548 -0 0 432 547 24 50 552 169 0 531
 548 492 0 +-.0961270317848301 0 .0501936710301249 791930284471762e-63 855968864
172105e-47 1 1 -925185853854297e-31 0 14 531 83 555 ?384 378 556 5 552 -0 0 384
 378 24 51 492 170 0 485 552 557 0 +-.0511270317848301 -.002 .0739486906695574 0
 0 -1 .002 -1 0 0 50 557 171 0 193 492 558 0 +-.02387592535672145 .0822511064281
089 .0576936710301249 1 4256270054397945e-59 1219044193948984e-44 0 1 -349148133
8843135e-30 14 193 64 559 ?380 182 173 5 557 +0 0 380 182 24 50 558 172 0 536 55
7 560 0 +-.05312703178483 -.04150221285621785 .0501936710301249 -298859931588765
5e-62 925185853854297e-31 1 1 323026914369393e-45 0 14 536 149 561 ?550 472 562
 5 558 -0 0 550 472 24 50 560 173 0 550 558 507 0 +-.05312703178483 -.0415022128
5621785 .0551936710301249 0 0 -1 0 -1 0 14 550 151 563 ?547 536 564 5 560 -0 0 5
47 536 24 51 507 174 0 167 560 495 0 +-.0288759253567212 .005 .04143865139069235
 0 0 1 .005 1 0 0 14 167 95 565 ?400 18 162 5 507 +0 0 400 18 24 81 1 565 1138 4
88 167 566 0 563 567 568 14 400 97 567 ?486 167 399 5 544 -0 0 486 167 24 14 18
 91 569 ?167 384 188 5 6 +0 0 167 384 24 81 1 569 1140 488 18 409 0 567 570 571
 80 255 1 488 572 573 9000 1 1 1 1 1 1 1 1 0 FFFFTFTFFFFFFF1 81 1 409 494 33 18
 574 569 575 406 576 81 1 567 1139 488 400 577 0 565 569 578 81 1 570 1141 488 3
78 579 0 569 0 580 82 255 1 571 744489076 14 378 79 570 ?531 380 376 5 581 -0 0
 531 380 24 81 1 579 413 33 378 582 570 583 584 585 82 1 580 749469812 80 1 33 5
86 587 9000 0 0 0 0 3 6 0 0 0 TTTFTFTTTFFFFF3 81 1 582 412 588 378 589 579 590 5
91 592 81 1 583 410 33 20 590 431 312 579 593 81 1 584 416 33 499 591 502 579 57
7 594 84 255 3 585 30881 1 591 415 588 499 595 584 582 596 597 81 1 502 1118 488
 499 584 0 498 509 598 81 1 577 419 33 400 596 567 584 541 599 84 3 594 32181 1
 596 418 588 400 600 577 591 601 602 81 1 541 422 33 527 601 538 577 603 604 84
 2 599 2481 1 601 421 588 527 605 541 596 606 607 81 1 603 425 33 472 606 534 54
1 608 609 84 3 604 33781 1 606 424 588 472 610 603 601 611 612 81 1 534 1129 488
 472 603 0 532 538 613 81 1 608 428 33 481 611 542 603 614 615 84 3 609 54681 1
 611 427 588 481 616 608 606 617 618 81 1 542 1131 488 481 608 0 538 549 619 81
 1 614 431 33 547 617 549 608 620 621 84 3 615 61281 1 617 430 588 547 622 614 6
11 623 624 81 1 549 1132 488 547 614 0 542 553 625 81 1 620 434 33 510 623 553 6
14 626 627 84 3 621 62681 1 623 433 588 510 628 620 617 629 630 81 1 553 1133 48
8 510 620 0 549 555 631 81 1 626 437 33 531 629 555 620 632 633 84 3 627 63481 1
 629 436 588 531 634 626 623 635 636 81 1 555 1134 488 531 626 0 553 559 637 81
 1 632 440 33 485 635 490 626 638 639 84 3 633 49181 1 635 439 588 485 640 632 6
29 641 642 81 1 490 1115 488 485 632 0 484 493 643 81 1 638 443 33 193 641 559 6
32 644 645 84 3 639 12081 1 641 442 588 193 646 638 635 647 648 81 1 559 1135 48
8 193 638 0 555 561 649 81 1 644 446 33 536 647 561 638 650 651 84 2 645 6681 1
 647 445 588 536 652 644 641 653 654 81 1 561 1136 488 536 644 0 559 563 655 81
 1 650 449 33 550 653 563 644 566 656 84 3 651 64081 1 653 448 588 550 657 650 6
47 658 659 81 1 563 1137 488 550 650 0 561 565 660 81 1 566 452 33 167 658 565 6
50 661 662 84 3 656 78481 1 658 451 588 167 663 566 653 664 665 81 1 661 455 33
 486 664 493 566 501 666 84 3 662 25981 1 664 454 588 486 667 661 658 668 669 81
 1 493 1116 488 486 661 0 490 498 670 81 1 501 458 33 16 668 498 661 671 672 84
 3 666 20481 1 668 457 588 16 673 501 664 674 675 81 1 671 461 33 432 674 509 50
1 676 677 84 3 672 45581 1 674 460 588 432 678 671 668 679 680 81 1 509 1119 488
 432 671 0 502 511 681 81 1 676 464 33 380 679 511 671 513 682 84 3 677 35981 1
 679 463 588 380 683 676 674 684 685 81 1 511 1120 488 380 676 0 509 512 686 81
 1 513 467 33 394 684 512 676 489 687 84 3 682 16481 1 684 466 588 394 688 513 6
79 689 690 81 1 489 470 33 483 689 484 513 517 691 84 3 687 15581 1 689 469 588
 483 692 489 684 693 694 81 1 517 473 33 391 693 516 489 695 696 84 3 691 37881
 1 693 472 588 391 697 517 689 698 699 81 1 695 476 33 402 698 523 517 700 701 8
4 3 696 57581 1 698 475 588 402 702 695 693 703 704 81 1 523 1125 488 402 695 0
 518 526 705 81 1 700 479 33 524 703 526 695 706 707 84 3 701 67581 1 703 478 58
8 524 708 700 698 709 710 81 1 526 1126 488 524 700 0 523 530 711 81 1 706 482 3
3 384 709 530 700 533 712 84 2 707 3681 1 709 481 588 384 713 706 703 714 715 81
 1 530 1127 488 384 706 0 526 532 716 81 1 533 485 33 478 714 532 706 717 718 84
 3 712 46581 1 714 484 588 478 719 533 709 720 721 81 1 717 488 33 396 720 518 5
33 575 722 84 3 718 18481 1 720 487 588 396 723 717 714 724 725 81 1 518 1124 48
8 396 717 0 516 523 726 81 1 575 491 33 182 724 514 717 409 727 84 3 722 19681 1
 724 490 588 182 728 575 720 574 729 81 1 514 1122 488 182 575 0 512 516 730 84
 3 727 23082 1 730 741736564 80 1 588 731 732 8017 0 0 0 0 0 0 0 0 0 TTTTTTTTTTT
TTF3 81 1 728 489 206 182 0 724 723 733 734 81 1 574 493 588 18 733 409 724 408
 735 84 4 729 NONE81 1 733 492 206 18 0 574 728 25 736 81 1 408 495 588 81 0 406
 574 737 738 84 4 735 NONE81 1 737 497 588 44 0 410 408 739 740 84 4 738 NONE81
 1 410 498 33 44 737 0 406 415 741 81 1 739 499 588 80 0 415 737 742 743 84 4 74
0 NONE81 1 415 500 33 80 739 0 410 417 744 81 1 742 501 588 97 0 417 739 421 745
 84 4 743 NONE81 1 417 502 33 97 742 0 415 419 746 81 1 421 503 588 147 0 419 74
2 425 747 84 4 745 NONE81 1 425 505 588 48 0 35 421 34 748 84 4 747 NONE81 1 34
 507 588 11 0 29 425 749 750 84 4 748 NONE81 1 749 509 588 50 0 36 34 751 752 84
 4 750 NONE81 1 36 510 33 50 749 0 29 57 753 81 1 751 511 588 55 0 57 749 754 75
5 84 4 752 NONE81 1 57 512 33 55 751 0 36 63 756 81 1 754 513 588 61 0 63 751 75
7 758 84 4 755 NONE81 1 63 514 33 61 754 0 57 68 759 81 1 757 515 588 53 0 68 75
4 760 761 84 4 758 NONE81 1 68 516 33 53 757 0 63 72 762 81 1 760 517 588 70 0 7
2 757 763 764 84 4 761 NONE81 1 72 518 33 70 760 0 68 78 765 81 1 763 519 588 76
 0 78 760 766 767 84 4 764 NONE81 1 78 520 33 76 763 0 72 84 768 81 1 766 521 58
8 82 0 84 763 769 770 84 4 767 NONE81 1 84 522 33 82 766 0 78 89 771 81 1 769 52
3 588 87 0 89 766 772 773 84 4 770 NONE81 1 89 524 33 87 769 0 84 95 774 81 1 77
2 525 588 93 0 95 769 775 776 84 4 773 NONE81 1 95 526 33 93 772 0 89 100 777 81
 1 775 527 588 86 0 100 772 778 779 84 4 776 NONE81 1 100 528 33 86 775 0 95 103
 780 81 1 778 529 588 75 0 103 775 781 782 84 4 779 NONE81 1 103 530 33 75 778 0
 100 106 783 81 1 781 531 588 92 0 106 778 784 785 84 4 782 NONE81 1 106 532 33
 92 781 0 103 110 786 81 1 784 533 588 108 0 110 781 787 788 84 4 785 NONE81 1 1
10 534 33 108 784 0 106 114 789 81 1 787 535 588 65 0 114 784 790 791 84 4 788 N
ONE81 1 114 536 33 65 787 0 110 118 792 81 1 790 537 588 91 0 118 787 793 794 84
 4 791 NONE81 1 118 538 33 91 790 0 114 121 795 81 1 793 539 588 116 0 121 790 7
96 797 84 4 794 NONE81 1 121 540 33 116 793 0 118 125 798 81 1 796 541 588 123 0
 125 793 799 800 84 4 797 NONE81 1 125 542 33 123 796 0 121 129 801 81 1 799 543
 588 98 0 129 796 802 803 84 4 800 NONE81 1 129 544 33 98 799 0 125 132 804 81 1
 802 545 588 66 0 132 799 805 806 84 4 803 NONE81 1 132 546 33 66 802 0 129 135
 807 81 1 805 547 588 59 0 135 802 808 809 84 4 806 NONE81 1 135 548 33 59 805 0
 132 138 810 81 1 808 549 588 112 0 138 805 811 812 84 4 809 NONE81 1 138 550 33
 112 808 0 135 141 813 81 1 811 551 588 54 0 141 808 814 815 84 4 812 NONE81 1 1
41 552 33 54 811 0 138 145 816 81 1 814 553 588 143 0 145 811 817 818 84 4 815 N
ONE81 1 145 554 33 143 814 0 141 149 819 81 1 817 555 588 74 0 149 814 820 821 8
4 4 818 NONE81 1 149 556 33 74 817 0 145 42 822 81 1 820 557 588 31 0 42 817 823
 824 84 4 821 NONE81 1 42 558 33 31 820 0 149 153 825 81 1 823 559 588 127 0 153
 820 826 827 84 4 824 NONE81 1 153 560 33 127 823 0 42 155 828 81 1 826 561 588
 148 0 155 823 159 829 84 4 827 NONE81 1 155 562 33 148 826 0 153 157 830 81 1 1
59 563 588 60 0 157 826 831 832 84 4 829 NONE81 1 831 565 588 22 0 160 159 833 8
34 84 4 832 NONE18 22 103 160 283 75 91 8 ?1 81 1 160 566 33 22 831 0 157 13 835
 81 1 833 632 588 1 836 837 831 0 838 84 4 834 NONE81 1 836 569 839 1 840 833 0
 0 841 81 1 837 633 842 1 833 13 0 0 843 84 12 838 Cut-Extrude280 1 842 33 844 9
000 0 0 0 0 3 5 0 0 0 TFTFTFTFFFFFFF3 81 1 13 634 33 1 837 2 160 0 845 84 8 843
 SIDEARM284 3 845 69979 255 22 844 ATTRIB_XPARASOLID_NAME80 1 839 206 846 8040 0
 0 0 0 3 5 0 0 0 TTTFFFFFFFFFFF2 81 1 840 568 847 1 848 836 0 0 849 83 255 3 841
 .792156875133514 .819607853889465 .933333337306976 80 1 847 850 851 9000 0 0 0
 0 3 5 0 0 0 TTTFTFTTFFFFFF3 81 1 848 567 850 1 0 840 0 0 852 84 4 849 NONE80 1
 850 842 853 9000 0 0 0 0 3 5 0 0 0 FTTFTFTTFFFFFF1 82 1 852 -1 79 23 853 ATTRIB
_XPARASOLID_LAYER79 26 851 ATTRIB_XGENERIC_LAYER_NAME79 17 846 SDL/TYSA_COLOUR_2
84 3 835 69517 283 0 562 371 482 22 104 280 0 854 +15 562 150 0 482 536 0 17 371
 0 562 855 283 148 856 285 0 0 +17 482 0 562 283 855 75 288 284 0 0 -17 104 0 49
4 278 857 75 283 280 0 470 -17 854 0 325 257 270 22 451 440 0 857 -15 325 114 0
 73 485 0 17 257 0 325 73 854 86 857 254 0 0 +17 270 0 325 854 73 87 318 258 0 4
48 +17 451 0 539 479 856 87 854 440 0 270 +17 857 0 494 104 458 22 257 254 0 856
 -15 494 100 0 104 486 0 17 458 0 494 857 278 86 79 279 0 381 +17 856 0 539 451
 156 22 371 285 0 0 -17 156 0 539 856 443 148 416 214 0 465 -17 443 0 539 156 13
9 80 858 332 0 0 +17 416 0 504 223 465 80 156 214 0 859 +16 214 24 860 ?416 224
 263 212 0 0 1 17 465 0 504 416 146 148 855 224 0 371 +15 504 16 0 223 499 0 17
 146 0 504 465 223 143 420 367 0 855 -17 855 0 562 482 371 143 465 224 0 288 -17
 288 0 423 420 470 143 482 284 0 0 +17 223 0 504 146 416 147 859 220 0 348 +17 8
59 0 564 858 348 80 223 220 0 443 -17 348 0 564 859 228 147 424 229 0 0 +15 564
 152 0 348 550 0 17 228 0 564 348 858 127 861 225 0 0 +17 424 0 423 862 420 127
 348 229 0 228 -17 862 0 423 474 424 123 154 230 0 252 -17 474 0 423 96 862 98 1
26 253 0 0 -17 154 0 551 861 252 127 862 230 0 424 +17 252 0 551 154 111 123 863
 249 0 0 +15 551 155 0 154 547 0 17 111 0 551 252 861 108 139 357 0 439 -17 863
 0 554 864 126 108 252 249 0 0 -15 554 158 0 126 510 0 17 864 0 554 130 863 92 4
39 360 0 0 -17 126 0 554 863 130 123 474 253 0 862 +17 130 0 554 126 864 98 107
 239 0 475 +17 107 0 528 331 475 92 130 239 0 865 -17 475 0 528 107 476 98 96 36
5 0 474 -15 528 120 0 107 524 0 17 476 0 528 475 331 93 418 304 0 471 -17 331 0
 528 476 107 97 865 275 0 479 +17 865 0 539 439 479 92 331 275 0 864 -17 479 0 5
39 865 451 97 448 303 0 0 -17 439 0 539 139 865 108 864 360 0 863 +17 139 0 539
 443 439 112 111 357 0 858 +17 858 0 564 228 859 112 443 332 0 861 -17 861 0 551
 111 154 112 228 225 0 0 -81 1 860 574 206 214 866 0 464 265 867 80 1 206 0 868
 8001 0 0 0 0 3 5 0 0 0 FFFFTFTFFFFFFF2 81 1 866 356 33 214 869 860 374 207 870
 81 1 464 573 206 224 871 0 222 860 872 81 1 265 575 206 263 873 0 860 874 875 8
3 3 867 .792156875133514 .819607853889465 .933333337306976 81 1 873 386 33 263 8
76 265 877 878 879 81 1 874 576 206 267 880 0 265 353 881 83 3 875 .792156875133
514 .819607853889465 .933333337306976 16 267 30 874 ?403 263 307 326 0 0 1 81 1
 880 314 33 267 882 874 434 323 883 81 1 353 577 206 307 884 0 874 305 885 83 3
 881 .792156875133514 .819607853889465 .933333337306976 81 1 884 336 33 307 886
 353 887 888 889 81 1 305 578 206 233 890 0 353 232 891 83 3 885 .79215687513351
4 .819607853889465 .933333337306976 81 1 890 406 33 233 892 305 893 312 894 81 1
 232 579 206 231 895 0 305 356 896 83 3 891 .792156875133514 .819607853889465 .9
33333337306976 81 1 895 368 33 231 897 232 898 899 900 81 1 356 580 206 186 888
 0 232 247 901 83 3 896 .792156875133514 .819607853889465 .933333337306976 81 1
 888 338 33 186 902 356 884 903 904 81 1 247 581 206 245 905 0 356 298 906 83 3
 901 .792156875133514 .819607853889465 .933333337306976 81 1 905 378 33 245 907
 247 908 909 910 81 1 298 582 206 248 911 0 247 340 912 83 3 906 .79215687513351
4 .819607853889465 .933333337306976 81 1 911 402 33 248 913 298 914 893 915 81 1
 340 583 206 218 916 0 298 217 917 83 3 912 .792156875133514 .819607853889465 .9
33333337306976 81 1 916 326 33 218 918 340 919 920 921 81 1 217 584 206 216 922
 0 340 343 923 83 3 917 .792156875133514 .819607853889465 .933333337306976 81 1
 922 360 33 216 924 217 207 925 926 81 1 343 585 206 196 920 0 217 198 927 83 3
 923 .792156875133514 .819607853889465 .933333337306976 81 1 920 328 33 196 928
 343 916 929 930 81 1 198 586 206 184 925 0 343 433 931 83 3 927 .79215687513351
4 .819607853889465 .933333337306976 81 1 925 362 33 184 932 198 922 933 934 83 3
 931 .792156875133514 .819607853889465 .933333337306976 81 1 932 361 588 184 0 9
25 924 935 936 81 1 933 364 33 220 935 222 925 898 937 84 3 934 67481 1 935 363
 588 220 0 933 932 938 939 81 1 222 572 206 220 933 0 291 464 940 81 1 898 366 3
3 225 938 227 933 895 941 84 3 937 21281 1 938 365 588 225 0 898 935 897 942 81
 1 227 625 206 225 898 0 347 455 943 84 2 941 8181 1 347 624 206 229 944 0 370 2
27 945 81 1 455 626 206 230 946 0 227 251 947 83 3 943 .792156875133514 .8196078
53889465 .933333337306976 81 1 946 298 33 230 948 455 949 950 951 81 1 251 627 2
06 249 909 0 455 337 952 83 3 947 .792156875133514 .819607853889465 .93333333730
6976 81 1 909 380 33 249 953 251 905 954 955 81 1 337 628 206 253 956 0 251 372
 957 83 3 952 .792156875133514 .819607853889465 .933333337306976 81 1 956 322 33
 253 958 337 959 919 960 81 1 372 629 206 239 961 0 337 237 962 83 3 957 .792156
875133514 .819607853889465 .933333337306976 81 1 961 352 33 239 963 372 964 374
 965 81 1 237 630 206 235 966 0 372 350 967 83 3 962 .792156875133514 .819607853
889465 .933333337306976 81 1 966 374 33 235 968 237 969 908 970 81 1 350 631 206
 240 887 0 237 0 971 83 3 967 .792156875133514 .819607853889465 .933333337306976
 81 1 887 334 33 240 972 350 944 884 973 83 3 971 .792156875133514 .819607853889
465 .933333337306976 81 1 972 333 588 240 0 887 974 886 975 81 1 944 332 33 229
 974 347 929 887 976 84 2 973 6081 1 974 331 588 229 0 944 977 972 978 81 1 929
 330 33 191 977 345 920 944 979 84 3 976 35581 1 977 329 588 191 0 929 928 974 9
80 81 1 345 596 206 191 929 0 295 190 981 84 3 979 21981 1 295 595 206 293 914 0
 445 345 982 81 1 190 597 206 177 969 0 345 176 983 83 3 981 .792156875133514 .8
19607853889465 .933333337306976 81 1 969 372 33 177 984 190 899 966 985 81 1 176
 598 206 165 986 0 190 204 987 83 3 983 .792156875133514 .819607853889465 .93333
3337306976 81 1 986 348 33 165 988 176 989 964 990 83 3 987 .792156875133514 .81
9607853889465 .933333337306976 81 1 988 347 588 165 0 986 991 992 993 81 1 989 3
46 33 365 991 366 994 986 995 81 1 964 350 33 285 992 370 986 961 996 84 3 990 6
8581 1 992 349 588 285 0 964 988 963 997 81 1 370 623 206 285 964 0 282 347 998
 84 3 996 51881 1 282 622 206 280 999 0 287 370 1000 83 3 998 .792156875133514 .
819607853889465 .933333337306976 81 1 999 394 33 280 1001 282 1002 1003 1004 81
 1 287 621 206 284 1003 0 466 282 1005 83 3 1000 .792156875133514 .8196078538894
65 .933333337306976 81 1 1003 396 33 284 1006 287 999 1007 1008 83 3 1005 .79215
6875133514 .819607853889465 .933333337306976 81 1 1006 395 588 284 0 1003 1001 1
009 1010 81 1 1007 398 33 27 1009 291 1003 914 1011 84 3 1008 38281 1 1009 397 5
88 27 0 1007 1006 1012 1013 81 1 291 571 206 27 1007 0 25 222 1014 81 1 914 400
 33 293 1012 295 1007 911 1015 84 3 1011 34881 1 1012 399 588 293 0 914 1009 913
 1016 84 3 1015 69381 1 913 401 588 248 0 911 1012 1017 1018 84 4 1016 NONE81 1
 1017 403 588 300 0 893 913 892 1019 84 4 1018 NONE81 1 893 404 33 300 1017 302
 911 890 1020 81 1 892 405 588 233 0 890 1017 1021 1022 84 4 1019 NONE81 1 1021
 407 588 308 0 312 892 590 1023 84 4 1022 NONE81 1 312 408 33 308 1021 309 890 5
83 1024 81 1 590 409 588 20 0 583 1021 582 1025 84 4 1023 NONE84 4 1025 NONE84 2
 1024 1681 1 302 616 206 300 893 0 447 453 1026 84 3 1020 73781 1 447 615 206 30
3 1027 0 359 302 1028 81 1 453 617 206 304 950 0 302 462 1029 83 3 1026 .7921568
75133514 .819607853889465 .933333337306976 81 1 950 300 33 304 1030 453 946 1031
 1032 81 1 462 618 206 367 1033 0 453 366 1034 83 3 1029 .792156875133514 .81960
7853889465 .933333337306976 81 1 1033 292 33 367 1035 462 871 1036 1037 81 1 366
 619 206 365 989 0 462 466 1038 83 3 1034 .792156875133514 .819607853889465 .933
333337306976 83 3 1038 .792156875133514 .819607853889465 .933333337306976 81 1 1
035 291 588 367 0 1033 1039 1040 1041 81 1 871 290 33 224 1039 464 468 1033 1042
 81 1 1036 294 33 363 1040 460 1033 949 1043 84 3 1037 31381 1 1040 293 588 363
 0 1036 1035 1044 1045 81 1 460 593 206 363 1036 0 361 445 1046 81 1 949 296 33
 279 1044 457 1036 946 1047 84 3 1043 50481 1 1044 295 588 279 0 949 1040 948 10
48 81 1 457 603 206 279 949 0 277 313 1049 84 3 1047 52881 1 277 602 206 262 100
2 0 261 457 1050 81 1 313 604 206 311 919 0 457 309 1051 83 3 1049 .792156875133
514 .819607853889465 .933333337306976 81 1 919 324 33 311 1052 313 956 916 1053
 83 3 1051 .792156875133514 .819607853889465 .933333337306976 81 1 1052 323 588
 311 0 919 958 918 1054 84 3 1053 27981 1 958 321 588 253 0 956 1055 1052 1056 8
1 1 918 325 588 218 0 916 1052 928 1057 84 4 1054 NONE81 1 928 327 588 196 0 920
 918 977 1058 84 4 1057 NONE84 4 1058 NONE81 1 1055 319 588 333 0 959 1059 958 1
060 84 4 1056 NONE81 1 959 320 33 333 1055 335 1061 956 1062 81 1 1059 317 588 2
75 0 1061 1063 1055 1064 84 4 1060 NONE81 1 1061 318 33 275 1059 330 323 959 106
5 81 1 1063 315 588 271 0 323 882 1059 1066 84 4 1064 NONE81 1 323 316 33 271 10
63 314 880 1061 1067 81 1 882 313 588 267 0 880 1068 1063 1069 84 4 1066 NONE81
 1 1068 311 588 199 0 434 1070 882 1071 84 4 1069 NONE81 1 434 312 33 199 1068 4
33 1072 880 1073 81 1 1070 309 588 360 0 1072 1074 1068 1075 84 4 1071 NONE81 1
 1072 310 33 360 1070 438 1076 434 1077 81 1 1074 307 588 332 0 1076 1078 1070 1
079 84 4 1075 NONE81 1 1076 308 33 332 1074 442 1080 1072 1081 81 1 1078 305 588
 296 0 1080 1082 1074 1083 84 4 1079 NONE81 1 1080 306 33 296 1078 445 1027 1076
 1084 81 1 1082 303 588 303 0 1027 1085 1078 1086 84 4 1083 NONE81 1 1027 304 33
 303 1082 447 1031 1080 1087 81 1 1085 301 588 440 0 1031 1030 1082 1088 84 4 10
86 NONE81 1 1031 302 33 440 1085 450 950 1027 1089 81 1 1030 299 588 304 0 950 9
48 1085 1090 84 4 1088 NONE81 1 948 297 588 230 0 946 1044 1030 1091 84 4 1090 N
ONE84 4 1091 NONE81 1 450 612 206 440 1031 0 442 438 1092 84 3 1089 12781 1 442
 611 206 332 1076 0 330 450 1093 81 1 438 613 206 360 1072 0 450 359 1094 83 3 1
092 .792156875133514 .819607853889465 .933333337306976 81 1 359 614 206 357 903
 0 438 447 1095 83 3 1094 .792156875133514 .819607853889465 .933333337306976 81
 1 903 340 33 357 1096 359 888 1097 1098 83 3 1095 .792156875133514 .81960785388
9465 .933333337306976 81 1 1096 339 588 357 0 903 902 1099 1100 81 1 1097 342 33
 244 1099 361 903 994 1101 84 3 1098 54481 1 1099 341 588 244 0 1097 1096 1102 1
103 81 1 361 592 206 244 1097 0 242 460 1104 81 1 994 344 33 172 1102 208 1097 9
89 1105 84 3 1101 64781 1 1102 343 588 172 0 994 1099 991 1106 81 1 208 600 206
 172 994 0 204 261 1107 84 3 1105 76081 1 261 601 206 210 877 0 208 277 1108 83
 3 1107 .792156875133514 .819607853889465 .933333337306976 81 1 877 384 33 210 1
109 261 954 873 1110 83 3 1108 .792156875133514 .819607853889465 .93333333730697
6 81 1 1109 383 588 210 0 877 1111 876 1112 81 1 954 382 33 254 1111 256 909 877
 1113 84 3 1110 44081 1 1111 381 588 254 0 954 953 1109 1114 81 1 256 608 206 25
4 954 0 269 273 1115 84 3 1113 64281 1 269 607 206 258 878 0 314 256 1116 81 1 2
73 609 206 259 1117 0 256 330 1118 83 3 1115 .792156875133514 .819607853889465 .
933333337306976 81 1 1117 390 33 259 1119 273 878 1002 1120 81 1 330 610 206 275
 1061 0 273 442 1121 83 3 1118 .792156875133514 .819607853889465 .93333333730697
6 83 3 1121 .792156875133514 .819607853889465 .933333337306976 81 1 1119 389 588
 259 0 1117 1122 1123 1124 81 1 878 388 33 258 1122 269 873 1117 1125 81 1 1002
 392 33 262 1123 277 1117 999 1126 84 3 1120 19081 1 1123 391 588 262 0 1002 111
9 1001 1127 84 3 1126 79281 1 1001 393 588 280 0 999 1123 1006 1128 84 4 1127 NO
NE84 4 1128 NONE81 1 1122 387 588 258 0 878 876 1119 1129 84 3 1125 52581 1 876
 385 588 263 0 873 1109 1122 1130 84 4 1129 NONE84 4 1130 NONE84 4 1124 NONE83 3
 1116 .792156875133514 .819607853889465 .933333337306976 81 1 953 379 588 249 0
 909 907 1111 1131 84 4 1114 NONE81 1 907 377 588 245 0 905 1132 953 1133 84 4 1
131 NONE81 1 1132 375 588 202 0 908 968 907 1134 84 4 1133 NONE81 1 908 376 33 2
02 1132 242 966 905 1135 81 1 968 373 588 235 0 966 984 1132 1136 84 4 1134 NONE
81 1 984 371 588 177 0 969 1137 968 1138 84 4 1136 NONE81 1 1137 369 588 10 0 89
9 897 984 1139 84 4 1138 NONE81 1 899 370 33 10 1137 25 895 969 1140 81 1 897 36
7 588 231 0 895 938 1137 1141 84 4 1139 NONE84 4 1141 NONE81 1 25 570 206 10 899
 0 733 291 1142 84 3 1140 61783 3 1142 .792156875133514 .819607853889465 .933333
337306976 81 1 242 591 206 202 908 0 373 361 1143 84 3 1135 74283 3 1143 .792156
875133514 .819607853889465 .933333337306976 84 4 1112 NONE81 1 991 345 588 365 0
 989 1102 988 1144 84 4 1106 NONE84 4 1144 NONE83 3 1104 .792156875133514 .81960
7853889465 .933333337306976 84 4 1103 NONE81 1 902 337 588 186 0 888 886 1096 11
45 84 4 1100 NONE81 1 886 335 588 307 0 884 972 902 1146 84 4 1145 NONE84 4 1146
 NONE83 3 1093 .792156875133514 .819607853889465 .933333337306976 84 3 1087 1018
1 1 445 594 206 296 1080 0 460 295 1147 84 3 1084 39283 3 1147 .792156875133514
 .819607853889465 .933333337306976 84 3 1081 67984 2 1077 5084 3 1073 54184 2 10
67 9384 3 1065 44581 1 335 589 206 333 959 0 431 373 1148 84 3 1062 42981 1 431
 588 206 20 583 0 433 335 1149 83 3 1148 .792156875133514 .819607853889465 .9333
33337306976 83 3 1149 .792156875133514 .819607853889465 .933333337306976 83 3 10
50 .792156875133514 .819607853889465 .933333337306976 84 4 1048 NONE83 3 1046 .7
92156875133514 .819607853889465 .933333337306976 84 4 1045 NONE81 1 1039 289 588
 224 0 871 1150 1035 1151 81 1 468 288 33 289 1150 466 0 871 1152 84 3 1042 5868
1 1 1150 287 588 289 0 468 0 1039 1153 84 3 1152 32584 4 1153 NONE84 4 1151 NONE
84 4 1041 NONE84 3 1032 53783 3 1028 .792156875133514 .819607853889465 .93333333
7306976 83 3 1014 .792156875133514 .819607853889465 .933333337306976 84 4 1013 N
ONE84 4 1010 NONE84 3 1004 72481 1 963 351 588 239 0 961 992 1154 1155 84 4 997
 NONE81 1 1154 353 588 243 0 374 963 869 1156 84 4 1155 NONE81 1 374 354 33 243
 1154 373 961 866 1157 81 1 869 355 588 214 0 866 1154 1158 1159 84 4 1156 NONE8
1 1 1158 357 588 170 0 207 869 924 1160 84 4 1159 NONE81 1 207 358 33 170 1158 2
04 866 922 1161 81 1 924 359 588 216 0 922 1158 932 1162 84 4 1160 NONE84 4 1162
 NONE84 3 1161 21484 3 1157 10984 3 995 30184 4 993 NONE84 3 985 41283 3 982 .79
2156875133514 .819607853889465 .933333337306976 84 4 980 NONE84 4 978 NONE84 4 9
75 NONE84 3 970 42784 3 965 76884 3 960 35884 3 955 24384 3 951 25083 3 945 .792
156875133514 .819607853889465 .933333337306976 84 4 942 NONE83 3 940 .7921568751
33514 .819607853889465 .933333337306976 84 4 939 NONE84 4 936 NONE84 3 930 27184
 3 926 78684 3 921 65784 3 915 50884 3 910 31784 3 904 32784 3 900 39884 3 894 1
7984 3 889 75284 3 883 23584 3 879 21883 3 872 .792156875133514 .819607853889465
 .933333337306976 84 3 870 13079 15 868 SDL/TYSA_COLOUR17 278 0 494 458 104 76 4
73 262 0 0 +17 79 0 556 386 381 76 458 279 0 404 -17 381 0 556 79 362 86 85 363
 0 257 +15 556 84 0 79 531 0 17 362 0 556 381 386 82 383 244 0 168 +17 386 0 556
 362 79 65 266 263 0 387 -17 404 0 480 473 405 76 403 267 0 266 -17 318 0 316 31
0 90 70 270 258 0 0 -84 3 830 43784 3 828 78284 3 825 18884 3 822 46084 3 819 24
884 3 816 59184 3 813 57484 3 810 70984 3 807 28784 3 804 26784 3 801 13884 3 79
8 28484 3 795 55084 3 792 77984 3 789 79984 3 786 17784 3 783 52484 3 780 27884
 2 777 6584 3 774 14584 3 771 52184 2 768 3984 3 765 38084 3 762 49384 3 759 471
84 2 756 7684 3 753 35484 3 746 45284 3 744 71484 3 741 30083 3 736 .79215686274
5098 .819607843137255 .933333333333333 81 1 723 486 206 396 0 720 719 728 1163 8
3 3 734 .792156862745098 .819607843137255 .933333333333333 81 1 719 483 206 478
 0 714 713 723 1164 83 3 1163 .792156862745098 .819607843137255 .933333333333333
 81 1 713 480 206 384 0 709 708 719 1165 83 3 1164 .792156862745098 .81960784313
7255 .933333333333333 81 1 708 477 206 524 0 703 702 713 1166 83 3 1165 .7921568
62745098 .819607843137255 .933333333333333 81 1 702 474 206 402 0 698 697 708 11
67 83 3 1166 .792156862745098 .819607843137255 .933333333333333 81 1 697 471 206
 391 0 693 692 702 1168 83 3 1167 .792156862745098 .819607843137255 .93333333333
3333 81 1 692 468 206 483 0 689 688 697 1169 83 3 1168 .792156862745098 .8196078
43137255 .933333333333333 81 1 688 465 206 394 0 684 683 692 1170 83 3 1169 .792
156862745098 .819607843137255 .933333333333333 81 1 683 462 206 380 0 679 678 68
8 1171 83 3 1170 .792156862745098 .819607843137255 .933333333333333 81 1 678 459
 206 432 0 674 673 683 1172 83 3 1171 .792156862745098 .819607843137255 .9333333
33333333 81 1 673 456 206 16 0 668 667 678 1173 83 3 1172 .792156862745098 .8196
07843137255 .933333333333333 81 1 667 453 206 486 0 664 663 673 1174 83 3 1173 .
792156862745098 .819607843137255 .933333333333333 81 1 663 450 206 167 0 658 657
 667 1175 83 3 1174 .792156862745098 .819607843137255 .933333333333333 81 1 657
 447 206 550 0 653 652 663 1176 83 3 1175 .792156862745098 .819607843137255 .933
333333333333 81 1 652 444 206 536 0 647 646 657 1177 83 3 1176 .792156862745098
 .819607843137255 .933333333333333 81 1 646 441 206 193 0 641 640 652 1178 83 3
 1177 .792156862745098 .819607843137255 .933333333333333 81 1 640 438 206 485 0
 635 634 646 1179 83 3 1178 .792156862745098 .819607843137255 .933333333333333 8
1 1 634 435 206 531 0 629 628 640 1180 83 3 1179 .792156862745098 .8196078431372
55 .933333333333333 81 1 628 432 206 510 0 623 622 634 1181 83 3 1180 .792156862
745098 .819607843137255 .933333333333333 81 1 622 429 206 547 0 617 616 628 1182
 83 3 1181 .792156862745098 .819607843137255 .933333333333333 81 1 616 426 206 4
81 0 611 610 622 1183 83 3 1182 .792156862745098 .819607843137255 .9333333333333
33 81 1 610 423 206 472 0 606 605 616 1184 83 3 1183 .792156862745098 .819607843
137255 .933333333333333 81 1 605 420 206 527 0 601 600 610 1185 83 3 1184 .79215
6862745098 .819607843137255 .933333333333333 81 1 600 417 206 400 0 596 595 605
 1186 83 3 1185 .792156862745098 .819607843137255 .933333333333333 81 1 595 414
 206 499 0 591 589 600 1187 83 3 1186 .792156862745098 .819607843137255 .9333333
33333333 81 1 589 411 206 378 0 582 0 595 1188 83 3 1187 .792156862745098 .81960
7843137255 .933333333333333 83 3 1188 .792156862745098 .819607843137255 .9333333
33333333 79 13 732 SDL/TYSA_NAME82 1 726 741933172 84 4 725 NONE84 4 721 NONE82
 1 716 742391924 84 4 715 NONE82 1 711 742260852 84 4 710 NONE82 1 705 742129780
 84 4 704 NONE84 4 699 NONE84 4 694 NONE84 4 690 NONE82 1 686 741474420 84 4 685
 NONE82 1 681 741343348 84 4 680 NONE84 4 675 NONE82 1 670 740753524 84 4 669 NO
NE84 4 665 NONE82 1 660 744161396 84 4 659 NONE82 1 655 744030324 84 4 654 NONE8
2 1 649 743899252 84 4 648 NONE82 1 643 740687988 84 4 642 NONE82 1 637 74370264
4 84 4 636 NONE82 1 631 743571572 84 4 630 NONE82 1 625 743440500 84 4 624 NONE8
2 1 619 743309428 84 4 618 NONE82 1 613 742785140 84 4 612 NONE84 4 607 NONE84 4
 602 NONE82 1 598 741081204 84 4 597 NONE84 2 593 7084 4 592 NONE79 20 587 ATTRI
B_XPARASOLID_ID50 581 161 0 378 0 505 0 +.0538729682151699 0 .0651936710301249 2
968513801912495e-31 0 -1 0 -1 0 50 505 162 0 499 581 544 0 +-.05312703178483 -.0
4150221285621785 .0501936710301249 -4256270054397945e-59 1 1219044193948984e-44
 1 0 3491481338843135e-30 82 1 578 744423540 84 3 576 69079 14 573 SWEntUnchange
d82 1 568 744292468 82 1 543 742850676 82 1 535 742522996 82 1 519 741802100 82
 1 515 741605492 82 1 503 740950132 82 1 491 740556916 83 3 469 .792156875133514
 .819607853889465 .933333337306976 83 3 435 .792156875133514 .819607853889465 .9
33333337306976 17 351 0 428 41 238 31 427 240 0 0 +17 26 0 38 292 30 31 41 10 0
 351 +17 427 0 397 43 43 44 351 240 0 0 -15 397 45 0 427 396 0 17 43 0 397 427 4
27 31 292 27 0 26 -84 3 426 45684 3 422 58484 3 411 13217 101 0 379 85 377 86 73
 271 0 458 -83 3 375 .792156875133514 .819607853889465 .933333337306976 83 3 324
 .792156875133514 .819607853889465 .933333337306976 83 3 315 .792156875133514 .8
19607853889465 .933333337306976 83 3 209 .792156875133514 .819607853889465 .9333
33337306976 84 3 161 22284 3 37 39119 17 1 0 1 0 9 5 S0 74 4 CI16 index_map_offs
et0 0 1 dCCZ20 15 9 0 0 833 13 350 848 840 836 837 570 2 0 0 0 0 0 0 0 0 0 0 0 8
0 2 12 1189 1190 8004 0 0 0 0 3 5 0 0 0 FFTFFFFFFFFFFF2 3 83 1 14 1 79 16 1190 S
DL/TYSA_DENSITY1 0 
