**ABCDEFGHIJKLMNOPQRSTUVWXYZabcdefghijklmnopqrstuvwxyz**************************
**PARASOLID !"#$%&'()*+,-./:;<=>?@[\]^_`{|}~0123456789**************************
**PART1;
MC=AMD64;
MC_MODEL=AMD64 Family 23 Model 104 Stepping 1, AuthenticAMD;
MC_ID=unknown;
OS=Windows_NT;
OS_RELEASE=unknown;
FRU=Parasolid Version 30.0, build 298, 12-15-2017;
APPL=SOLIDWORKS 2018-2018134;
SITE=;
USER=unknown;
FORMAT=text;
GUISE=transmit;
KEY=SIDEARM1;
FILE=SIDEARM1.x_t;
DATE=Sun Nov 14 01:51:08 2021;
**PART2;
SCH=SCH_3000298_30000;
USFLD_SIZE=0;
**PART3;
**END_OF_HEADER*****************************************************************
T51 : TRANSMIT FILE created by modeller version 300029823 SCH_3000298_30000_1300
6205 0 12 33 CCCCCCI4 mesh1006 0 I8 polyline1008 0 CCCCCCCDI5 owner1040 0 CCCCCC
I13 boundary_mesh1006 0 I17 boundary_polyline1008 0 CCCA16 index_map_offset0 0 1
 dA9 index_map82 0 A17 node_id_index_map82 0 A20 schema_embedding_map82 0 A5 chi
ld12 0 A14 lowest_node_id0 0 1 dZ1 1141 2 3 0 0 0 0 0 0 1e3 1e-8 0 4 0 1 0 1 1 5
 6 7 8 0 0 9 10 11 0 0 0 0 0 0 81 255 2 2 1026 12 1 13 0 0 0 14 0 70 11 CI9 list
_type0 0 1 uI10 notransmit0 0 1 lCCCDCCDI12 finger_index0 0 1 dI12 finger_block1
012 0 CZ3 0 4 T1 0 0 9 20 1 15 15 13 255 5 4 0 1 0 16 0 0 17 0 51 255 6 188 0 18
 19 0 0 +.0722511064281086 -.0792511064281089 -.0980305926259119 1 -349148133884
3135e-30 0 .0075 0 0 1 30 255 7 286 0 20 21 0 0 +.04 .04450221285621785 -.105530
592625912 -3491481338843135e-30 -1 0 29 255 8 224 0 22 23 0 .0692511064281086 -.
0792511064281089 -.0905305926259119 19 8 CCCCCCCA5 owner12 0 Z9 2 0 1 17 0 24 V0
 16 255 10 10 25 ?26 0 27 28 0 0 1 18 255 11 8 29 30 0 31 32 ?1 81 1 29 558 33 1
1 34 0 35 36 37 17 255 30 0 38 26 39 11 40 41 0 42 -18 31 11 43 44 11 45 46 ?1 2
9 32 220 0 11 47 48 .0692511064281087 -.0642511064281089 -.0995305926259119 29 4
7 219 0 49 50 32 .045 .003 -.0905305926259119 29 48 221 0 51 32 52 .043 .005 -.0
905305926259119 18 51 105 36 53 54 55 48 ?1 29 52 222 0 56 48 23 .045 .003 -.105
530592625912 18 56 75 57 58 59 54 52 ?1 29 23 223 0 60 52 8 .0672511064281089 0
 -.0905305926259119 18 60 29 61 62 63 64 23 ?1 81 1 61 564 33 60 65 0 57 66 67 1
7 62 0 68 69 70 60 71 72 0 73 -18 63 33 74 71 75 60 76 ?1 18 64 38 77 78 60 79 8
0 ?1 81 1 77 524 33 64 81 0 82 83 84 17 78 0 85 86 87 64 88 89 0 90 -18 79 41 91
 92 64 93 94 ?1 29 80 203 0 64 95 96 .0692511064281089 -.002 -.0905305926259119
 29 95 202 0 97 98 80 .04 .04450221285621785 -.100530592625912 29 96 204 0 99 80
 100 .0722511064281086 -.0792511064281089 -.105530592625912 18 99 57 83 101 102
 103 96 ?1 29 100 205 0 102 96 104 .0722511064281089 -.002 -.0905305926259119 18
 102 50 105 106 107 99 100 ?1 29 104 206 0 108 100 109 .043 .04450221285621785 -
.0905305926259119 18 108 129 110 111 112 113 104 ?1 29 109 207 0 114 104 115 .04
3 .04200221285621785 -.100530592625912 18 114 134 116 117 113 118 109 ?1 29 115
 208 0 55 109 119 .04 .005 -.105530592625912 18 55 111 120 121 51 122 115 ?1 29
 119 209 0 123 115 124 .04 .04200221285621785 -.0925305926259119 18 123 146 125
 126 127 0 119 ?1 29 124 210 0 93 119 128 .0692511064281086 -.0792511064281089 -
.105530592625912 18 93 43 129 130 79 22 124 ?1 29 128 211 0 59 124 46 .067251106
4281089 .003 -.105530592625912 18 59 79 131 132 133 56 128 ?1 29 46 212 0 31 128
 134 .0722511064281087 -.0642511064281089 -.0995305926259119 29 134 213 0 75 46
 135 .045 0 -.105530592625912 18 75 31 136 137 138 63 134 ?1 29 135 214 0 138 13
4 139 .045 0 -.0905305926259119 18 138 28 140 141 97 75 135 ?1 29 139 215 0 107
 135 94 .0722511064281086 -.0792511064281089 -.0905305926259119 18 107 52 142 14
3 22 102 139 ?1 29 94 216 0 79 139 144 .0692511064281089 -.002 -.105530592625912
 29 144 217 0 133 94 50 .0672511064281089 .003 -.0905305926259119 18 133 77 145
 146 49 59 144 ?1 29 50 218 0 147 144 47 .0692511064281087 -.0642511064281089 -.
0965305926259119 18 147 9 148 39 45 149 50 ?1 81 1 148 554 33 147 150 0 145 35 1
51 17 39 0 38 30 152 147 153 154 0 40 -18 45 13 155 153 31 147 156 ?1 18 149 19
 157 158 147 159 160 ?1 81 1 157 516 33 149 161 0 162 163 164 17 158 0 165 166 1
67 149 168 169 0 170 +18 159 21 171 172 149 173 174 ?1 29 160 199 0 149 175 176
 .043 .04450221285621785 -.100530592625912 29 175 198 0 127 177 160 .04 .0420022
1285621785 -.100530592625912 29 176 200 0 112 160 98 .04 .04450221285621785 -.09
05305926259119 18 112 127 163 178 179 108 176 ?1 29 98 201 0 122 176 95 .043 .00
5 -.105530592625912 18 122 113 180 181 55 179 98 ?1 81 1 180 520 33 122 182 0 16
3 82 183 17 181 0 184 185 186 122 121 187 0 188 -18 179 124 189 190 122 112 191
 ?1 81 1 189 498 33 179 192 0 171 193 194 17 190 0 195 196 197 179 198 199 0 200
 -29 191 190 0 179 174 201 .04 .04450221285621785 -.0925305926259119 29 174 189
 0 159 0 191 .043 .04450221285621785 -.105530592625912 29 201 191 0 113 191 202
 .043 .04450221285621785 -.0925305926259119 18 113 125 193 198 108 114 201 ?1 29
 202 192 0 103 201 76 .0722511064281089 -.002000000000000025 -.105530592625912 1
8 103 65 203 204 99 49 202 ?1 29 76 193 0 63 202 156 .0672511064281089 0 -.10553
0592625912 29 156 194 0 45 76 205 .0722511064281087 -.0642511064281089 -.0965305
926259119 29 205 195 0 173 156 206 .04 .04450221285621785 -.105530592625912 18 1
73 23 207 208 159 97 205 ?1 29 206 196 0 54 205 177 .04 .005 -.0905305926259119
 18 54 104 209 210 56 51 206 ?1 29 177 197 0 118 206 175 .043 .04200221285621785
 -.0925305926259119 18 118 136 211 212 114 127 177 ?1 81 1 211 512 33 118 213 0
 209 162 214 17 212 0 215 216 198 118 217 218 0 219 +18 127 147 162 220 118 123
 175 ?1 81 1 162 514 33 127 221 0 211 157 222 17 220 0 223 224 225 127 226 227 0
 228 -15 255 223 154 0 224 229 0 17 224 0 223 230 220 114 231 232 0 0 +17 225 0
 223 220 230 97 170 233 0 226 -17 226 0 234 235 228 97 220 227 0 0 +16 227 148 2
36 ?226 237 20 238 0 0 1 17 228 0 234 226 126 127 239 237 0 231 +15 234 144 0 22
8 240 0 17 126 0 234 228 200 123 241 242 0 239 +17 239 0 243 244 231 123 228 237
 0 216 -16 237 145 245 ?228 246 227 247 0 0 1 17 231 0 243 239 117 127 224 232 0
 0 -15 243 157 0 244 248 0 17 117 0 243 231 244 114 219 249 0 166 +16 232 155 25
0 ?224 251 252 253 0 0 1 81 1 250 626 254 232 255 0 256 257 258 16 251 103 256 ?
53 259 232 260 0 0 1 16 252 133 257 ?230 232 261 262 0 0 1 30 253 227 0 232 238
 263 0 +.033 .0420022128562179 -.100530592625912 1 -3491481338843135e-30 0 30 23
8 226 0 227 264 253 0 +.04 .04450221285621785 -.100530592625912 3491481338843135
e-30 1 0 31 255 263 228 0 265 253 266 0 +.045 .005 -.105530592625912 0 0 -1 1 0
 0 .002 16 265 114 267 ?268 269 270 263 0 0 1 30 266 229 0 271 263 272 0 +.045 .
003 -.0905305926259119 0 1 0 16 271 87 273 ?274 275 276 266 0 0 1 30 272 230 0 2
77 266 278 0 +0 0 -.105530592625912 1 0 0 16 277 32 279 ?70 280 281 272 0 0 1 31
 278 231 0 282 272 283 0 +.0722511064281087 -.0642511064281089 -.098030592625911
9 1 -3491481338843135e-30 0 0 0 1 .0015 16 282 61 284 ?285 154 286 278 0 0 1 31
 283 232 0 287 278 288 0 +.0672511064281089 -.002 -.0905305926259119 0 0 -1 -1 0
 0 .005 16 287 92 289 ?290 291 72 283 0 0 1 30 288 233 0 292 283 293 0 +.043 .04
450221285621785 0 447502133323912e-46 1281697050319012e-32 1 16 292 130 294 ?111
 295 296 288 0 0 1 30 293 234 0 297 288 298 0 +.043 .04450221285621785 -.1055305
92625912 -3491481338843135e-30 -1 -925185853854297e-31 16 297 139 299 ?300 169 1
87 293 0 0 1 30 298 235 0 242 293 301 0 +.04 .04450221285621785 -.09253059262591
19 -3491481338843135e-30 -1 0 16 242 150 302 ?126 20 259 298 0 0 1 30 301 236 0
 303 298 304 0 +-976354114463543e-32 .003 -.105530592625912 1 0 -925185853854297
e-31 16 303 80 305 ?306 307 308 301 0 0 1 30 304 237 0 295 301 309 0 +.043 .0445
0221285621785 -.0905305926259119 1 -3491481338843135e-30 0 16 295 128 310 ?311 3
12 292 304 0 0 1 30 309 238 0 307 304 313 0 +.0672511064281089 .003 0 0 0 -1 16
 307 78 314 ?315 316 303 309 0 0 1 30 313 239 0 280 309 247 0 +.045 0 0 0 0 -1 1
6 280 30 317 ?318 319 277 313 0 0 1 30 247 240 0 237 313 320 0 +.04 .04200221285
621785 0 0 0 -1 31 320 241 0 321 247 322 0 +.0692511064281087 -.0642511064281089
 -.0980305926259119 1 -3491481338843135e-30 0 0 0 1 .0015 16 321 46 323 ?324 325
 41 320 0 0 1 31 322 242 0 326 320 327 0 +.0722511064281086 -.0792511064281089 -
.0980305926259119 -1 3491481338843135e-30 0 0 0 1 .0075 16 326 58 328 ?329 330 1
54 322 0 0 1 31 327 243 0 27 322 331 0 +.0722511064281087 -.0642511064281089 -.0
980305926259119 1 -3491481338843135e-30 0 0 0 1 .0015 16 27 12 332 ?152 10 233 3
27 0 0 1 30 331 244 0 308 327 333 0 +.0672511064281089 .003 -.105530592625912 0
 -1 0 16 308 84 334 ?335 303 336 331 0 0 1 30 333 245 0 259 331 337 0 +.04 .0445
0221285621785 -.0905305926259119 -3491481338843135e-30 -1 0 16 259 149 338 ?339
 242 251 333 0 0 1 31 337 246 0 340 333 262 0 +.0672511064281089 -.002 -.1055305
92625912 0 0 1 -1 0 0 .002 16 340 95 341 ?342 89 343 337 0 0 1 30 262 247 0 252
 337 344 0 +.043 .04450221285621785 -.100530592625912 277555756156289e-29 1 0 30
 344 248 0 233 262 345 0 +.033 .0445022128562179 -.100530592625912 1 -3491481338
843135e-30 0 16 233 17 346 ?170 27 319 344 0 0 1 31 345 249 0 276 344 347 0 +.04
5 .005 -.105530592625912 0 0 -1 1 0 0 .005 16 276 110 348 ?186 271 349 345 0 0 1
 30 347 250 0 187 345 350 0 +.043 .005 -.105530592625912 -1 3491481338843135e-30
 0 16 187 112 351 ?121 297 246 347 0 0 1 30 350 251 0 336 347 352 0 +0 0 -.09053
05926259119 1 0 0 16 336 27 353 ?354 308 355 350 0 0 1 30 352 252 0 72 350 356 0
 +.0672511064281089 0 0 0 0 -1 16 72 34 357 ?71 287 275 352 0 0 1 30 356 253 0 3
58 352 359 0 +.0722511064281086 -.0792511064281089 -.0905305926259119 1 -3491481
338843135e-30 0 16 358 51 360 ?361 362 330 356 0 0 1 30 359 254 0 312 356 363 0
 +.04 .04450221285621785 0 0 0 1 16 312 126 364 ?196 365 295 359 0 0 1 30 363 25
5 0 199 359 366 0 +.033 .0445022128562179 -.0925305926259119 1 -3491481338843135
e-30 0 16 199 123 367 ?198 249 218 363 0 0 1 30 366 256 0 316 363 368 0 +-243363
4424886905e-32 .003 -.0905305926259119 1 0 -268819009607405e-30 16 316 76 369 ?3
70 371 307 366 0 0 1 30 368 257 0 296 366 372 0 +.043 .0445022128562179 -.090530
5926259119 -3491481338843135e-30 -1 -268819009607405e-30 16 296 138 373 ?374 292
 375 368 0 0 1 30 372 258 0 286 368 376 0 +.0722511064281092 .0707488935718911 -
.105530592625912 -3491481338843135e-30 -1 -925185853854297e-31 16 286 66 377 ?37
8 282 371 372 0 0 1 31 376 259 0 325 372 379 0 +.0692511064281086 -.079251106428
1089 -.0980305926259119 -1 3491481338843135e-30 0 0 0 1 .0075 16 325 44 380 ?381
 382 321 376 0 0 1 30 379 260 0 319 376 383 0 +.04 .04450221285621785 0 0 0 1 16
 319 24 384 ?385 233 280 379 0 0 1 30 383 261 0 382 379 386 0 +.0692511064281092
 .0707488935718911 -.105530592625912 -3491481338843135e-30 -1 0 16 382 42 387 ?3
88 281 325 383 0 0 1 30 386 262 0 371 383 389 0 +.0722511064281092 .070748893571
8911 -.0905305926259119 -3491481338843135e-30 -1 -268819009607405e-30 16 371 53
 390 ?143 286 316 386 0 0 1 30 389 263 0 269 386 391 0 +.045 .003 0 0 0 -1 16 26
9 73 392 ?58 349 265 389 0 0 1 30 391 264 0 261 389 260 0 +.033 .042002212856217
9 -.0925305926259119 1 -3491481338843135e-30 0 16 261 158 393 ?244 252 249 391 0
 0 1 30 260 265 0 251 391 394 0 +.043 .005 -.0905305926259119 1 -349148133884313
5e-30 0 31 394 266 0 270 260 395 0 +.045 .005 -.0905305926259119 0 0 1 1 0 0 .00
2 16 270 107 396 ?397 265 365 394 0 0 1 31 395 267 0 41 394 398 0 +.069251106428
1087 -.0642511064281089 -.0980305926259119 1 -3491481338843135e-30 0 0 0 1 .0015
 16 41 7 399 ?40 321 362 395 0 0 1 30 398 268 0 375 395 400 0 +.043 .005 0 0 0 -
1 16 375 117 401 ?188 296 169 398 0 0 1 30 400 269 0 362 398 402 0 +.06925110642
81092 .0707488935718911 -.0905305926259119 -3491481338843135e-30 -1 0 16 362 37
 403 ?86 41 358 400 0 0 1 30 402 270 0 330 400 404 0 +.0722511064281086 -.079251
1064281089 -.105530592625912 1 -3491481338843135e-30 0 16 330 56 405 ?406 358 32
6 402 0 0 1 30 404 271 0 169 402 407 0 +.043 .04450221285621785 0 44750213332391
2e-46 1281697050319012e-32 1 16 169 20 408 ?158 375 297 404 0 0 1 30 407 272 0 3
49 404 409 0 +.045 .003 -.105530592625912 0 -1 0 16 349 83 410 ?137 276 269 407
 0 0 1 30 409 273 0 365 407 411 0 +.04 .005 0 0 0 -1 16 365 120 412 ?413 270 312
 409 0 0 1 30 411 274 0 249 409 414 0 +.043 .04200221285621785 -.100530592625912
 0 0 -1 16 249 135 415 ?117 261 199 411 0 0 1 30 414 275 0 218 411 416 0 +.043 .
04200221285621785 -.0925305926259119 -277555756156289e-29 -1 0 16 218 137 417 ?2
12 199 0 414 0 0 1 31 416 276 0 291 414 418 0 +.0672511064281089 -.002 -.1055305
92625912 0 0 1 -1 0 0 .005 16 291 96 419 ?420 421 287 416 0 0 1 30 418 277 0 89
 416 422 0 +.0722511064281089 -.002 -.0905305926259119 1 -3491481338843135e-30 0
 16 89 49 423 ?88 424 340 418 0 0 1 30 422 278 0 246 418 425 0 +.043 .0445022128
5621785 -.105530592625912 1 -3491481338843135e-30 0 16 246 22 426 ?172 187 237 4
22 0 0 1 30 425 279 0 154 422 427 0 +.0722511064281087 -.0642511064281089 -.0965
305926259119 1 -3491481338843135e-30 0 16 154 14 428 ?153 326 282 425 0 0 1 30 4
27 280 0 421 425 429 0 +.0722511064281089 -.002 0 0 0 -1 16 421 69 430 ?204 343
 291 427 0 0 1 30 429 281 0 355 427 431 0 +.0672511064281089 .003 -.090530592625
9119 0 1 0 16 355 88 432 ?146 336 424 429 0 0 1 31 431 282 0 275 429 433 0 +.045
 .005 -.0905305926259119 0 0 1 1 0 0 .005 16 275 106 434 ?435 72 271 431 0 0 1 3
0 433 283 0 281 431 28 0 +.0692511064281089 -.002 0 0 0 -1 16 281 40 436 ?437 27
7 382 433 0 0 1 30 28 284 0 10 433 21 0 +.0722511064281087 -.0642511064281089 -.
0995305926259119 1 -3491481338843135e-30 0 30 21 285 0 343 28 7 0 +.072251106428
1089 -.002 -.105530592625912 -1 3491481338843135e-30 0 16 343 64 438 ?92 340 421
 21 0 0 1 81 1 438 598 254 343 439 0 341 430 440 17 92 0 441 342 442 79 443 343
 0 444 +15 441 94 0 342 445 0 17 342 0 441 132 92 63 446 340 0 0 +17 442 0 441 9
2 132 103 420 291 0 0 -17 443 0 447 378 444 103 92 343 0 448 -17 444 0 447 443 4
49 79 388 382 0 437 -15 447 63 0 443 450 0 17 449 0 447 444 378 93 406 330 0 0 -
17 388 0 451 381 437 93 444 382 0 449 +17 437 0 451 388 90 79 452 281 0 446 +15
 451 36 0 90 453 454 17 90 0 451 437 381 64 86 362 0 452 -17 452 0 455 456 446 6
4 437 281 0 457 -17 446 0 455 452 71 79 342 340 0 0 -15 455 100 0 452 458 0 17 7
1 0 455 446 456 63 62 72 0 335 +17 456 0 455 71 452 60 457 424 0 0 -17 335 0 459
 460 306 63 132 308 0 70 +15 459 82 0 461 462 0 17 460 0 459 461 335 75 70 277 0
 318 -17 306 0 459 335 461 59 463 303 0 315 +17 132 0 441 442 342 59 335 308 0 3
06 -17 70 0 68 62 318 63 460 277 0 342 +15 68 26 0 69 464 0 17 318 0 68 70 69 75
 465 280 0 466 +17 69 0 68 318 62 138 354 336 0 465 -17 465 0 467 468 466 138 31
8 280 0 435 -17 466 0 467 465 413 75 186 276 0 0 -15 467 119 0 465 469 0 17 413
 0 467 466 468 55 470 365 0 186 +17 186 0 184 181 137 55 466 276 0 471 +15 184 1
09 0 186 472 0 17 137 0 184 186 185 75 461 349 0 460 +17 471 0 234 470 235 55 47
3 20 0 0 +17 470 0 234 474 471 54 413 365 0 468 -17 235 0 234 471 226 173 385 31
9 0 473 -17 473 0 475 172 121 173 471 20 0 0 -16 20 142 476 ?471 227 242 7 0 0 1
 81 1 476 622 254 20 477 0 236 302 478 80 255 1 254 0 479 8001 0 0 0 0 3 5 0 0 0
 FFFFTFTFFFFFFF2 81 1 477 410 33 20 480 476 439 481 482 81 1 236 621 254 227 483
 0 245 476 484 81 1 302 623 254 242 485 0 476 338 486 83 255 3 478 .792156875133
514 .819607853889465 .933333337306976 81 1 485 308 33 242 487 302 488 489 490 81
 1 338 624 254 259 491 0 302 256 492 83 3 486 .792156875133514 .819607853889465
 .933333337306976 81 1 491 328 33 259 493 338 494 495 496 81 1 256 625 254 251 4
97 0 338 250 498 83 3 492 .792156875133514 .819607853889465 .933333337306976 81
 1 497 368 33 251 499 256 500 501 502 83 3 498 .792156875133514 .819607853889465
 .933333337306976 80 1 33 503 504 9000 0 0 0 0 3 6 0 0 0 TTTFTFTTTFFFFF3 81 1 49
9 367 505 251 0 497 506 507 508 81 1 500 366 33 261 506 393 509 497 510 81 1 501
 370 33 270 507 396 497 511 512 84 255 3 502 55781 1 507 369 505 270 0 501 499 5
13 514 81 1 396 609 254 270 501 0 267 412 515 81 1 511 372 33 41 513 399 501 516
 517 84 3 512 80081 1 513 371 505 41 0 511 507 518 519 81 1 399 580 254 41 511 0
 323 403 520 81 1 516 374 33 375 518 401 511 521 522 84 3 517 63581 1 518 373 50
5 375 0 516 513 523 524 81 1 401 615 254 375 516 0 373 408 525 81 1 521 376 33 3
62 523 403 516 526 527 84 3 522 10681 1 523 375 505 362 0 521 518 528 529 81 1 4
03 581 254 362 521 0 399 360 530 81 1 526 378 33 330 528 405 521 531 532 84 3 52
7 44181 1 528 377 505 330 0 526 523 533 534 81 1 405 583 254 330 526 0 360 328 5
35 81 1 531 380 33 169 533 408 526 536 537 84 2 532 4981 1 533 379 505 169 0 531
 528 538 539 81 1 408 616 254 169 531 0 401 299 540 81 1 536 382 33 349 538 410
 531 541 542 84 3 537 67481 1 538 381 505 349 0 536 533 543 544 81 1 410 606 254
 349 536 0 348 392 545 81 1 541 384 33 365 543 412 536 546 547 84 3 542 17081 1
 543 383 505 365 0 541 538 548 549 81 1 412 610 254 365 541 0 396 364 550 81 1 5
46 386 33 249 548 415 541 551 552 84 3 547 60281 1 548 385 505 249 0 546 543 553
 554 81 1 415 629 254 249 546 0 393 367 555 81 1 551 388 33 218 553 417 546 556
 557 84 3 552 49981 1 553 387 505 218 0 551 548 558 559 81 1 417 631 254 218 551
 0 367 0 560 81 1 556 390 33 291 558 419 551 561 562 84 3 557 33181 1 558 389 50
5 291 0 556 553 563 564 81 1 419 600 254 291 556 0 430 289 565 81 1 561 392 33 8
9 563 423 556 566 567 84 3 562 66481 1 563 391 505 89 0 561 558 568 569 81 1 423
 596 254 89 561 0 570 341 571 81 1 566 394 33 246 568 426 561 572 573 84 3 567 1
8381 1 568 393 505 246 0 566 563 574 575 81 1 426 619 254 246 566 0 351 245 576
 81 1 572 396 33 154 574 428 566 577 578 84 3 573 30681 1 574 395 505 154 0 572
 568 579 580 81 1 428 585 254 154 572 0 328 284 581 81 1 577 398 33 421 579 430
 572 582 583 84 2 578 7981 1 579 397 505 421 0 577 574 584 585 81 1 430 599 254
 421 577 0 438 419 586 81 1 582 400 33 355 584 432 577 587 588 84 3 583 32581 1
 584 399 505 355 0 582 579 589 590 81 1 432 594 254 355 582 0 353 570 591 81 1 5
87 402 33 275 589 434 582 592 593 84 3 588 20281 1 589 401 505 275 0 587 584 594
 595 81 1 434 603 254 275 587 0 357 273 596 81 1 592 404 33 281 594 436 587 597
 598 84 3 593 54681 1 594 403 505 281 0 592 589 599 600 81 1 436 576 254 281 592
 0 279 387 601 81 1 597 406 33 10 599 25 592 439 602 84 3 598 70881 1 599 405 50
5 10 0 597 594 603 604 81 1 25 570 254 10 597 0 605 332 606 81 1 439 408 33 343
 603 438 597 477 607 84 3 602 49581 1 603 407 505 343 0 439 599 480 608 84 3 607
 65980 1 505 609 610 8017 0 0 0 0 0 0 0 0 0 TTTTTTTTTTTTTF3 81 1 480 409 505 20
 0 477 603 611 612 84 4 608 NONE81 1 611 412 505 613 614 481 480 615 616 84 4 61
2 NONE14 255 613 85 617 ?618 462 619 5 620 +0 0 618 462 24 81 1 614 411 254 613
 0 611 0 621 622 81 1 481 413 33 613 611 617 477 623 624 81 1 615 415 505 464 62
1 623 611 625 626 84 4 616 NONE14 464 25 627 ?453 628 68 5 629 -0 0 453 628 24 8
1 1 621 414 254 464 0 615 614 630 631 81 1 623 416 33 464 615 627 481 632 633 81
 1 625 418 505 16 630 632 615 634 635 84 4 626 NONE14 16 5 636 ?628 0 38 5 637 -
0 0 628 0 24 81 1 630 417 254 16 0 625 621 638 639 81 1 632 419 33 16 625 636 62
3 640 641 81 1 634 421 505 642 638 640 625 643 644 84 4 635 NONE14 642 140 645 ?
240 646 475 5 647 -0 0 240 646 24 81 1 638 420 254 642 0 634 630 648 649 81 1 64
0 422 33 642 634 645 632 650 651 81 1 643 424 505 248 648 650 634 652 653 84 4 6
44 NONE14 248 156 654 ?655 229 243 5 656 -0 0 655 229 24 81 1 648 423 254 248 0
 643 638 657 658 81 1 650 425 33 248 643 654 640 659 660 81 1 652 427 505 240 65
7 659 643 661 662 84 4 653 NONE14 240 143 663 ?664 642 234 5 665 -0 0 664 642 24
 81 1 657 426 254 240 0 652 648 666 667 81 1 659 428 33 240 652 663 650 668 669
 81 1 661 430 505 450 666 668 652 670 671 84 4 662 NONE14 450 62 672 ?673 674 44
7 5 675 -0 0 673 674 24 81 1 666 429 254 450 0 661 657 676 677 81 1 668 431 33 4
50 661 672 659 678 679 81 1 670 433 505 680 676 678 661 681 682 84 4 671 NONE14
 680 121 683 ?646 469 195 5 684 +0 0 646 469 24 81 1 676 432 254 680 0 670 666 6
85 686 81 1 678 434 33 680 670 683 668 687 688 81 1 681 436 505 689 685 687 670
 690 691 84 4 682 NONE14 689 97 692 ?458 445 693 5 694 +0 0 458 445 24 81 1 685
 435 254 689 0 681 676 695 696 81 1 687 437 33 689 681 692 678 697 698 81 1 690
 439 505 618 695 697 681 699 700 84 4 691 NONE14 618 89 701 ?445 613 702 5 703 +
0 0 445 613 24 81 1 695 438 254 618 0 690 685 704 705 81 1 697 440 33 618 690 70
1 687 706 707 81 1 699 442 505 458 704 706 690 708 709 84 4 700 NONE14 458 99 71
0 ?711 689 455 5 712 -0 0 711 689 24 81 1 704 441 254 458 0 699 695 713 714 81 1
 706 443 33 458 699 710 697 715 716 81 1 708 445 505 229 713 715 699 717 718 84
 4 709 NONE14 229 153 719 ?248 664 223 5 720 -0 0 248 664 24 81 1 713 444 254 22
9 0 708 704 721 722 81 1 715 446 33 229 708 719 706 723 724 81 1 717 448 505 445
 721 723 708 725 726 84 4 718 NONE14 445 93 727 ?689 618 441 5 728 +0 0 689 618
 24 81 1 721 447 254 445 0 717 713 729 730 81 1 723 449 33 445 717 727 715 731 7
32 81 1 725 451 505 469 729 731 717 733 734 84 4 726 NONE14 469 118 735 ?680 736
 467 5 737 +0 0 680 736 24 81 1 729 450 254 469 0 725 721 738 739 81 1 731 452 3
3 469 725 735 723 740 741 81 1 733 454 505 462 738 740 725 742 743 84 4 734 NONE
14 462 81 744 ?613 745 459 5 746 -0 0 613 745 24 81 1 738 453 254 462 0 733 729
 747 748 81 1 740 455 33 462 733 744 731 749 750 81 1 742 457 505 711 747 749 73
3 751 752 84 4 743 NONE14 711 101 753 ?472 458 754 5 755 -0 0 472 458 24 81 1 74
7 456 254 711 0 742 738 756 757 81 1 749 458 33 711 742 753 740 758 759 81 1 751
 460 505 673 756 758 742 760 761 84 4 752 NONE14 673 67 762 ?745 450 763 5 764 +
0 0 745 450 24 81 1 756 459 254 673 0 751 747 765 766 81 1 758 461 33 673 751 76
2 749 767 768 81 1 760 463 505 769 765 767 751 770 771 84 4 761 NONE14 769 47 77
2 ?18 453 85 5 773 +0 0 18 453 24 81 1 765 462 254 769 0 760 756 774 775 81 1 76
7 464 33 769 760 772 758 776 777 81 1 770 466 505 736 774 776 760 778 779 84 4 7
71 NONE14 736 115 780 ?469 472 781 5 782 -0 0 469 472 24 81 1 774 465 254 736 0
 770 765 783 784 81 1 776 467 33 736 770 780 767 785 786 81 1 778 469 505 646 78
3 785 770 787 788 84 4 779 NONE14 646 131 789 ?642 680 165 5 790 +0 0 642 680 24
 81 1 783 468 254 646 0 778 774 791 792 81 1 785 470 33 646 778 789 776 793 794
 81 1 787 472 505 745 791 793 778 795 796 84 4 788 NONE14 745 71 797 ?462 673 79
8 5 799 +0 0 462 673 24 81 1 791 471 254 745 0 787 783 800 801 81 1 793 473 33 7
45 787 797 785 802 803 81 1 795 475 505 674 800 802 787 804 805 84 4 796 NONE14
 674 59 806 ?450 18 807 5 808 -0 0 450 18 24 81 1 800 474 254 674 0 795 791 809
 810 81 1 802 476 33 674 795 806 793 811 812 81 1 804 478 505 664 809 811 795 81
3 814 84 4 805 NONE14 664 151 815 ?229 240 816 5 817 +0 0 229 240 24 81 1 809 47
7 254 664 0 804 800 818 819 81 1 811 479 33 664 804 815 802 820 821 81 1 813 481
 505 453 818 820 804 822 823 84 4 814 NONE14 453 35 824 ?769 464 451 5 825 -0 0
 769 464 24 81 1 818 480 254 453 0 813 809 826 827 81 1 820 482 33 453 813 824 8
11 828 829 81 1 822 484 505 655 826 828 813 830 831 84 4 823 NONE14 655 159 832
 ?0 248 215 5 833 -0 0 0 248 24 81 1 826 483 254 655 0 822 818 834 835 81 1 828
 485 33 655 822 832 820 836 837 81 1 830 487 505 628 834 836 822 838 839 84 4 83
1 NONE14 628 15 840 ?464 16 841 5 842 +0 0 464 16 24 81 1 834 486 254 628 0 830
 826 843 844 81 1 836 488 33 628 830 840 828 845 846 81 1 838 490 505 472 843 84
5 830 847 848 84 4 839 NONE14 472 108 849 ?736 711 184 5 19 -0 0 736 711 24 81 1
 843 489 254 472 0 838 834 605 850 81 1 845 491 33 472 838 849 836 851 852 81 1
 847 493 505 18 605 851 838 853 854 84 4 848 NONE14 18 54 855 ?674 769 856 5 6 +
0 0 674 769 24 81 1 605 492 254 18 0 847 843 25 857 81 1 851 494 33 18 847 855 8
45 171 858 81 1 853 495 505 159 0 171 847 192 859 84 4 854 NONE81 1 171 496 33 1
59 853 0 851 189 860 81 1 192 497 505 179 0 189 853 861 862 84 4 859 NONE81 1 86
1 499 505 113 0 193 192 863 864 84 4 862 NONE81 1 193 500 33 113 861 0 189 203 8
65 81 1 863 501 505 103 0 203 861 866 867 84 4 864 NONE81 1 203 502 33 103 863 0
 193 74 868 81 1 866 503 505 63 0 74 863 869 870 84 4 867 NONE81 1 74 504 33 63
 866 0 203 155 871 81 1 869 505 505 45 0 155 866 872 873 84 4 870 NONE81 1 155 5
06 33 45 869 0 74 207 874 81 1 872 507 505 173 0 207 869 875 876 84 4 873 NONE81
 1 207 508 33 173 872 0 155 209 877 81 1 875 509 505 54 0 209 872 213 878 84 4 8
76 NONE81 1 209 510 33 54 875 0 207 211 879 81 1 213 511 505 118 0 211 875 221 8
80 84 4 878 NONE81 1 221 513 505 127 0 162 213 161 881 84 4 880 NONE81 1 161 515
 505 149 0 157 221 882 883 84 4 881 NONE81 1 882 517 505 112 0 163 161 182 884 8
4 4 883 NONE81 1 163 518 33 112 882 0 157 180 885 81 1 182 519 505 122 0 180 882
 886 887 84 4 884 NONE81 1 886 521 505 97 0 82 182 81 888 84 4 887 NONE18 97 18
 82 385 173 138 95 ?1 81 1 82 522 33 97 886 0 180 77 889 81 1 81 523 505 64 0 77
 886 890 891 84 4 888 NONE81 1 890 525 505 99 0 83 81 892 893 84 4 891 NONE81 1
 83 526 33 99 890 0 77 105 894 81 1 892 527 505 102 0 105 890 895 896 84 4 893 N
ONE81 1 105 528 33 102 892 0 83 110 897 81 1 895 529 505 108 0 110 892 898 899 8
4 4 896 NONE81 1 110 530 33 108 895 0 105 116 900 81 1 898 531 505 114 0 116 895
 901 902 84 4 899 NONE81 1 116 532 33 114 898 0 110 120 903 81 1 901 533 505 55
 0 120 898 904 905 84 4 902 NONE81 1 120 534 33 55 901 0 116 125 906 81 1 904 53
5 505 123 0 125 901 907 908 84 4 905 NONE81 1 125 536 33 123 904 0 120 129 909 8
1 1 907 537 505 93 0 129 904 910 911 84 4 908 NONE81 1 129 538 33 93 907 0 125 1
31 912 81 1 910 539 505 59 0 131 907 913 914 84 4 911 NONE81 1 131 540 33 59 910
 0 129 43 915 81 1 913 541 505 31 0 43 910 916 917 84 4 914 NONE81 1 43 542 33 3
1 913 0 131 136 918 81 1 916 543 505 75 0 136 913 919 920 84 4 917 NONE81 1 136
 544 33 75 916 0 43 140 921 81 1 919 545 505 138 0 140 916 922 923 84 4 920 NONE
81 1 140 546 33 138 919 0 136 142 924 81 1 922 547 505 107 0 142 919 925 926 84
 4 923 NONE81 1 142 548 33 107 922 0 140 91 927 81 1 925 549 505 79 0 91 922 928
 929 84 4 926 NONE81 1 91 550 33 79 925 0 142 145 930 81 1 928 551 505 133 0 145
 925 150 931 84 4 929 NONE81 1 145 552 33 133 928 0 91 148 932 81 1 150 553 505
 147 0 148 928 933 934 84 4 931 NONE81 1 933 555 505 49 0 35 150 34 935 84 4 934
 NONE18 49 74 35 936 103 133 47 ?1 81 1 35 556 33 49 933 0 148 29 937 81 1 34 55
7 505 11 0 29 933 938 939 84 4 935 NONE81 1 938 559 505 51 0 36 34 940 941 84 4
 939 NONE81 1 36 560 33 51 938 0 29 57 942 81 1 940 561 505 56 0 57 938 65 943 8
4 4 941 NONE81 1 57 562 33 56 940 0 36 61 944 81 1 65 563 505 60 0 61 940 945 94
6 84 4 943 NONE81 1 945 565 505 22 0 66 65 947 948 84 4 946 NONE18 22 39 66 86 9
3 107 8 ?1 81 1 66 566 33 22 945 0 61 13 949 81 1 947 632 505 1 950 951 945 0 95
2 84 4 948 NONE81 1 950 569 953 1 954 947 0 0 955 81 1 951 633 956 1 947 13 0 0
 957 84 12 952 Cut-Extrude880 1 956 33 958 9000 0 0 0 0 3 5 0 0 0 TFTFTFTFFFFFFF
3 81 1 13 634 33 1 951 2 66 0 959 84 8 957 SIDEARM184 3 959 46479 255 22 958 ATT
RIB_XPARASOLID_NAME80 1 953 254 960 8040 0 0 0 0 3 5 0 0 0 TTTFFFFFFFFFFF2 81 1
 954 568 961 1 962 950 0 0 963 83 3 955 .792156875133514 .819607853889465 .93333
3337306976 80 1 961 964 965 9000 0 0 0 0 3 5 0 0 0 TTTFTFTTFFFFFF3 81 1 962 567
 964 1 0 954 0 0 966 84 4 963 NONE80 1 964 956 967 9000 0 0 0 0 3 5 0 0 0 FTTFTF
TTFFFFFF1 82 255 1 966 -1 79 23 967 ATTRIB_XPARASOLID_LAYER79 26 965 ATTRIB_XGEN
ERIC_LAYER_NAME79 17 960 SDL/TYSA_COLOUR_284 3 949 25717 86 0 85 361 78 22 90 36
2 0 381 +15 85 48 0 78 769 0 17 361 0 85 87 86 107 968 358 0 329 +17 381 0 451 9
0 388 22 130 325 0 968 +17 130 0 856 406 968 93 381 325 0 388 -17 968 0 856 130
 329 22 361 358 0 0 -15 856 55 0 968 18 0 17 329 0 856 968 406 107 101 326 0 0 +
17 406 0 856 329 130 99 449 330 0 378 +17 101 0 763 448 143 99 329 326 0 406 -15
 763 68 0 106 673 969 17 448 0 763 106 101 103 378 286 0 442 -17 143 0 763 101 1
06 107 87 371 0 361 +17 106 0 763 143 448 102 204 421 0 88 -17 87 0 85 78 361 10
2 143 371 0 290 -17 290 0 693 204 970 102 971 287 0 0 +15 693 98 0 204 689 0 17
 204 0 693 420 290 103 106 421 0 443 +17 970 0 693 290 420 133 315 307 0 370 -17
 971 0 702 73 88 133 290 287 0 0 -15 702 90 0 73 618 0 17 73 0 702 457 971 60 14
6 355 0 354 -17 88 0 702 971 457 102 78 89 0 87 +17 457 0 702 88 73 64 456 424 0
 0 +16 424 91 570 ?457 355 89 264 0 0 1 81 1 570 595 254 424 972 0 432 423 973 3
1 264 225 0 424 0 238 0 +.0672511064281089 -.002 -.0905305926259119 0 0 -1 -1 0
 0 .002 81 1 972 288 33 424 974 570 0 483 975 83 3 973 .792156875133514 .8196078
53889465 .933333337306976 81 1 974 287 505 424 0 972 0 976 977 81 1 483 290 33 2
27 976 236 972 255 978 84 3 975 40981 1 976 289 505 227 0 483 974 979 980 81 1 2
55 292 33 232 979 250 483 981 982 84 3 978 24781 1 979 291 505 232 0 255 976 983
 984 81 1 981 294 33 265 983 267 255 985 986 84 2 982 5981 1 983 293 505 265 0 9
81 979 987 988 81 1 267 608 254 265 981 0 392 396 989 81 1 985 296 33 271 987 27
3 981 990 991 84 3 986 56781 1 987 295 505 271 0 985 983 992 993 81 1 273 604 25
4 271 985 0 434 348 994 81 1 990 298 33 277 992 279 985 995 996 84 3 991 73581 1
 992 297 505 277 0 990 987 997 998 81 1 279 575 254 277 990 0 317 436 999 81 1 9
95 300 33 282 997 284 990 1000 1001 84 3 996 39381 1 997 299 505 282 0 995 992 1
002 1003 81 1 284 586 254 282 995 0 428 377 1004 81 1 1000 302 33 287 1002 289 9
95 1005 1006 84 3 1001 68081 1 1002 301 505 287 0 1000 997 1007 1008 81 1 289 60
1 254 287 1000 0 419 357 1009 81 1 1005 304 33 292 1007 294 1000 488 1010 84 2 1
006 6081 1 1007 303 505 292 0 1005 1002 1011 1012 81 1 294 613 254 292 1005 0 31
0 373 1013 81 1 488 306 33 297 1011 299 1005 485 1014 84 3 1010 12681 1 1011 305
 505 297 0 488 1007 487 1015 81 1 299 617 254 297 488 0 408 351 1016 84 3 1014 2
5081 1 351 618 254 187 1017 0 299 426 1018 83 3 1016 .792156875133514 .819607853
889465 .933333337306976 81 1 1017 338 33 187 1019 351 1020 1021 1022 83 3 1018 .
792156875133514 .819607853889465 .933333337306976 81 1 1019 337 505 187 0 1017 1
023 1024 1025 81 1 1020 336 33 276 1023 348 1026 1017 1027 81 1 1021 340 33 336
 1024 353 1017 1028 1029 84 3 1022 69081 1 1024 339 505 336 0 1021 1019 1030 103
1 81 1 353 593 254 336 1021 0 334 432 1032 81 1 1028 342 33 72 1030 357 1021 103
3 1034 84 3 1029 24281 1 1030 341 505 72 0 1028 1024 1035 1036 81 1 357 602 254
 72 1028 0 289 434 1037 81 1 1033 344 33 358 1035 360 1028 1038 1039 84 3 1034 4
5981 1 1035 343 505 358 0 1033 1030 1040 1041 81 1 360 582 254 358 1033 0 403 40
5 1042 81 1 1038 346 33 312 1040 364 1033 1043 1044 84 3 1039 80281 1 1040 345 5
05 312 0 1038 1035 1045 1046 81 1 364 611 254 312 1038 0 412 310 1047 81 1 1043
 348 33 199 1045 367 1038 1048 1049 84 3 1044 13081 1 1045 347 505 199 0 1043 10
40 1050 1051 81 1 367 630 254 199 1043 0 415 417 1052 81 1 1048 350 33 316 1050
 369 1043 1053 1054 84 3 1049 59681 1 1050 349 505 316 0 1048 1045 1055 1056 81
 1 369 589 254 316 1048 0 390 314 1057 81 1 1053 352 33 296 1055 373 1048 1058 1
059 84 3 1054 45781 1 1055 351 505 296 0 1053 1050 1060 1061 81 1 373 614 254 29
6 1053 0 294 401 1062 81 1 1058 354 33 286 1060 377 1053 1063 1064 84 1 1059 981
 1 1060 353 505 286 0 1058 1055 1065 1066 81 1 377 587 254 286 1058 0 284 390 10
67 81 1 1063 356 33 325 1065 380 1058 1068 1069 84 3 1064 19981 1 1065 355 505 3
25 0 1063 1060 1070 1071 81 1 380 578 254 325 1063 0 387 323 1072 81 1 1068 358
 33 319 1070 384 1063 1073 1074 84 3 1069 44581 1 1070 357 505 319 0 1068 1065 1
075 1076 81 1 384 573 254 319 1068 0 346 317 1077 81 1 1073 360 33 382 1075 387
 1068 1078 1079 84 3 1074 14181 1 1075 359 505 382 0 1073 1070 1080 1081 81 1 38
7 577 254 382 1073 0 436 380 1082 81 1 1078 362 33 371 1080 390 1073 509 1083 84
 3 1079 41581 1 1080 361 505 371 0 1078 1075 1084 1085 81 1 390 588 254 371 1078
 0 377 369 1086 81 1 509 364 33 269 1084 392 1078 500 1087 84 3 1083 40581 1 108
4 363 505 269 0 509 1080 506 1088 81 1 392 607 254 269 509 0 410 267 1089 84 3 1
087 64983 3 1089 .792156875133514 .819607853889465 .933333337306976 81 1 506 365
 505 261 0 500 1084 499 1090 84 4 1088 NONE84 4 1090 NONE83 3 1086 .792156875133
514 .819607853889465 .933333337306976 84 4 1085 NONE83 3 1082 .792156875133514 .
819607853889465 .933333337306976 84 4 1081 NONE81 1 346 572 254 233 1026 0 332 3
84 1091 81 1 317 574 254 280 1092 0 384 279 1093 83 3 1077 .792156875133514 .819
607853889465 .933333337306976 81 1 1092 316 33 280 1094 317 1095 1096 1097 83 3
 1093 .792156875133514 .819607853889465 .933333337306976 81 1 1094 315 505 280 0
 1092 1098 1099 1100 81 1 1095 314 33 307 1098 314 1101 1092 1102 81 1 1096 318
 33 237 1099 245 1092 1103 1104 84 3 1097 57781 1 1099 317 505 237 0 1096 1094 1
105 1106 81 1 245 620 254 237 1096 0 426 236 1107 81 1 1103 320 33 321 1105 323
 1096 1108 1109 84 3 1104 28781 1 1105 319 505 321 0 1103 1099 1110 1111 81 1 32
3 579 254 321 1103 0 380 399 1112 81 1 1108 322 33 326 1110 328 1103 1113 1114 8
4 2 1109 3981 1 1110 321 505 326 0 1108 1105 1115 1116 81 1 328 584 254 326 1108
 0 405 428 1117 81 1 1113 324 33 27 1115 332 1108 494 1118 84 3 1114 29581 1 111
5 323 505 27 0 1113 1110 1119 1120 81 1 332 571 254 27 1113 0 25 346 1121 81 1 4
94 326 33 308 1119 334 1113 491 1122 84 3 1118 15181 1 1119 325 505 308 0 494 11
15 493 1123 81 1 334 592 254 308 494 0 305 353 1124 84 3 1122 15981 1 305 591 25
4 303 489 0 314 334 1125 83 3 1124 .792156875133514 .819607853889465 .9333333373
06976 81 1 489 310 33 303 1126 305 485 1101 1127 81 1 314 590 254 307 1095 0 369
 305 1128 83 3 1125 .792156875133514 .819607853889465 .933333337306976 83 3 1128
 .792156875133514 .819607853889465 .933333337306976 81 1 1126 309 505 303 0 489
 487 1129 1130 81 1 1101 312 33 295 1129 310 489 1095 1131 84 3 1127 58881 1 112
9 311 505 295 0 1101 1126 1098 1132 81 1 310 612 254 295 1101 0 364 294 1133 84
 3 1131 24983 3 1133 .792156875133514 .819607853889465 .933333337306976 81 1 109
8 313 505 307 0 1095 1129 1094 1134 84 4 1132 NONE84 4 1134 NONE81 1 487 307 505
 242 0 485 1011 1126 1135 84 4 1130 NONE84 4 1135 NONE81 1 493 327 505 259 0 491
 1119 1136 1137 84 4 1123 NONE81 1 1136 329 505 340 0 495 493 1138 1139 84 4 113
7 NONE81 1 495 330 33 340 1136 341 491 1140 1141 81 1 1138 331 505 252 0 1140 11
36 1142 1143 84 4 1139 NONE81 1 1140 332 33 252 1138 257 495 1026 1144 81 1 1142
 333 505 233 0 1026 1138 1023 1145 84 4 1143 NONE81 1 1026 334 33 233 1142 346 1
140 1020 1146 81 1 1023 335 505 276 0 1020 1142 1019 1147 84 4 1145 NONE84 4 114
7 NONE84 2 1146 2281 1 257 627 254 252 1140 0 250 393 1148 84 3 1144 48681 1 393
 628 254 261 500 0 257 415 1149 83 3 1148 .792156875133514 .819607853889465 .933
333337306976 83 3 1149 .792156875133514 .819607853889465 .933333337306976 81 1 3
41 597 254 340 495 0 423 438 1150 84 3 1141 50283 3 1150 .792156875133514 .81960
7853889465 .933333337306976 83 3 1121 .792156875133514 .819607853889465 .9333333
37306976 84 4 1120 NONE83 3 1117 .792156875133514 .819607853889465 .933333337306
976 84 4 1116 NONE83 3 1112 .792156875133514 .819607853889465 .933333337306976 8
4 4 1111 NONE83 3 1107 .792156875133514 .819607853889465 .933333337306976 84 4 1
106 NONE84 3 1102 47784 4 1100 NONE83 3 1091 .792156875133514 .819607853889465 .
933333337306976 84 4 1076 NONE83 3 1072 .792156875133514 .819607853889465 .93333
3337306976 84 4 1071 NONE83 3 1067 .792156875133514 .819607853889465 .9333333373
06976 84 4 1066 NONE83 3 1062 .792156875133514 .819607853889465 .933333337306976
 84 4 1061 NONE83 3 1057 .792156875133514 .819607853889465 .933333337306976 84 4
 1056 NONE83 3 1052 .792156875133514 .819607853889465 .933333337306976 84 4 1051
 NONE83 3 1047 .792156875133514 .819607853889465 .933333337306976 84 4 1046 NONE
83 3 1042 .792156875133514 .819607853889465 .933333337306976 84 4 1041 NONE83 3
 1037 .792156875133514 .819607853889465 .933333337306976 84 4 1036 NONE83 3 1032
 .792156875133514 .819607853889465 .933333337306976 84 4 1031 NONE81 1 348 605 2
54 276 1020 0 273 410 1151 84 3 1027 67783 3 1151 .792156875133514 .819607853889
465 .933333337306976 84 4 1025 NONE84 4 1015 NONE83 3 1013 .792156875133514 .819
607853889465 .933333337306976 84 4 1012 NONE83 3 1009 .792156875133514 .81960785
3889465 .933333337306976 84 4 1008 NONE83 3 1004 .792156875133514 .8196078538894
65 .933333337306976 84 4 1003 NONE83 3 999 .792156875133514 .819607853889465 .93
3333337306976 84 4 998 NONE83 3 994 .792156875133514 .819607853889465 .933333337
306976 84 4 993 NONE83 3 989 .792156875133514 .819607853889465 .933333337306976
 84 4 988 NONE84 4 984 NONE84 4 980 NONE84 4 977 NONE17 146 0 619 1152 354 133 7
3 355 0 970 +17 354 0 619 146 141 60 69 336 0 456 +15 619 86 0 141 613 0 17 141
 0 619 354 1152 138 274 271 0 69 -17 1152 0 619 141 146 49 370 316 0 397 -17 274
 0 754 1153 435 49 141 271 0 1152 +15 754 102 0 210 711 0 17 1153 0 754 210 274
 51 397 270 0 374 -17 435 0 754 274 210 138 468 275 0 0 +17 210 0 754 435 1153 5
4 53 251 0 470 -17 468 0 467 413 465 54 435 275 0 339 -17 339 0 816 53 178 54 47
4 259 0 0 +15 816 152 0 339 664 0 17 53 0 816 1154 339 51 210 251 0 1155 +17 178
 0 816 339 1154 112 311 295 0 196 -17 474 0 234 200 470 112 339 259 0 0 -17 200
 0 234 126 474 179 196 312 0 241 -17 196 0 195 311 190 112 200 312 0 474 +17 241
 0 215 198 216 179 126 242 0 0 -15 215 160 0 198 655 0 17 198 0 215 212 241 113
 190 199 0 197 +17 216 0 215 241 212 123 244 261 0 0 -17 244 0 243 117 239 118 2
16 261 0 0 +17 197 0 195 190 311 113 111 292 0 217 -15 195 122 0 190 680 0 17 31
1 0 195 197 196 108 178 295 0 1154 +17 111 0 165 374 217 108 197 292 0 311 +17 2
17 0 165 111 219 113 212 218 0 0 -15 165 132 0 166 646 0 17 219 0 165 217 166 11
8 117 249 0 244 -17 166 0 165 219 158 114 230 252 0 224 -17 230 0 223 225 224 14
9 166 252 0 0 +17 374 0 165 188 111 51 1154 296 0 0 +17 188 0 165 167 374 122 11
55 375 0 268 +17 1154 0 816 178 53 108 374 296 0 0 -17 167 0 165 158 188 159 300
 297 0 0 -17 1155 0 781 397 268 51 188 375 0 1153 -17 268 0 781 1155 58 122 185
 265 0 300 +15 781 116 0 58 736 0 17 58 0 781 268 397 56 936 269 0 461 +17 185 0
 184 137 181 56 268 265 0 0 -17 300 0 475 121 172 122 167 297 0 0 +15 475 141 0
 300 642 0 17 121 0 475 473 300 55 181 187 0 413 +17 172 0 475 300 473 159 208 2
46 0 168 +17 208 0 841 385 168 173 172 246 0 235 -17 168 0 841 208 170 159 158 1
69 0 167 -15 841 16 0 170 628 0 17 170 0 841 168 385 149 225 233 0 230 +17 385 0
 841 170 208 97 235 319 0 225 +17 397 0 781 58 1155 49 1153 270 0 0 +17 936 0 79
8 370 463 49 58 269 0 274 -17 461 0 459 306 460 56 137 349 0 463 -17 463 0 798 9
36 315 56 306 303 0 185 -15 798 72 0 936 745 0 17 315 0 798 463 370 59 970 307 0
 420 +17 370 0 798 315 936 133 1152 316 0 971 +17 420 0 693 970 204 59 442 291 0
 0 +17 378 0 447 449 443 99 448 286 0 0 +15 969 70 0 1156 673 0 17 1156 0 969 44
 44 45 285 282 0 0 -17 44 0 969 1156 1156 31 152 27 0 26 -17 285 0 807 42 153 31
 1156 282 0 0 +15 807 60 0 42 674 0 17 42 0 807 1157 285 11 26 10 0 324 -17 153
 0 807 285 1157 45 39 154 0 152 +17 1157 0 807 153 42 147 324 321 0 0 -17 152 0
 38 39 26 45 44 27 0 1156 +15 38 6 0 30 16 0 17 26 0 38 152 30 31 42 10 0 285 +1
7 324 0 454 40 40 11 1157 321 0 0 +15 454 45 0 324 453 0 17 40 0 454 324 324 147
 30 41 0 1157 +84 2 944 8784 3 942 58584 3 937 71684 3 932 27384 3 930 45884 3 9
27 26684 3 924 75784 3 921 59384 3 918 37184 3 915 68984 3 912 32484 3 909 37984
 3 906 25384 3 903 47184 3 900 69484 3 897 25684 3 894 71384 3 889 39584 2 885 2
984 3 879 70784 3 877 62284 3 874 73084 3 871 51184 3 868 51684 3 865 31984 2 86
0 2481 1 855 1141 1158 18 851 0 849 0 1159 84 3 858 37080 1 1158 1160 1161 9000
 1 1 1 1 1 1 1 1 0 FFFFTFTFFFFFFF1 81 1 849 1140 1158 472 845 0 840 855 1162 82
 1 1159 -538902412 81 1 840 1139 1158 628 836 0 832 849 1163 82 1 1162 -53916455
6 81 1 832 1138 1158 655 828 0 824 840 1164 82 1 1163 -539426700 81 1 824 1137 1
158 453 820 0 815 832 1165 82 1 1164 -539688844 81 1 815 1136 1158 664 811 0 806
 824 1166 82 1 1165 -539950988 81 1 806 1135 1158 674 802 0 797 815 1167 82 1 11
66 -540213132 81 1 797 1134 1158 745 793 0 789 806 1168 82 1 1167 -540475276 81
 1 789 1133 1158 646 785 0 780 797 1169 82 1 1168 -540737420 81 1 780 1132 1158
 736 776 0 772 789 1170 82 1 1169 -540999564 81 1 772 1131 1158 769 767 0 762 78
0 1171 82 1 1170 -541261708 81 1 762 1130 1158 673 758 0 753 772 1172 82 1 1171
 -541523852 81 1 753 1129 1158 711 749 0 744 762 1173 82 1 1172 -541785996 81 1
 744 1128 1158 462 740 0 735 753 1174 82 1 1173 -542048140 81 1 735 1127 1158 46
9 731 0 727 744 1175 82 1 1174 -542310284 81 1 727 1126 1158 445 723 0 719 735 1
176 82 1 1175 -542572428 81 1 719 1125 1158 229 715 0 710 727 1177 82 1 1176 -54
2834572 81 1 710 1124 1158 458 706 0 701 719 1178 82 1 1177 -543096716 81 1 701
 1123 1158 618 697 0 692 710 1179 82 1 1178 -543358860 81 1 692 1122 1158 689 68
7 0 683 701 1180 82 1 1179 -543621004 81 1 683 1121 1158 680 678 0 672 692 1181
 82 1 1180 -543883148 81 1 672 1120 1158 450 668 0 663 683 1182 82 1 1181 -54414
5292 81 1 663 1119 1158 240 659 0 654 672 1183 82 1 1182 -544407436 81 1 654 111
8 1158 248 650 0 645 663 1184 82 1 1183 -544669580 81 1 645 1117 1158 642 640 0
 636 654 1185 82 1 1184 -544931724 81 1 636 1116 1158 16 632 0 627 645 1186 82 1
 1185 -545193868 81 1 627 1115 1158 464 623 0 617 636 1187 82 1 1186 -545456012
 81 1 617 1114 1158 613 481 0 0 627 1188 82 1 1187 -545718156 82 1 1188 -5459803
00 79 14 1161 SWEntUnchanged83 3 857 .792156862745098 .819607843137255 .93333333
3333333 13 24 3 0 0 0 0 0 0 9 16 84 3 852 11083 3 850 .792156862745098 .81960784
3137255 .933333333333333 50 255 19 187 0 472 842 6 0 +.045 .005 -.10553059262591
2 0 0 1 1 0 0 50 842 186 0 628 833 19 0 +.043 .04450221285621785 0 -447502133323
4865e-47 1 -1281697050317792e-32 1 0 -3491481338843135e-30 50 833 185 0 655 825
 842 0 +.033 .0420022128562179 -.0925305926259119 0 0 1 1 0 0 50 825 184 0 453 8
17 833 0 +.0692511064281092 .0707488935718911 0 1 -3491481338843135e-30 0 0 0 1
 50 817 183 0 664 808 825 0 +.043 .0445022128562179 -.0905305926259119 252307220
109204e-60 -268819009607405e-30 1 1 938576555570547e-45 0 51 808 182 0 674 799 8
17 0 +.0722511064281087 -.0642511064281089 -.0980305926259119 1 -349148133884313
5e-30 0 .0015 0 0 1 50 799 181 0 745 790 808 0 +0 .003 0 0 1 0 1 0 0 50 790 180
 0 646 782 799 0 +.043 .04450221285621785 0 1 -3491481338843135e-30 0 0 0 1 51 7
82 179 0 736 773 790 0 +.045 .005 -.1142856122653444 0 0 1 .002 1 0 0 50 773 178
 0 769 764 782 0 +.0722511064281092 .0707488935718911 -.0905305926259119 2523072
20109204e-60 -268819009607405e-30 1 1 938576555570547e-45 0 50 764 177 0 673 755
 773 0 +.0722511064281092 .0707488935718911 0 1 -3491481338843135e-30 0 0 0 1 50
 755 176 0 711 746 764 0 +.045 .005 -.0905305926259119 0 0 -1 0 -1 0 50 746 175
 0 462 737 755 0 +-976354114463543e-32 .003 -.105530592625912 791930284471762e-6
3 855968864172105e-47 1 1 -925185853854297e-31 0 51 737 174 0 469 728 746 0 +.04
5 .005 -.1142856122653444 0 0 1 .005 1 0 0 50 728 173 0 445 720 737 0 +.06725110
64281089 -.002 -.105530592625912 0 0 -1 0 -1 0 50 720 172 0 229 712 728 0 +.033
 .0445022128562179 -.100530592625912 0 0 -1 0 -1 0 51 712 171 0 458 703 720 0 +.
0672511064281089 -.002 -.0817755729864794 0 0 -1 .002 -1 0 0 50 703 170 0 618 69
4 712 0 +.0672511064281089 -.002 -.0905305926259119 0 0 1 1 0 0 51 694 169 0 689
 684 703 0 +.0672511064281089 -.002 -.0817755729864794 0 0 -1 .005 -1 0 0 50 684
 168 0 680 675 694 0 +.043 .04450221285621785 0 -4475021333234865e-47 1 -1281697
050317792e-32 1 0 -3491481338843135e-30 50 675 167 0 450 665 684 0 +.07225110642
81092 .0707488935718911 -.105530592625912 2988599315887655e-62 -925185853854297e
-31 1 1 323026914369393e-45 0 50 665 166 0 240 656 675 0 +.04 .04450221285621785
 0 1 -3491481338843135e-30 0 0 0 1 50 656 165 0 248 647 665 0 +.033 .04200221285
62179 -.100530592625912 -3491481338843135e-30 -1 0 -1 3491481338843135e-30 0 50
 647 164 0 642 637 656 0 +.043 .04450221285621785 -.105530592625912 298859931588
7655e-62 -925185853854297e-31 1 1 323026914369393e-45 0 51 637 163 0 16 629 647
 0 +.0722511064281087 -.0642511064281089 -.0980305926259119 1 -3491481338843135e
-30 0 .0015 0 0 1 50 629 162 0 464 620 637 0 +0 0 0 0 1 0 1 0 0 50 620 161 0 613
 0 629 0 +-2433634424886905e-32 .003 -.0905305926259119 194258454919959e-61 7226
3659926306e-45 1 1 -268819009607405e-30 0 84 3 846 48183 3 844 .792156862745098
 .819607843137255 .933333333333333 84 3 837 31083 3 835 .792156862745098 .819607
843137255 .933333333333333 84 3 829 78983 3 827 .792156862745098 .81960784313725
5 .933333333333333 84 3 821 34883 3 819 .792156862745098 .819607843137255 .93333
3333333333 84 3 812 69883 3 810 .792156862745098 .819607843137255 .9333333333333
33 84 3 803 22983 3 801 .792156862745098 .819607843137255 .933333333333333 84 3
 794 37383 3 792 .792156862745098 .819607843137255 .933333333333333 84 3 786 686
83 3 784 .792156862745098 .819607843137255 .933333333333333 84 3 777 74183 3 775
 .792156862745098 .819607843137255 .933333333333333 84 3 768 54183 3 766 .792156
862745098 .819607843137255 .933333333333333 84 3 759 18683 3 757 .79215686274509
8 .819607843137255 .933333333333333 84 3 750 56383 3 748 .792156862745098 .81960
7843137255 .933333333333333 84 3 741 14583 3 739 .792156862745098 .8196078431372
55 .933333333333333 84 3 732 53883 3 730 .792156862745098 .819607843137255 .9333
33333333333 84 3 724 36283 3 722 .792156862745098 .819607843137255 .933333333333
333 84 2 716 7183 3 714 .792156862745098 .819607843137255 .933333333333333 84 3
 707 43283 3 705 .792156862745098 .819607843137255 .933333333333333 84 3 698 728
83 3 696 .792156862745098 .819607843137255 .933333333333333 84 3 688 61883 3 686
 .792156862745098 .819607843137255 .933333333333333 84 3 679 45283 3 677 .792156
862745098 .819607843137255 .933333333333333 84 3 669 46583 3 667 .79215686274509
8 .819607843137255 .933333333333333 84 3 660 39983 3 658 .792156862745098 .81960
7843137255 .933333333333333 84 3 651 42083 3 649 .792156862745098 .8196078431372
55 .933333333333333 84 3 641 21783 3 639 .792156862745098 .819607843137255 .9333
33333333333 84 3 633 27483 3 631 .792156862745098 .819607843137255 .933333333333
333 84 3 624 30283 3 622 .792156862745098 .819607843137255 .933333333333333 79 1
3 610 SDL/TYSA_NAME83 3 606 .792156875133514 .819607853889465 .933333337306976 8
4 4 604 NONE83 3 601 .792156875133514 .819607853889465 .933333337306976 84 4 600
 NONE83 3 596 .792156875133514 .819607853889465 .933333337306976 84 4 595 NONE83
 3 591 .792156875133514 .819607853889465 .933333337306976 84 4 590 NONE83 3 586
 .792156875133514 .819607853889465 .933333337306976 84 4 585 NONE83 3 581 .79215
6875133514 .819607853889465 .933333337306976 84 4 580 NONE83 3 576 .792156875133
514 .819607853889465 .933333337306976 84 4 575 NONE83 3 571 .792156875133514 .81
9607853889465 .933333337306976 84 4 569 NONE83 3 565 .792156875133514 .819607853
889465 .933333337306976 84 4 564 NONE83 3 560 .792156875133514 .819607853889465
 .933333337306976 84 4 559 NONE83 3 555 .792156875133514 .819607853889465 .93333
3337306976 84 4 554 NONE83 3 550 .792156875133514 .819607853889465 .933333337306
976 84 4 549 NONE83 3 545 .792156875133514 .819607853889465 .933333337306976 84
 4 544 NONE83 3 540 .792156875133514 .819607853889465 .933333337306976 84 4 539
 NONE83 3 535 .792156875133514 .819607853889465 .933333337306976 84 4 534 NONE83
 3 530 .792156875133514 .819607853889465 .933333337306976 84 4 529 NONE83 3 525
 .792156875133514 .819607853889465 .933333337306976 84 4 524 NONE83 3 520 .79215
6875133514 .819607853889465 .933333337306976 84 4 519 NONE83 3 515 .792156875133
514 .819607853889465 .933333337306976 84 4 514 NONE84 3 510 22484 4 508 NONE79 2
0 504 ATTRIB_XPARASOLID_ID84 2 496 1484 2 490 2783 3 484 .792156875133514 .81960
7853889465 .933333337306976 84 3 482 71979 15 479 SDL/TYSA_COLOUR83 3 440 .79215
6875133514 .819607853889465 .933333337306976 83 3 258 .792156875133514 .81960785
3889465 .933333337306976 84 2 222 9284 3 214 36584 3 194 39784 3 183 71284 3 164
 38884 3 151 64284 3 84 28584 2 67 8384 3 37 26019 17 1 0 1 0 9 5 S0 74 4 CI16 i
ndex_map_offset0 0 1 dCCZ20 15 9 0 0 947 13 417 962 954 950 951 855 2 0 0 0 0 0
 0 0 0 0 0 0 80 2 12 1189 1190 8004 0 0 0 0 3 5 0 0 0 FFTFFFFFFFFFFF2 3 83 1 14
 1 79 16 1190 SDL/TYSA_DENSITY1 0 
